{"glyphs":{"0":{"ha":833,"x_min":48,"x_max":785,"o":"m 416 1084 q 690 933 596 1084 q 785 526 785 782 q 690 119 785 270 q 416 -32 596 -32 q 143 119 237 -32 q 48 526 48 270 q 143 933 48 782 q 416 1084 237 1084 m 211 301 l 575 871 q 500 957 541 935 q 416 979 460 979 q 244 853 303 979 q 185 534 185 727 q 188 439 185 490 q 211 301 191 388 m 621 746 l 259 172 q 326 98 288 123 q 411 73 364 73 q 594 217 540 73 q 648 537 648 361 q 621 746 648 646 z "},"1":{"ha":833,"x_min":127,"x_max":764,"o":"m 385 105 l 385 918 q 275 840 328 872 q 127 775 221 808 l 127 889 q 385 1053 276 952 l 511 1053 l 511 105 l 764 105 l 764 0 l 127 0 l 127 105 l 385 105 z "},"2":{"ha":833,"x_min":101,"x_max":738,"o":"m 738 0 l 101 0 l 101 116 q 119 212 101 161 q 189 327 138 263 q 298 450 241 391 l 370 523 q 465 627 392 545 q 562 751 538 708 q 585 837 585 795 q 531 942 585 905 q 409 979 477 979 q 322 970 370 979 q 239 949 275 961 q 122 901 203 937 l 122 1013 q 293 1068 208 1053 q 435 1084 379 1084 q 586 1057 517 1084 q 688 974 654 1030 q 722 854 722 918 q 679 708 722 783 q 516 516 635 633 l 439 439 l 374 376 q 274 255 312 313 q 232 116 236 197 l 738 116 l 738 0 z "},"3":{"ha":833,"x_min":98,"x_max":745,"o":"m 98 19 l 98 152 q 368 73 254 73 q 540 137 472 73 q 608 300 608 200 q 533 463 608 400 q 279 526 458 526 l 209 526 l 209 631 l 306 631 q 497 691 438 631 q 556 823 556 750 q 508 933 556 888 q 360 979 460 979 q 119 916 248 979 l 119 1036 q 355 1084 248 1084 q 620 1008 547 1084 q 693 836 693 932 q 654 701 693 764 q 512 588 616 637 q 650 522 604 561 q 721 429 697 482 q 745 309 745 375 q 636 64 745 161 q 353 -32 526 -32 q 243 -24 302 -32 q 98 19 184 -17 z "},"4":{"ha":833,"x_min":33,"x_max":801,"o":"m 479 0 l 479 294 l 33 294 l 33 400 l 479 1053 l 606 1053 l 606 400 l 801 400 l 801 294 l 606 294 l 606 0 l 479 0 m 479 400 l 479 861 l 167 400 l 479 400 z "},"5":{"ha":833,"x_min":106,"x_max":748,"o":"m 127 547 l 127 1053 l 717 1053 l 717 931 l 254 931 l 254 673 l 275 673 q 625 578 503 673 q 748 323 748 484 q 699 140 748 221 q 559 14 649 60 q 367 -32 469 -32 q 106 18 265 -32 l 106 155 q 235 104 164 124 q 367 84 307 84 q 485 113 427 84 q 574 198 543 142 q 606 313 606 254 q 519 479 606 411 q 210 547 432 547 l 127 547 z "},"6":{"ha":833,"x_min":69,"x_max":785,"o":"m 198 494 q 319 612 247 566 q 478 658 391 658 q 634 618 560 658 q 746 506 707 578 q 785 340 785 435 q 689 79 785 190 q 436 -32 593 -32 q 160 122 252 -32 q 69 515 69 277 q 185 931 69 778 q 499 1084 301 1084 q 706 1053 606 1084 l 706 925 q 494 979 593 979 q 275 849 353 979 q 198 521 198 720 l 198 494 m 446 73 q 548 103 496 73 q 629 196 600 134 q 659 333 659 259 q 609 491 659 429 q 467 553 559 553 q 310 481 371 553 q 248 307 248 410 q 308 139 248 204 q 446 73 368 73 z "},"7":{"ha":833,"x_min":111,"x_max":779,"o":"m 216 0 l 216 94 q 241 280 216 205 q 330 448 267 355 q 431 590 393 540 l 541 735 l 580 786 q 657 926 625 846 l 111 926 l 111 1053 l 779 1053 l 779 968 q 759 876 779 918 q 638 693 739 833 q 590 627 614 660 l 519 528 q 419 375 452 432 q 370 256 387 318 q 353 94 353 195 l 353 0 l 216 0 z "},"8":{"ha":833,"x_min":90,"x_max":753,"o":"m 311 568 l 288 585 q 194 685 240 618 q 148 830 148 751 q 231 1009 148 935 q 441 1084 313 1084 q 581 1056 519 1084 q 677 972 644 1027 q 711 852 711 918 q 696 766 711 808 q 649 683 680 724 q 527 568 618 642 l 584 522 q 718 382 684 441 q 753 250 753 323 q 670 52 753 136 q 422 -32 587 -32 q 173 46 256 -32 q 90 241 90 125 q 311 568 90 414 m 441 632 q 561 753 536 705 q 585 844 585 802 q 540 937 585 895 q 425 979 495 979 q 309 933 349 979 q 269 839 269 888 q 302 749 269 791 q 409 655 336 707 l 441 632 m 406 500 q 227 243 227 363 q 286 123 227 172 q 426 74 345 74 q 558 121 500 74 q 616 237 616 168 q 546 376 616 306 q 447 469 475 447 l 406 500 z "},"9":{"ha":833,"x_min":48,"x_max":764,"o":"m 635 559 q 514 440 586 486 q 355 395 441 395 q 199 434 273 395 q 87 546 125 474 q 48 713 48 618 q 144 973 48 862 q 397 1084 240 1084 q 672 929 581 1084 q 764 537 764 775 q 648 121 764 274 q 334 -32 532 -32 q 127 0 227 -32 l 127 127 q 339 74 239 74 q 557 203 480 74 q 635 532 635 333 l 635 559 m 387 979 q 285 948 336 979 q 204 856 233 918 q 174 719 174 793 q 224 562 174 623 q 366 500 274 500 q 523 571 462 500 q 585 745 585 643 q 525 913 585 848 q 387 979 465 979 z "},"\u0000":{"ha":0,"x_min":0,"x_max":0,"o":""},"\t":{"ha":833,"x_min":0,"x_max":0,"o":""}," ":{"ha":833,"x_min":0,"x_max":0,"o":""},"!":{"ha":833,"x_min":319,"x_max":514,"o":"m 359 300 l 328 1053 l 496 1053 l 464 300 l 359 300 m 417 -32 q 348 -3 377 -32 q 319 66 319 26 q 348 134 319 106 q 417 163 377 163 q 485 135 456 163 q 514 66 514 106 q 485 -3 514 25 q 417 -32 456 -32 z "},"\"":{"ha":833,"x_min":185,"x_max":648,"o":"m 315 715 l 229 715 l 185 1095 l 354 1095 l 315 715 m 608 715 l 522 715 l 483 1095 l 648 1095 l 608 715 z "},"#":{"ha":833,"x_min":48,"x_max":785,"o":"m 48 284 l 48 379 l 181 379 l 256 658 l 48 658 l 48 752 l 279 752 l 359 1053 l 458 1053 l 378 752 l 570 752 l 653 1053 l 752 1053 l 671 752 l 785 752 l 785 658 l 644 658 l 570 379 l 785 379 l 785 284 l 544 284 l 467 0 l 366 0 l 445 284 l 256 284 l 181 0 l 81 0 l 156 284 l 48 284 m 281 379 l 471 379 l 547 658 l 353 658 l 281 379 z "},"$":{"ha":833,"x_min":109,"x_max":751,"o":"m 393 -105 l 393 1 q 299 6 348 1 q 208 21 250 11 q 109 56 165 31 l 109 186 q 197 146 154 163 q 288 121 240 130 q 393 107 336 111 l 393 485 l 321 524 q 115 791 115 635 q 183 954 115 875 q 393 1045 252 1033 l 393 1158 l 488 1158 l 488 1045 q 677 1017 568 1045 l 677 900 l 654 907 q 488 941 551 935 l 488 572 l 564 529 q 711 408 671 467 q 751 281 751 348 q 721 164 751 220 q 634 66 690 107 q 488 10 578 26 l 488 -105 l 393 -105 m 393 629 l 393 943 q 288 891 325 927 q 251 807 251 855 q 282 720 251 762 q 393 629 314 678 m 488 429 l 488 117 q 588 181 562 143 q 614 267 614 220 q 589 346 614 313 q 488 429 563 379 z "},"%":{"ha":833,"x_min":1,"x_max":833,"o":"m 213 1053 q 367 979 311 1053 q 423 789 423 906 q 367 599 423 672 q 213 526 311 526 q 58 599 115 526 q 2 789 2 672 q 58 979 2 906 q 213 1053 115 1053 m 213 968 q 133 915 158 968 q 108 789 108 863 q 133 663 108 715 q 213 610 158 610 q 293 663 267 610 q 318 789 318 715 q 293 915 318 863 q 213 968 267 968 m 113 -32 l 1 -32 l 721 1084 l 833 1084 l 113 -32 m 618 526 q 772 456 713 526 q 831 274 831 385 q 768 73 831 146 q 617 0 706 0 q 470 70 530 0 q 410 263 410 139 q 467 454 410 381 q 618 526 524 526 m 621 442 q 541 391 567 442 q 515 259 515 339 q 547 127 515 170 q 620 84 578 84 q 695 131 665 84 q 726 266 726 178 q 700 389 726 335 q 621 442 675 442 z "},"&":{"ha":833,"x_min":1,"x_max":833,"o":"m 597 88 q 465 -7 530 18 q 323 -32 399 -32 q 90 50 178 -32 q 1 260 1 132 q 187 593 1 438 q 103 723 132 663 q 75 836 75 784 q 109 959 75 899 q 200 1051 142 1019 q 329 1084 258 1084 q 486 1034 422 1084 q 549 890 549 983 q 510 753 549 821 q 351 593 472 684 l 591 297 q 605 353 602 331 q 610 432 608 374 q 612 503 612 490 l 612 536 l 738 536 l 738 505 q 728 376 738 460 q 671 198 719 292 l 833 0 l 671 0 l 597 88 m 286 673 q 394 778 354 721 q 434 882 434 836 q 406 957 434 926 q 318 989 378 989 q 234 951 267 989 q 201 858 201 913 q 210 796 201 827 q 271 693 218 764 q 286 673 275 686 m 528 172 l 253 510 q 124 270 124 399 q 183 127 124 182 q 326 73 242 73 q 416 89 371 73 q 528 172 462 104 z "},"'":{"ha":833,"x_min":301,"x_max":532,"o":"m 463 673 l 372 673 l 301 1095 l 532 1095 l 463 673 z "},"(":{"ha":833,"x_min":127,"x_max":727,"o":"m 727 -252 q 410 -146 539 -241 q 204 109 281 -52 q 127 431 127 270 q 204 753 127 593 q 410 1009 281 914 q 727 1116 539 1103 l 727 1010 q 483 915 585 997 q 323 705 381 832 q 264 431 264 577 q 323 158 264 286 q 483 -52 381 31 q 727 -147 585 -134 l 727 -252 z "},")":{"ha":833,"x_min":106,"x_max":706,"o":"m 106 1116 q 423 1009 294 1103 q 629 753 552 914 q 706 431 706 593 q 629 109 706 270 q 423 -146 552 -52 q 106 -252 294 -241 l 106 -147 q 350 -52 248 -134 q 511 158 452 31 q 570 431 570 286 q 511 705 570 577 q 350 915 452 832 q 106 1010 248 997 l 106 1116 z "},"*":{"ha":833,"x_min":111,"x_max":722,"o":"m 352 447 l 366 682 l 174 553 l 111 663 l 319 765 l 111 868 l 174 976 l 366 848 l 352 1084 l 479 1084 l 462 848 l 658 976 l 722 868 l 513 765 l 722 663 l 658 553 l 462 682 l 479 447 l 352 447 z "},"+":{"ha":833,"x_min":48,"x_max":785,"o":"m 785 421 l 785 315 l 469 315 l 469 0 l 363 0 l 363 315 l 48 315 l 48 421 l 363 421 l 363 736 l 469 736 l 469 421 l 785 421 z "},",":{"ha":833,"x_min":288,"x_max":545,"o":"m 288 -294 l 288 -210 q 362 -173 336 -197 q 402 -112 387 -149 q 418 -23 418 -75 q 325 13 355 -23 q 295 89 295 48 q 328 168 295 136 q 406 200 361 200 q 504 151 463 200 q 545 16 545 102 q 513 -124 545 -58 q 424 -237 480 -191 q 288 -294 368 -284 z "},"-":{"ha":833,"x_min":154,"x_max":680,"o":"m 154 374 l 154 479 l 680 479 l 680 374 l 154 374 z "},".":{"ha":833,"x_min":306,"x_max":527,"o":"m 416 -32 q 338 1 371 -32 q 306 79 306 33 q 339 157 306 125 q 416 189 372 189 q 494 157 461 189 q 527 79 527 125 q 494 1 527 33 q 416 -32 462 -32 z "},"/":{"ha":833,"x_min":22,"x_max":812,"o":"m 146 -32 l 22 -32 l 692 1084 l 812 1084 l 146 -32 z "},":":{"ha":833,"x_min":306,"x_max":527,"o":"m 416 -32 q 338 1 371 -32 q 306 79 306 33 q 339 157 306 125 q 416 189 372 189 q 494 157 461 189 q 527 79 527 125 q 494 1 527 33 q 416 -32 462 -32 m 416 557 q 338 590 371 557 q 306 668 306 623 q 339 746 306 714 q 416 779 372 779 q 494 746 461 779 q 527 668 527 714 q 494 590 527 623 q 416 557 462 557 z "},";":{"ha":833,"x_min":288,"x_max":545,"o":"m 288 -294 l 288 -210 q 362 -173 336 -197 q 402 -112 387 -149 q 418 -23 418 -75 q 325 13 355 -23 q 295 89 295 48 q 328 168 295 136 q 406 200 361 200 q 504 151 463 200 q 545 16 545 102 q 513 -124 545 -58 q 424 -237 480 -191 q 288 -294 368 -284 m 406 557 q 328 590 360 557 q 295 668 295 623 q 328 746 295 714 q 406 779 361 779 q 483 746 450 779 q 516 668 516 714 q 484 590 516 623 q 406 557 451 557 z "},"<":{"ha":833,"x_min":48,"x_max":785,"o":"m 48 368 l 785 736 l 785 619 l 281 369 l 785 116 l 785 0 l 48 368 z "},"=":{"ha":833,"x_min":48,"x_max":785,"o":"m 785 536 l 785 431 l 48 431 l 48 536 l 785 536 m 785 300 l 785 195 l 48 195 l 48 300 l 785 300 z "},">":{"ha":833,"x_min":48,"x_max":785,"o":"m 785 368 l 48 0 l 48 117 l 552 368 l 48 621 l 48 736 l 785 368 z "},"?":{"ha":833,"x_min":140,"x_max":714,"o":"m 272 300 l 272 323 q 281 417 272 380 q 318 495 291 455 q 398 593 345 536 l 440 637 q 475 680 452 650 l 520 736 q 577 858 577 806 q 536 942 577 905 q 404 979 496 979 q 284 963 345 979 q 140 901 222 947 l 140 1023 q 403 1084 266 1084 q 634 1022 555 1084 q 714 861 714 960 q 611 658 714 763 l 566 612 l 513 557 l 465 507 q 418 439 439 477 q 398 331 398 400 l 398 300 l 272 300 m 341 -32 q 273 -3 302 -32 q 244 66 244 26 q 273 134 244 106 q 341 163 302 163 q 410 135 381 163 q 439 66 439 106 q 410 -3 439 25 q 341 -32 380 -32 z "},"@":{"ha":833,"x_min":1,"x_max":833,"o":"m 625 136 l 625 29 q 524 -20 568 -8 q 429 -32 479 -32 q 198 37 288 -32 q 55 229 108 106 q 1 530 1 352 q 115 930 1 777 q 420 1084 228 1084 q 722 948 611 1084 q 833 591 833 812 q 804 431 833 494 q 729 331 776 368 q 616 294 682 294 q 532 317 564 294 q 483 422 499 340 q 425 336 464 378 q 318 294 385 294 q 202 358 248 294 q 157 513 157 421 q 222 724 157 627 q 458 821 288 821 l 588 821 l 588 524 q 592 440 588 465 q 611 402 597 415 q 641 389 625 389 q 694 415 667 389 q 735 487 721 440 q 749 587 749 533 q 707 807 749 701 q 585 960 666 914 q 414 1005 503 1005 q 249 948 320 1005 q 131 779 177 892 q 85 528 85 665 q 131 273 85 391 q 254 102 176 156 q 426 47 331 47 q 625 136 534 47 m 483 549 l 483 731 l 458 731 q 343 706 378 731 q 288 627 308 681 q 267 509 267 574 q 283 429 267 457 q 328 400 300 400 q 410 447 368 400 q 483 549 452 493 z "},"A":{"ha":833,"x_min":22,"x_max":812,"o":"m 154 0 l 22 0 l 347 1053 l 486 1053 l 812 0 l 667 0 l 595 231 l 225 231 l 154 0 m 258 336 l 565 336 l 438 736 l 408 842 l 382 736 l 258 336 z "},"B":{"ha":833,"x_min":117,"x_max":732,"o":"m 117 0 l 117 1053 l 322 1053 q 570 1024 507 1053 q 664 941 633 996 q 695 816 695 886 q 677 710 695 760 q 623 620 659 661 q 518 542 587 578 q 688 418 644 492 q 732 272 732 345 q 695 136 732 202 q 589 35 657 71 q 372 0 522 0 l 117 0 m 254 578 l 397 578 q 499 640 467 608 q 548 712 532 672 q 564 799 564 751 q 520 910 564 873 q 349 947 476 947 l 254 947 l 254 578 m 254 105 l 383 105 q 544 156 492 105 q 595 279 595 208 q 567 377 595 332 q 479 447 538 421 q 292 473 419 473 l 254 473 l 254 105 z "},"C":{"ha":833,"x_min":80,"x_max":738,"o":"m 738 12 q 526 -32 620 -32 q 299 34 403 -32 q 138 231 195 100 q 80 526 80 361 q 137 820 80 690 q 298 1017 194 950 q 526 1084 401 1084 q 738 1040 620 1084 l 738 916 q 521 979 629 979 q 372 923 439 979 q 263 760 304 867 q 222 526 222 652 q 264 290 222 398 q 374 127 307 181 q 521 73 440 73 q 738 136 628 73 l 738 12 z "},"D":{"ha":833,"x_min":105,"x_max":779,"o":"m 105 0 l 105 1053 l 355 1053 q 611 992 527 1053 q 736 811 694 932 q 779 524 779 690 q 734 247 779 366 q 608 64 690 128 q 355 0 527 0 l 105 0 m 242 116 l 334 116 q 532 165 473 116 q 617 303 591 215 q 642 545 642 391 q 612 778 642 696 q 527 903 583 859 q 345 947 471 947 l 242 947 l 242 116 z "},"E":{"ha":833,"x_min":138,"x_max":706,"o":"m 706 116 l 706 0 l 138 0 l 138 1053 l 695 1053 l 695 947 l 275 947 l 275 589 l 653 589 l 653 484 l 275 484 l 275 116 l 706 116 z "},"F":{"ha":833,"x_min":154,"x_max":732,"o":"m 154 0 l 154 1053 l 732 1053 l 732 947 l 291 947 l 291 589 l 690 589 l 690 484 l 291 484 l 291 0 l 154 0 z "},"G":{"ha":833,"x_min":80,"x_max":738,"o":"m 738 1 q 534 -32 627 -32 q 299 33 402 -32 q 138 230 197 98 q 80 526 80 361 q 137 820 80 690 q 298 1017 194 950 q 526 1084 401 1084 q 737 1040 619 1084 l 737 916 q 520 979 628 979 q 371 923 439 979 q 263 760 304 867 q 222 525 222 652 q 300 214 222 354 q 546 73 378 73 q 601 77 568 73 l 601 416 l 496 416 l 496 521 l 738 521 l 738 1 z "},"H":{"ha":833,"x_min":85,"x_max":748,"o":"m 85 0 l 85 1053 l 222 1053 l 222 600 l 612 600 l 612 1053 l 748 1053 l 748 0 l 612 0 l 612 494 l 222 494 l 222 0 l 85 0 z "},"I":{"ha":833,"x_min":117,"x_max":716,"o":"m 117 0 l 117 105 l 348 105 l 348 947 l 117 947 l 117 1053 l 716 1053 l 716 947 l 485 947 l 485 105 l 716 105 l 716 0 l 117 0 z "},"J":{"ha":833,"x_min":75,"x_max":648,"o":"m 75 23 l 75 152 q 322 74 222 74 q 417 94 374 74 q 486 162 460 115 q 511 367 511 210 l 511 947 l 275 947 l 275 1053 l 648 1053 l 648 363 q 610 121 648 195 q 503 8 572 47 q 326 -32 433 -32 q 75 23 205 -32 z "},"K":{"ha":833,"x_min":106,"x_max":833,"o":"m 106 0 l 106 1053 l 243 1053 l 243 536 l 635 1053 l 780 1053 l 402 553 l 833 0 l 661 0 l 243 536 l 243 0 l 106 0 z "},"L":{"ha":833,"x_min":149,"x_max":717,"o":"m 717 116 l 717 0 l 149 0 l 149 1053 l 286 1053 l 286 116 l 717 116 z "},"M":{"ha":833,"x_min":38,"x_max":795,"o":"m 149 0 l 38 0 l 38 1053 l 176 1053 l 418 359 l 661 1053 l 795 1053 l 795 0 l 669 0 l 669 671 l 673 763 l 669 763 l 640 671 l 477 210 l 340 210 l 175 671 l 149 763 l 145 763 l 149 671 l 149 0 z "},"N":{"ha":833,"x_min":85,"x_max":748,"o":"m 212 0 l 85 0 l 85 1053 l 209 1053 l 581 352 l 622 248 l 625 248 l 622 352 l 622 1053 l 748 1053 l 748 0 l 622 0 l 260 689 l 209 800 l 212 690 l 212 0 z "},"O":{"ha":833,"x_min":48,"x_max":785,"o":"m 416 -32 q 143 119 237 -32 q 48 526 48 270 q 143 933 48 782 q 416 1084 237 1084 q 690 933 596 1084 q 785 526 785 782 q 690 119 785 270 q 416 -32 596 -32 m 416 74 q 582 186 515 74 q 648 526 648 298 q 582 866 648 754 q 416 979 515 979 q 251 866 317 979 q 185 526 185 754 q 251 186 185 298 q 416 74 317 74 z "},"P":{"ha":833,"x_min":119,"x_max":769,"o":"m 256 384 l 256 0 l 119 0 l 119 1053 l 381 1053 q 616 1016 543 1053 q 730 910 690 980 q 769 754 769 840 q 716 566 769 653 q 569 431 663 478 q 312 384 474 384 l 256 384 m 256 489 l 315 489 q 504 522 442 489 q 599 616 566 555 q 632 750 632 678 q 573 894 632 841 q 338 947 513 947 l 256 947 l 256 489 z "},"Q":{"ha":833,"x_min":48,"x_max":832,"o":"m 506 -20 q 591 -129 553 -98 q 688 -174 628 -159 q 820 -189 747 -189 l 832 -189 l 832 -294 l 800 -294 q 610 -267 669 -294 q 497 -184 550 -240 q 401 -31 444 -127 q 204 48 277 -17 q 90 250 132 113 q 48 543 48 386 q 140 928 48 772 q 416 1084 231 1084 q 690 933 595 1084 q 785 526 785 783 q 760 292 785 404 q 674 96 735 180 q 506 -20 614 12 m 416 979 q 251 866 317 979 q 185 526 185 754 q 251 186 185 298 q 416 74 317 74 q 582 186 515 74 q 648 526 648 298 q 582 866 648 754 q 416 979 515 979 z "},"R":{"ha":833,"x_min":101,"x_max":817,"o":"m 238 447 l 238 0 l 101 0 l 101 1053 l 382 1053 q 585 1024 520 1053 q 686 939 650 996 q 722 817 722 882 q 698 694 722 755 q 632 584 674 632 q 512 492 591 535 l 817 0 l 654 0 l 375 447 l 238 447 m 238 553 l 430 553 q 526 625 494 588 q 574 703 557 661 q 590 785 590 744 q 536 903 590 859 q 340 947 482 947 l 238 947 l 238 553 z "},"S":{"ha":833,"x_min":106,"x_max":748,"o":"m 106 22 l 106 151 q 402 74 269 74 q 509 95 458 74 q 586 157 559 117 q 612 243 612 197 q 576 346 612 298 q 441 452 540 394 l 372 492 l 302 532 q 117 803 117 641 q 200 1003 117 922 q 457 1084 282 1084 q 675 1051 570 1084 l 675 934 q 449 979 559 979 q 308 932 361 979 q 254 821 254 886 q 295 714 254 757 q 401 635 336 671 l 454 604 l 519 564 l 575 531 q 748 265 748 425 q 659 56 748 143 q 374 -32 570 -32 q 255 -21 312 -32 q 106 22 199 -11 z "},"T":{"ha":833,"x_min":33,"x_max":801,"o":"m 348 0 l 348 937 l 33 937 l 33 1053 l 801 1053 l 801 937 l 485 937 l 485 0 l 348 0 z "},"U":{"ha":833,"x_min":85,"x_max":748,"o":"m 85 1053 l 222 1053 l 222 361 q 245 175 222 225 q 315 99 268 125 q 420 73 362 73 q 529 101 481 73 q 599 190 576 130 q 622 415 622 250 l 622 1053 l 748 1053 l 748 366 q 704 135 748 218 q 590 10 661 52 q 412 -32 519 -32 q 238 5 313 -32 q 124 115 163 41 q 85 379 85 188 l 85 1053 z "},"V":{"ha":833,"x_min":22,"x_max":812,"o":"m 680 1053 l 812 1053 l 488 0 l 349 0 l 22 1053 l 167 1053 l 395 317 l 425 210 l 452 317 l 680 1053 z "},"W":{"ha":833,"x_min":19,"x_max":814,"o":"m 141 0 l 19 1053 l 144 1053 l 216 412 l 225 305 l 229 305 l 242 412 l 353 1053 l 477 1053 l 604 386 l 616 284 l 620 284 l 628 387 l 707 1053 l 814 1053 l 687 0 l 557 0 l 422 713 l 408 821 l 404 821 l 391 713 l 269 0 l 141 0 z "},"X":{"ha":833,"x_min":33,"x_max":801,"o":"m 175 0 l 33 0 l 340 550 l 62 1053 l 218 1053 l 419 690 l 625 1053 l 768 1053 l 490 560 l 801 0 l 643 0 l 412 420 l 175 0 z "},"Y":{"ha":833,"x_min":35,"x_max":798,"o":"m 349 0 l 349 487 l 35 1053 l 191 1053 l 425 635 l 658 1053 l 798 1053 l 486 487 l 486 0 l 349 0 z "},"Z":{"ha":833,"x_min":83,"x_max":751,"o":"m 83 0 l 83 116 l 583 947 l 98 947 l 98 1053 l 741 1053 l 741 947 l 241 116 l 751 116 l 751 0 l 83 0 z "},"[":{"ha":833,"x_min":241,"x_max":788,"o":"m 241 -252 l 241 1116 l 788 1116 l 788 1010 l 367 1010 l 367 -147 l 788 -147 l 788 -252 l 241 -252 z "},"\\":{"ha":833,"x_min":22,"x_max":812,"o":"m 688 -32 l 22 1084 l 142 1084 l 812 -32 l 688 -32 z "},"]":{"ha":833,"x_min":45,"x_max":593,"o":"m 593 1116 l 593 -252 l 45 -252 l 45 -147 l 467 -147 l 467 1010 l 45 1010 l 45 1116 l 593 1116 z "},"^":{"ha":833,"x_min":48,"x_max":785,"o":"m 416 1053 l 785 315 l 669 315 l 416 822 l 164 315 l 48 315 l 416 1053 z "},"_":{"ha":833,"x_min":48,"x_max":785,"o":"m 48 -105 l 48 0 l 785 0 l 785 -105 l 48 -105 z "},"`":{"ha":833,"x_min":217,"x_max":564,"o":"m 564 873 l 449 873 l 217 1095 l 363 1095 l 564 873 z "},"a":{"ha":833,"x_min":69,"x_max":758,"o":"m 603 170 q 464 27 545 75 q 315 -21 383 -21 q 145 61 220 -21 q 69 310 69 143 q 119 545 69 441 q 254 708 170 648 q 462 768 338 768 q 570 761 498 768 q 603 758 581 760 l 730 758 l 730 222 q 758 0 730 85 l 627 0 q 603 170 612 62 m 603 320 l 603 645 q 478 663 536 663 q 284 572 361 663 q 206 327 206 482 q 249 157 206 214 q 345 100 291 100 q 475 159 404 100 q 603 320 547 219 z "},"b":{"ha":833,"x_min":96,"x_max":756,"o":"m 222 587 q 361 730 280 682 q 509 779 441 779 q 680 696 604 779 q 756 448 756 614 q 706 213 756 316 q 571 49 655 109 q 363 -11 487 -11 q 254 -3 328 -11 q 222 0 243 -2 l 96 0 l 96 1095 l 222 1095 l 222 587 m 222 437 l 222 113 q 348 95 290 95 q 541 185 463 95 q 619 431 619 275 q 576 601 619 544 q 479 658 534 658 q 350 598 420 658 q 222 437 279 538 z "},"c":{"ha":833,"x_min":111,"x_max":743,"o":"m 743 22 q 501 -21 616 -21 q 299 32 387 -21 q 161 174 210 84 q 111 378 111 264 q 223 665 111 551 q 494 779 336 779 q 743 734 612 779 l 743 613 q 506 673 610 673 q 376 639 437 673 q 281 532 315 605 q 248 383 248 460 q 312 188 248 281 q 513 95 376 95 q 595 101 555 95 q 743 143 635 106 l 743 22 z "},"d":{"ha":833,"x_min":77,"x_max":738,"o":"m 611 170 q 472 27 553 75 q 323 -21 391 -21 q 153 61 229 -21 q 77 310 77 143 q 127 545 77 441 q 262 708 178 648 q 470 768 346 768 q 578 761 506 768 q 611 758 589 760 l 611 1095 l 738 1095 l 738 0 l 611 0 l 611 170 m 611 320 l 611 645 q 486 663 544 663 q 292 572 370 663 q 214 327 214 482 q 257 157 214 214 q 353 100 299 100 q 484 159 412 100 q 611 320 555 219 z "},"e":{"ha":833,"x_min":88,"x_max":746,"o":"m 735 50 q 449 -22 584 -22 q 266 29 347 -22 q 137 175 185 80 q 88 377 88 269 q 134 576 88 481 q 263 725 180 672 q 448 779 346 779 q 664 682 583 779 q 746 385 746 586 l 746 358 l 224 358 q 257 214 224 279 q 343 117 290 149 q 465 84 397 84 q 735 165 587 84 l 735 50 m 231 452 l 609 452 l 609 471 q 564 618 609 564 q 442 673 518 673 q 310 617 366 673 q 231 452 254 562 z "},"f":{"ha":833,"x_min":113,"x_max":787,"o":"m 281 0 l 281 589 l 113 589 l 113 694 l 281 694 l 281 730 q 315 951 281 880 q 420 1069 349 1023 q 608 1116 491 1116 q 787 1097 696 1116 l 787 977 q 612 1010 688 1010 q 506 987 552 1010 q 434 915 460 965 q 408 743 408 864 l 408 694 l 708 694 l 708 589 l 408 589 l 408 0 l 281 0 z "},"g":{"ha":833,"x_min":77,"x_max":738,"o":"m 611 170 q 472 27 553 75 q 323 -21 391 -21 q 153 61 229 -21 q 77 310 77 143 q 127 545 77 441 q 262 708 178 648 q 470 768 346 768 q 578 761 506 768 q 611 758 589 760 l 738 758 l 738 222 q 733 -12 738 31 q 716 -98 728 -54 q 592 -257 689 -199 q 359 -315 496 -315 q 80 -245 221 -315 l 80 -117 q 212 -182 134 -154 q 363 -210 290 -210 q 473 -192 421 -210 q 556 -139 524 -174 q 600 -59 588 -104 q 611 63 611 -13 l 611 170 m 611 320 l 611 645 q 486 663 544 663 q 292 572 370 663 q 214 327 214 482 q 257 157 214 214 q 353 100 299 100 q 484 159 412 100 q 611 320 555 219 z "},"h":{"ha":833,"x_min":105,"x_max":736,"o":"m 105 0 l 105 1095 l 231 1095 l 231 592 q 362 729 286 680 q 515 779 439 779 q 633 746 580 779 q 707 666 686 713 q 730 590 724 630 q 736 423 736 549 l 736 0 l 610 0 l 610 439 q 600 583 610 548 q 561 640 589 618 q 500 663 533 663 q 357 600 433 663 q 231 441 281 536 l 231 0 l 105 0 z "},"i":{"ha":833,"x_min":107,"x_max":654,"o":"m 317 0 l 317 652 l 107 652 l 107 758 l 444 758 l 444 105 l 654 105 l 654 0 l 317 0 m 296 1031 q 326 1095 296 1074 q 380 1116 355 1116 q 436 1095 407 1116 q 465 1031 465 1074 q 436 968 465 989 q 380 947 407 947 q 326 968 355 947 q 296 1031 296 989 z "},"j":{"ha":833,"x_min":117,"x_max":643,"o":"m 117 -297 l 117 -179 q 295 -210 222 -210 q 402 -188 358 -210 q 471 -114 446 -166 q 496 68 496 -62 l 496 652 l 174 652 l 174 758 l 622 758 l 622 92 q 576 -176 622 -101 q 467 -283 531 -251 q 290 -316 402 -316 q 117 -297 210 -316 m 475 1031 q 504 1095 475 1074 q 559 1116 532 1116 q 614 1095 585 1116 q 643 1031 643 1074 q 614 968 643 989 q 559 947 585 947 q 504 968 532 947 q 475 1031 475 989 z "},"k":{"ha":833,"x_min":139,"x_max":807,"o":"m 139 0 l 139 1095 l 265 1095 l 265 407 l 629 758 l 798 758 l 434 407 l 807 0 l 633 0 l 265 407 l 265 0 l 139 0 z "},"l":{"ha":833,"x_min":82,"x_max":671,"o":"m 309 0 l 309 989 l 82 989 l 82 1095 l 435 1095 l 435 105 l 671 105 l 671 0 l 309 0 z "},"m":{"ha":833,"x_min":48,"x_max":785,"o":"m 48 0 l 48 758 l 159 758 l 159 584 q 256 736 211 694 q 347 779 301 779 q 436 735 402 779 q 469 613 469 692 l 469 572 q 523 685 492 642 q 589 753 555 728 q 667 779 623 779 q 750 737 715 779 q 785 572 785 696 l 785 0 l 674 0 l 674 517 q 670 605 674 581 q 654 640 666 628 q 627 652 642 652 q 552 598 592 652 q 469 420 511 545 l 469 0 l 363 0 l 363 517 q 344 635 363 617 q 309 652 324 652 q 234 592 274 652 q 159 437 195 532 l 159 0 l 48 0 z "},"n":{"ha":833,"x_min":105,"x_max":736,"o":"m 105 0 l 105 758 l 231 758 l 231 592 q 362 729 286 680 q 515 779 439 779 q 637 743 583 779 q 714 650 692 707 q 736 423 736 592 l 736 0 l 610 0 l 610 439 q 600 583 610 548 q 561 640 589 618 q 500 663 533 663 q 357 600 433 663 q 231 441 281 536 l 231 0 l 105 0 z "},"o":{"ha":833,"x_min":59,"x_max":774,"o":"m 417 -21 q 157 93 254 -21 q 59 379 59 206 q 157 665 59 552 q 417 779 254 779 q 677 665 579 779 q 774 379 774 552 q 677 93 774 206 q 417 -21 579 -21 m 417 84 q 578 163 518 84 q 637 379 637 241 q 578 595 637 516 q 417 673 518 673 q 256 595 315 673 q 196 379 196 516 q 256 163 196 241 q 417 84 315 84 z "},"p":{"ha":833,"x_min":96,"x_max":756,"o":"m 222 587 q 361 730 280 682 q 509 779 441 779 q 680 696 604 779 q 756 448 756 614 q 706 213 756 316 q 571 49 655 109 q 363 -11 487 -11 q 254 -3 328 -11 q 222 0 243 -2 l 222 -294 l 96 -294 l 96 758 l 222 758 l 222 587 m 222 437 l 222 113 q 348 95 290 95 q 541 185 463 95 q 619 431 619 275 q 576 601 619 544 q 479 658 534 658 q 350 598 420 658 q 222 437 279 538 z "},"q":{"ha":833,"x_min":77,"x_max":738,"o":"m 611 170 q 472 27 553 75 q 323 -21 391 -21 q 153 61 229 -21 q 77 310 77 143 q 127 545 77 441 q 262 708 178 648 q 470 768 346 768 q 578 761 506 768 q 611 758 589 760 l 738 758 l 738 -294 l 611 -294 l 611 170 m 611 320 l 611 645 q 486 663 544 663 q 292 572 370 663 q 214 327 214 482 q 257 157 214 214 q 353 100 299 100 q 484 159 412 100 q 611 320 555 219 z "},"r":{"ha":833,"x_min":170,"x_max":738,"o":"m 170 0 l 170 758 l 296 758 l 296 592 q 431 732 355 686 q 601 779 507 779 q 738 758 669 779 l 738 484 l 616 484 l 616 657 q 566 663 585 663 q 428 607 496 663 q 296 440 360 551 l 296 0 l 170 0 z "},"s":{"ha":833,"x_min":114,"x_max":730,"o":"m 114 40 l 114 174 q 275 104 190 124 q 418 84 359 84 q 556 115 514 84 q 598 192 598 146 q 578 244 598 222 q 481 298 559 266 l 437 315 l 350 350 q 172 452 209 405 q 135 564 135 498 q 207 718 135 658 q 441 779 279 779 q 671 743 563 779 l 671 629 q 437 673 547 673 q 312 645 357 673 q 267 575 267 617 q 306 510 267 534 q 432 454 345 486 l 517 422 q 682 330 635 380 q 730 204 730 279 q 654 42 730 106 q 412 -21 578 -21 q 114 40 267 -21 z "},"t":{"ha":833,"x_min":65,"x_max":739,"o":"m 739 31 q 610 -14 650 -7 q 532 -21 570 -21 q 387 9 453 -21 q 288 100 321 40 q 254 284 254 159 l 254 589 l 65 589 l 65 694 l 254 694 l 254 1000 l 380 1000 l 380 694 l 718 694 l 718 589 l 380 589 l 380 286 q 402 157 380 195 q 460 102 424 119 q 546 84 496 84 q 739 142 637 84 l 739 31 z "},"u":{"ha":833,"x_min":97,"x_max":728,"o":"m 728 758 l 728 0 l 602 0 l 602 166 q 467 26 541 73 q 317 -21 392 -21 q 196 15 251 -21 q 119 108 140 50 q 97 334 97 166 l 97 758 l 223 758 l 223 319 q 234 175 223 210 q 272 117 244 140 q 333 95 300 95 q 476 158 399 95 q 602 316 552 220 l 602 758 l 728 758 z "},"v":{"ha":833,"x_min":22,"x_max":812,"o":"m 351 0 l 22 758 l 161 758 l 420 158 l 686 758 l 812 758 l 480 0 l 351 0 z "},"w":{"ha":833,"x_min":14,"x_max":819,"o":"m 137 0 l 14 758 l 131 758 l 203 296 l 222 189 l 240 296 l 361 758 l 474 758 l 610 296 l 634 189 l 650 296 l 722 758 l 819 758 l 696 0 l 578 0 l 433 488 l 410 595 l 407 595 l 386 488 l 260 0 l 137 0 z "},"x":{"ha":833,"x_min":38,"x_max":801,"o":"m 184 0 l 38 0 l 336 397 l 58 758 l 219 758 l 416 503 l 608 758 l 751 758 l 488 409 l 801 0 l 639 0 l 408 302 l 184 0 z "},"y":{"ha":833,"x_min":22,"x_max":812,"o":"m 384 31 l 34 758 l 173 758 l 452 189 l 685 758 l 812 758 l 518 54 q 341 -243 425 -170 q 125 -316 258 -316 q 22 -306 67 -316 l 22 -195 q 121 -211 74 -211 q 230 -187 182 -211 q 317 -103 277 -163 q 372 1 356 -43 l 384 31 z "},"z":{"ha":833,"x_min":90,"x_max":737,"o":"m 90 0 l 90 116 l 555 652 l 101 652 l 101 758 l 722 758 l 722 652 l 254 116 l 737 116 l 737 0 l 90 0 z "},"{":{"ha":833,"x_min":143,"x_max":748,"o":"m 371 431 q 464 366 434 398 q 508 301 493 334 q 522 224 522 267 q 509 123 522 185 l 492 45 q 478 -48 478 -18 q 510 -118 478 -90 q 643 -147 543 -147 l 748 -147 l 748 -252 l 642 -252 q 402 -193 456 -252 q 349 -58 349 -133 q 359 28 349 -18 l 371 83 l 382 142 l 391 178 q 395 227 395 203 q 353 334 395 290 q 203 379 311 379 l 143 379 l 143 484 l 203 484 q 352 528 309 484 q 395 638 395 572 q 391 686 395 663 l 382 721 l 371 780 l 359 834 q 349 921 349 881 q 402 1056 349 996 q 642 1116 456 1116 l 748 1116 l 748 1010 l 643 1010 q 511 981 543 1010 q 478 910 478 952 q 492 817 478 880 l 509 740 q 522 639 522 677 q 508 562 522 595 q 464 496 493 528 q 371 431 434 465 z "},"|":{"ha":833,"x_min":361,"x_max":472,"o":"m 361 -32 l 361 1084 l 472 1084 l 472 -32 l 361 -32 z "},"}":{"ha":833,"x_min":85,"x_max":690,"o":"m 463 431 q 370 496 399 465 q 326 562 340 528 q 312 639 312 595 q 325 740 312 677 l 342 817 q 355 911 355 880 q 323 981 355 952 q 191 1010 291 1010 l 85 1010 l 85 1116 l 192 1116 q 432 1056 378 1116 q 486 921 486 996 q 475 834 486 880 l 463 780 l 451 721 l 443 686 q 438 636 438 660 q 480 529 438 574 q 630 484 523 484 l 690 484 l 690 379 l 630 379 q 481 335 524 379 q 438 224 438 290 q 443 178 438 201 l 451 142 l 463 83 l 475 28 q 486 -58 486 -18 q 432 -193 486 -134 q 192 -252 378 -252 l 85 -252 l 85 -147 l 191 -147 q 323 -118 291 -147 q 355 -47 355 -90 q 342 45 355 -18 l 325 123 q 312 224 312 185 q 326 301 312 267 q 370 366 340 334 q 463 431 399 398 z "},"~":{"ha":833,"x_min":38,"x_max":795,"o":"m 38 273 l 38 286 q 91 440 38 374 q 232 505 143 505 q 276 501 254 505 q 324 486 297 496 q 406 445 351 475 l 488 399 q 610 358 563 358 q 685 394 661 358 q 709 473 709 431 l 709 484 l 795 484 l 795 473 q 731 306 795 360 q 595 252 667 252 q 418 315 528 252 l 349 355 q 222 400 270 400 q 171 386 195 400 q 134 340 148 372 q 119 286 119 309 l 119 273 l 38 273 z "}," ":{"ha":833,"x_min":0,"x_max":0,"o":""},"¡":{"ha":833,"x_min":319,"x_max":514,"o":"m 475 447 l 506 -305 l 338 -305 l 370 447 l 475 447 m 417 779 q 485 749 455 779 q 514 682 514 720 q 485 613 514 642 q 417 584 455 584 q 349 613 378 584 q 319 682 319 642 q 349 749 319 720 q 417 779 378 779 z "},"¢":{"ha":833,"x_min":80,"x_max":711,"o":"m 412 -105 l 412 130 q 238 195 311 142 q 123 331 166 248 q 80 519 80 414 q 120 707 80 625 q 231 844 160 789 q 412 918 302 898 l 412 1158 l 517 1158 l 517 918 q 711 880 629 905 l 711 758 q 657 783 687 772 q 594 803 627 794 q 517 816 561 812 l 517 229 q 600 243 571 235 q 688 278 629 251 q 711 289 696 282 l 711 167 q 517 130 610 134 l 517 -105 l 412 -105 m 412 234 l 412 810 q 262 699 307 778 q 217 519 217 619 q 258 350 217 433 q 412 234 298 266 z "},"£":{"ha":833,"x_min":96,"x_max":753,"o":"m 96 0 l 96 116 q 188 158 159 130 q 233 240 218 186 q 248 378 248 294 l 248 521 l 96 521 l 96 626 l 248 626 l 248 673 q 283 930 248 853 q 381 1046 317 1008 q 534 1084 445 1084 q 711 1044 618 1084 l 711 922 q 519 979 604 979 q 445 953 480 979 q 392 876 409 928 q 374 680 374 823 l 374 626 l 595 626 l 595 521 l 374 521 l 374 441 q 359 249 374 315 q 273 116 345 182 l 753 116 l 753 0 l 96 0 z "},"¤":{"ha":833,"x_min":48,"x_max":785,"o":"m 707 937 l 785 868 l 660 724 q 720 613 709 655 q 731 525 731 570 q 720 436 731 479 q 660 323 709 393 l 785 180 l 707 116 l 581 256 q 485 217 519 223 q 416 210 450 210 q 348 217 383 210 q 252 256 313 223 l 126 116 l 48 180 l 173 323 q 113 436 123 393 q 102 525 102 479 q 113 613 102 570 q 173 724 123 655 l 48 868 l 126 937 l 252 793 q 349 836 311 830 q 416 842 387 842 q 484 836 446 842 q 581 793 522 830 l 707 937 m 416 315 q 561 374 497 315 q 625 522 625 433 q 597 631 625 581 q 518 709 569 682 q 416 736 467 736 q 315 709 366 736 q 236 631 264 682 q 208 522 208 581 q 272 374 208 433 q 416 315 336 315 z "},"¥":{"ha":833,"x_min":35,"x_max":798,"o":"m 354 0 l 354 168 l 133 168 l 133 263 l 354 263 l 354 395 l 133 395 l 133 489 l 348 489 l 35 1053 l 174 1053 l 423 617 l 673 1053 l 798 1053 l 480 489 l 696 489 l 696 395 l 480 395 l 480 263 l 696 263 l 696 168 l 480 168 l 480 0 l 354 0 z "},"¦":{"ha":833,"x_min":361,"x_max":472,"o":"m 361 -32 l 361 463 l 472 463 l 472 -32 l 361 -32 m 361 589 l 361 1084 l 472 1084 l 472 589 l 361 589 z "},"§":{"ha":833,"x_min":101,"x_max":748,"o":"m 101 -204 l 101 -68 q 249 -126 170 -105 q 392 -147 328 -147 q 547 -106 493 -147 q 601 -17 601 -64 q 574 52 601 22 q 458 132 547 81 l 359 188 q 171 330 226 262 q 117 471 117 397 q 215 671 117 581 q 150 746 172 704 q 127 838 127 787 q 165 960 127 904 q 271 1050 203 1017 q 446 1084 340 1084 q 675 1045 547 1084 l 675 924 q 563 962 633 946 q 440 979 493 979 q 306 942 348 979 q 264 861 264 905 q 276 816 264 837 q 311 776 288 795 q 397 715 358 739 l 439 692 l 541 632 q 710 496 671 555 q 748 367 748 437 q 650 165 748 256 q 725 73 713 114 q 738 1 738 33 q 693 -126 738 -62 q 572 -221 648 -189 q 387 -252 496 -252 q 101 -204 238 -252 m 565 216 q 633 342 633 271 q 589 438 633 391 q 488 517 545 484 l 425 553 l 300 624 q 252 552 260 579 q 243 499 243 524 q 280 402 243 444 q 452 282 317 359 l 565 216 z "},"¨":{"ha":833,"x_min":185,"x_max":648,"o":"m 269 873 q 210 898 235 873 q 185 958 185 922 q 210 1017 185 993 q 269 1042 235 1042 q 328 1017 303 1042 q 353 958 353 993 q 329 898 353 922 q 269 873 304 873 m 564 873 q 505 898 530 873 q 479 958 479 922 q 505 1017 479 993 q 564 1042 530 1042 q 623 1017 598 1042 q 648 958 648 993 q 623 898 648 922 q 564 873 598 873 z "},"©":{"ha":833,"x_min":1,"x_max":833,"o":"m 417 -32 q 198 37 286 -32 q 56 234 111 105 q 1 526 1 363 q 52 810 1 684 q 192 1010 102 936 q 417 1084 281 1084 q 636 1015 549 1084 q 779 817 724 945 q 833 526 833 689 q 778 234 833 363 q 636 37 724 105 q 417 -32 549 -32 m 417 53 q 580 107 504 53 q 702 279 656 162 q 749 526 749 395 q 702 774 749 656 q 579 945 655 891 q 417 1000 503 1000 q 252 943 329 1000 q 130 770 175 886 q 85 526 85 654 q 133 276 85 394 q 256 105 180 158 q 417 53 331 53 m 606 294 l 606 191 q 461 168 545 168 q 303 216 372 168 q 194 345 235 264 q 154 526 154 426 q 193 708 154 625 q 295 838 232 791 q 451 884 359 884 q 606 862 520 884 l 606 754 q 550 768 581 762 q 496 776 519 773 q 457 779 473 779 q 320 709 371 779 q 270 524 270 640 q 329 330 270 397 q 475 263 389 263 q 606 294 530 263 z "},"ª":{"ha":833,"x_min":143,"x_max":696,"o":"m 570 719 q 465 636 530 667 q 340 605 399 605 q 203 655 264 605 q 143 807 143 705 q 183 949 143 887 q 289 1047 222 1011 q 457 1084 356 1084 q 545 1080 488 1084 l 569 1078 l 664 1078 l 664 755 q 668 691 664 722 q 696 616 671 661 l 591 616 q 570 719 577 655 m 569 819 l 568 992 q 469 1000 515 1000 q 312 951 376 1000 q 248 814 248 902 q 282 724 248 754 q 362 694 316 694 q 470 730 411 694 q 569 819 529 765 z "},"«":{"ha":833,"x_min":104,"x_max":762,"o":"m 425 326 l 425 431 l 685 715 l 762 642 l 550 379 l 762 109 l 685 42 l 425 326 m 104 326 l 104 431 l 364 715 l 440 642 l 229 379 l 440 109 l 364 42 l 104 326 z "},"¬":{"ha":833,"x_min":48,"x_max":785,"o":"m 785 421 l 785 105 l 680 105 l 680 315 l 48 315 l 48 421 l 785 421 z "},"­":{"ha":833,"x_min":154,"x_max":680,"o":"m 154 374 l 154 479 l 680 479 l 680 374 l 154 374 z "},"®":{"ha":833,"x_min":1,"x_max":833,"o":"m 417 -32 q 198 37 286 -32 q 56 234 111 105 q 1 526 1 363 q 52 810 1 684 q 192 1010 102 936 q 417 1084 281 1084 q 636 1015 549 1084 q 779 817 724 945 q 833 526 833 689 q 778 234 833 363 q 636 37 724 105 q 417 -32 549 -32 m 417 53 q 580 107 504 53 q 702 279 656 162 q 749 526 749 395 q 702 774 749 656 q 579 945 655 891 q 417 1000 503 1000 q 252 943 329 1000 q 130 770 175 886 q 85 526 85 654 q 133 276 85 394 q 256 105 180 158 q 417 53 331 53 m 335 487 l 335 230 l 241 230 l 241 850 l 390 850 q 552 806 509 850 q 594 707 594 762 q 566 604 594 656 q 476 517 537 552 l 636 230 l 524 230 l 391 487 l 335 487 m 335 562 l 414 562 q 478 618 457 587 q 500 689 500 650 q 472 752 500 729 q 366 775 444 775 l 335 775 l 335 562 z "},"¯":{"ha":833,"x_min":227,"x_max":606,"o":"m 227 873 l 227 958 l 606 958 l 606 873 l 227 873 z "},"°":{"ha":833,"x_min":233,"x_max":601,"o":"m 417 715 q 286 770 340 715 q 233 899 233 825 q 287 1030 233 976 q 417 1084 342 1084 q 547 1030 492 1084 q 601 899 601 976 q 547 770 601 825 q 417 715 494 715 m 417 779 q 503 815 468 779 q 538 899 538 852 q 502 985 538 949 q 417 1021 467 1021 q 331 985 367 1021 q 296 899 296 949 q 331 815 296 852 q 417 779 366 779 z "},"±":{"ha":833,"x_min":48,"x_max":785,"o":"m 785 631 l 785 526 l 469 526 l 469 210 l 363 210 l 363 526 l 48 526 l 48 631 l 363 631 l 363 947 l 469 947 l 469 631 l 785 631 m 785 105 l 785 0 l 48 0 l 48 105 l 785 105 z "},"²":{"ha":833,"x_min":161,"x_max":671,"o":"m 671 437 l 161 437 l 161 515 q 195 601 161 555 q 319 715 228 647 l 376 757 q 515 867 474 831 q 556 932 556 903 q 509 983 556 966 q 414 1000 462 1000 q 332 995 378 1000 q 182 961 286 990 l 182 1046 q 431 1084 302 1084 q 606 1044 551 1084 q 661 944 661 1004 q 628 855 661 899 q 500 742 595 810 l 438 698 l 387 661 q 307 594 338 625 q 271 526 275 562 l 671 526 l 671 437 z "},"³":{"ha":833,"x_min":271,"x_max":792,"o":"m 271 448 l 271 545 q 488 505 393 505 q 632 539 576 505 q 687 622 687 574 q 620 708 687 680 q 417 736 552 736 l 361 736 l 361 821 l 438 821 q 594 853 543 821 q 645 925 645 886 q 603 979 645 958 q 483 1000 562 1000 q 287 970 393 1000 l 287 1060 q 480 1084 394 1084 q 690 1038 624 1084 q 733 991 717 1020 q 750 934 750 962 q 724 859 750 898 q 635 792 699 819 q 751 730 711 772 q 792 628 792 688 q 705 478 792 535 q 475 421 618 421 q 271 448 366 421 z "},"´":{"ha":833,"x_min":217,"x_max":564,"o":"m 217 873 l 418 1095 l 564 1095 l 332 873 l 217 873 z "},"µ":{"ha":833,"x_min":83,"x_max":730,"o":"m 730 758 l 730 0 l 604 0 l 604 164 q 485 23 552 68 q 352 -21 418 -21 q 303 -16 329 -21 q 259 -2 278 -10 q 209 32 240 7 l 209 -252 l 83 -252 l 83 758 l 209 758 l 209 317 q 249 139 209 189 q 349 89 289 89 q 464 133 408 89 q 604 311 520 178 l 604 758 l 730 758 z "},"¶":{"ha":833,"x_min":59,"x_max":801,"o":"m 374 -252 l 374 463 q 137 565 215 479 q 59 762 59 651 q 97 908 59 838 q 203 1015 135 978 q 437 1053 271 1053 l 801 1053 l 801 947 l 690 947 l 690 -252 l 585 -252 l 585 947 l 480 947 l 480 -252 l 374 -252 z "},"·":{"ha":833,"x_min":306,"x_max":527,"o":"m 416 479 q 495 445 464 479 q 527 368 527 410 q 495 292 527 326 q 416 258 464 258 q 337 292 369 258 q 306 368 306 326 q 337 445 306 410 q 416 479 369 479 z "},"¸":{"ha":833,"x_min":301,"x_max":532,"o":"m 465 0 l 415 -89 q 510 -133 488 -103 q 532 -196 532 -163 q 503 -264 532 -233 q 409 -295 473 -295 q 301 -276 353 -295 l 301 -216 q 382 -237 340 -237 q 425 -222 406 -237 q 444 -193 444 -208 q 317 -134 444 -146 l 391 0 l 465 0 z "},"¹":{"ha":833,"x_min":182,"x_max":692,"o":"m 393 521 l 393 970 q 182 888 294 916 l 182 973 q 395 1068 306 1010 l 488 1068 l 488 521 l 692 521 l 692 437 l 182 437 l 182 521 l 393 521 z "},"º":{"ha":833,"x_min":122,"x_max":711,"o":"m 416 600 q 195 672 269 600 q 122 842 122 745 q 195 1011 122 939 q 416 1084 269 1084 q 638 1011 565 1084 q 711 842 711 939 q 638 672 711 745 q 416 600 565 600 m 416 684 q 553 724 500 684 q 606 842 606 765 q 553 959 606 918 q 416 1000 500 1000 q 280 959 333 1000 q 227 842 227 918 q 280 724 227 765 q 416 684 333 684 z "},"»":{"ha":833,"x_min":72,"x_max":730,"o":"m 408 431 l 408 326 l 149 42 l 72 116 l 283 379 l 72 649 l 149 715 l 408 431 m 730 431 l 730 326 l 469 42 l 393 116 l 604 379 l 393 649 l 469 715 l 730 431 z "},"¼":{"ha":833,"x_min":1,"x_max":833,"o":"m 1 526 l 1 610 l 159 610 l 159 948 l 1 843 l 1 948 l 159 1053 l 270 1053 l 270 610 l 349 610 l 349 526 l 1 526 m 113 -32 l 1 -32 l 718 1084 l 833 1084 l 113 -32 m 732 0 l 627 0 l 627 105 l 349 105 l 349 189 l 627 521 l 732 521 l 732 189 l 833 189 l 833 105 l 732 105 l 732 0 m 627 189 l 627 388 l 461 189 l 627 189 z "},"½":{"ha":833,"x_min":1,"x_max":833,"o":"m 1 526 l 1 610 l 159 610 l 159 948 l 1 843 l 1 948 l 159 1053 l 270 1053 l 270 610 l 349 610 l 349 526 l 1 526 m 110 -32 l 1 -32 l 719 1084 l 833 1084 l 110 -32 m 801 0 l 427 0 l 427 84 q 460 148 427 104 q 575 248 494 191 l 616 277 q 685 336 674 318 q 696 375 696 353 q 668 423 696 410 q 606 437 640 437 q 475 396 551 437 l 475 484 q 630 521 566 521 q 756 481 711 521 q 801 380 801 441 q 765 292 801 331 q 667 212 729 252 l 637 191 q 575 144 600 167 q 554 121 563 132 q 538 84 546 110 l 801 84 l 801 0 z "},"¾":{"ha":833,"x_min":1,"x_max":833,"o":"m 85 747 l 85 831 l 140 831 q 255 856 234 831 q 275 903 275 881 q 255 947 275 926 q 189 968 235 968 q 54 941 142 968 l 54 1023 q 218 1053 144 1053 q 343 1010 306 1053 q 380 920 380 967 q 361 852 380 883 q 301 797 341 821 q 372 749 349 778 q 396 681 396 720 q 345 575 396 624 q 194 526 294 526 q 54 549 124 526 l 54 642 q 201 610 151 610 q 264 628 237 610 q 291 675 291 646 q 261 727 291 706 q 135 747 231 747 l 85 747 m 113 -32 l 1 -32 l 718 1084 l 833 1084 l 113 -32 m 732 0 l 627 0 l 627 105 l 349 105 l 349 189 l 627 521 l 732 521 l 732 189 l 833 189 l 833 105 l 732 105 l 732 0 m 627 189 l 627 388 l 461 189 l 627 189 z "},"¿":{"ha":833,"x_min":119,"x_max":693,"o":"m 562 447 l 562 423 q 552 330 562 368 q 515 252 543 292 q 435 155 488 212 l 393 109 q 357 68 381 97 l 313 12 q 256 -111 256 -59 q 297 -195 256 -158 q 429 -231 338 -231 q 549 -216 488 -231 q 693 -154 611 -200 l 693 -275 q 430 -337 567 -337 q 199 -275 278 -337 q 119 -114 119 -212 q 222 90 119 -16 l 267 136 l 319 190 l 368 239 q 415 308 395 270 q 435 416 435 347 l 435 447 l 562 447 m 492 578 q 423 607 452 578 q 395 676 395 636 q 423 745 395 716 q 492 773 452 773 q 560 745 531 773 q 589 676 589 717 q 560 607 589 635 q 492 578 531 578 z "},"À":{"ha":833,"x_min":22,"x_max":812,"o":"m 154 0 l 22 0 l 347 1053 l 486 1053 l 812 0 l 667 0 l 595 231 l 225 231 l 154 0 m 258 336 l 565 336 l 438 736 l 408 842 l 382 736 l 258 336 m 589 1168 l 473 1168 l 241 1389 l 388 1389 l 589 1168 z "},"Á":{"ha":833,"x_min":22,"x_max":812,"o":"m 154 0 l 22 0 l 347 1053 l 486 1053 l 812 0 l 667 0 l 595 231 l 225 231 l 154 0 m 258 336 l 565 336 l 438 736 l 408 842 l 382 736 l 258 336 m 241 1168 l 442 1389 l 589 1389 l 357 1168 l 241 1168 z "},"Â":{"ha":833,"x_min":22,"x_max":812,"o":"m 154 0 l 22 0 l 347 1053 l 486 1053 l 812 0 l 667 0 l 595 231 l 225 231 l 154 0 m 258 336 l 565 336 l 438 736 l 408 842 l 382 736 l 258 336 m 417 1282 l 322 1168 l 217 1168 l 375 1389 l 459 1389 l 617 1168 l 511 1168 l 417 1282 z "},"Ã":{"ha":833,"x_min":22,"x_max":812,"o":"m 154 0 l 22 0 l 347 1053 l 486 1053 l 812 0 l 667 0 l 595 231 l 225 231 l 154 0 m 258 336 l 565 336 l 438 736 l 408 842 l 382 736 l 258 336 m 287 1168 l 202 1168 q 237 1299 202 1257 q 325 1341 272 1341 q 410 1314 367 1341 l 439 1297 q 517 1262 495 1262 q 558 1341 558 1262 l 644 1341 q 626 1240 640 1272 q 582 1188 612 1208 q 517 1167 553 1167 q 422 1200 473 1167 l 392 1219 l 376 1231 q 332 1246 353 1246 q 302 1231 317 1246 q 287 1168 287 1215 z "},"Ä":{"ha":833,"x_min":22,"x_max":812,"o":"m 154 0 l 22 0 l 347 1053 l 486 1053 l 812 0 l 667 0 l 595 231 l 225 231 l 154 0 m 258 336 l 565 336 l 438 736 l 408 842 l 382 736 l 258 336 m 269 1168 q 210 1192 235 1168 q 185 1252 185 1217 q 210 1312 185 1287 q 269 1336 235 1336 q 328 1312 303 1336 q 353 1252 353 1287 q 329 1192 353 1217 q 269 1168 304 1168 m 564 1168 q 505 1192 530 1168 q 479 1252 479 1217 q 505 1312 479 1287 q 564 1336 530 1336 q 623 1312 598 1336 q 648 1252 648 1287 q 623 1192 648 1217 q 564 1168 598 1168 z "},"Å":{"ha":833,"x_min":22,"x_max":812,"o":"m 486 1053 l 812 0 l 667 0 l 595 231 l 225 231 l 154 0 l 22 0 l 347 1053 q 304 1100 318 1074 q 290 1158 290 1126 q 327 1246 290 1208 q 416 1284 363 1284 q 505 1246 468 1284 q 542 1158 542 1209 q 528 1100 542 1126 q 486 1053 514 1074 m 258 336 l 565 336 l 438 736 l 408 842 l 382 736 l 258 336 m 353 1158 q 371 1113 353 1132 q 416 1095 390 1095 q 460 1113 441 1095 q 479 1158 479 1132 q 460 1202 479 1183 q 416 1221 441 1221 q 371 1202 390 1221 q 353 1158 353 1183 z "},"Æ":{"ha":833,"x_min":1,"x_max":801,"o":"m 433 0 l 433 252 l 220 252 l 117 0 l 1 0 l 433 1053 l 801 1053 l 801 947 l 559 947 l 559 584 l 791 584 l 791 479 l 559 479 l 559 116 l 801 116 l 801 0 l 433 0 m 258 347 l 433 347 l 433 769 l 258 347 z "},"Ç":{"ha":833,"x_min":80,"x_max":738,"o":"m 738 1040 l 738 916 q 521 979 629 979 q 372 923 439 979 q 263 760 304 867 q 222 526 222 652 q 264 290 222 398 q 374 127 307 181 q 521 73 440 73 q 738 136 628 73 l 738 12 q 608 -26 651 -19 q 510 -33 564 -33 l 479 -89 q 574 -133 552 -103 q 597 -196 597 -163 q 567 -264 597 -233 q 473 -295 537 -295 q 366 -276 417 -295 l 366 -216 q 446 -237 405 -237 q 489 -222 470 -237 q 508 -193 508 -208 q 382 -134 508 -146 l 441 -25 q 232 86 310 8 q 117 269 153 165 q 80 511 80 373 q 207 935 80 785 q 526 1084 334 1084 q 738 1040 620 1084 z "},"È":{"ha":833,"x_min":138,"x_max":706,"o":"m 706 116 l 706 0 l 138 0 l 138 1053 l 695 1053 l 695 947 l 275 947 l 275 589 l 653 589 l 653 484 l 275 484 l 275 116 l 706 116 m 596 1168 l 481 1168 l 249 1389 l 395 1389 l 596 1168 z "},"É":{"ha":833,"x_min":138,"x_max":706,"o":"m 706 116 l 706 0 l 138 0 l 138 1053 l 695 1053 l 695 947 l 275 947 l 275 589 l 653 589 l 653 484 l 275 484 l 275 116 l 706 116 m 249 1168 l 450 1389 l 596 1389 l 364 1168 l 249 1168 z "},"Ê":{"ha":833,"x_min":138,"x_max":706,"o":"m 706 116 l 706 0 l 138 0 l 138 1053 l 695 1053 l 695 947 l 275 947 l 275 589 l 653 589 l 653 484 l 275 484 l 275 116 l 706 116 m 417 1282 l 322 1168 l 217 1168 l 375 1389 l 459 1389 l 617 1168 l 511 1168 l 417 1282 z "},"Ë":{"ha":833,"x_min":138,"x_max":706,"o":"m 706 116 l 706 0 l 138 0 l 138 1053 l 695 1053 l 695 947 l 275 947 l 275 589 l 653 589 l 653 484 l 275 484 l 275 116 l 706 116 m 275 1168 q 215 1192 240 1168 q 191 1252 191 1217 q 216 1312 191 1287 q 275 1336 241 1336 q 334 1312 309 1336 q 359 1252 359 1287 q 334 1192 359 1217 q 275 1168 309 1168 m 570 1168 q 510 1192 535 1168 q 485 1252 485 1217 q 510 1312 485 1287 q 570 1336 536 1336 q 629 1312 604 1336 q 654 1252 654 1287 q 629 1192 654 1217 q 570 1168 604 1168 z "},"Ì":{"ha":833,"x_min":117,"x_max":716,"o":"m 117 0 l 117 105 l 348 105 l 348 947 l 117 947 l 117 1053 l 716 1053 l 716 947 l 485 947 l 485 105 l 716 105 l 716 0 l 117 0 m 591 1168 l 475 1168 l 243 1389 l 390 1389 l 591 1168 z "},"Í":{"ha":833,"x_min":117,"x_max":716,"o":"m 117 0 l 117 105 l 348 105 l 348 947 l 117 947 l 117 1053 l 716 1053 l 716 947 l 485 947 l 485 105 l 716 105 l 716 0 l 117 0 m 243 1168 l 444 1389 l 591 1389 l 359 1168 l 243 1168 z "},"Î":{"ha":833,"x_min":117,"x_max":716,"o":"m 117 0 l 117 105 l 348 105 l 348 947 l 117 947 l 117 1053 l 716 1053 l 716 947 l 485 947 l 485 105 l 716 105 l 716 0 l 117 0 m 417 1282 l 322 1168 l 217 1168 l 375 1389 l 459 1389 l 617 1168 l 511 1168 l 417 1282 z "},"Ï":{"ha":833,"x_min":117,"x_max":716,"o":"m 117 0 l 117 105 l 348 105 l 348 947 l 117 947 l 117 1053 l 716 1053 l 716 947 l 485 947 l 485 105 l 716 105 l 716 0 l 117 0 m 269 1168 q 210 1192 235 1168 q 185 1252 185 1217 q 210 1312 185 1287 q 269 1336 235 1336 q 328 1312 303 1336 q 353 1252 353 1287 q 329 1192 353 1217 q 269 1168 304 1168 m 564 1168 q 505 1192 530 1168 q 479 1252 479 1217 q 505 1312 479 1287 q 564 1336 530 1336 q 623 1312 598 1336 q 648 1252 648 1287 q 623 1192 648 1217 q 564 1168 598 1168 z "},"Ð":{"ha":833,"x_min":1,"x_max":780,"o":"m 106 0 l 106 484 l 1 484 l 1 589 l 106 589 l 106 1053 l 356 1053 q 615 1000 541 1053 q 734 819 689 948 q 780 524 780 690 q 734 243 780 366 q 615 60 689 119 q 385 0 541 0 l 106 0 m 243 116 l 335 116 q 535 159 484 116 q 615 296 587 202 q 644 545 644 391 q 615 782 644 696 q 538 907 587 868 q 346 947 489 947 l 243 947 l 243 589 l 412 589 l 412 484 l 243 484 l 243 116 z "},"Ñ":{"ha":833,"x_min":85,"x_max":748,"o":"m 212 0 l 85 0 l 85 1053 l 209 1053 l 581 352 l 622 248 l 625 248 l 622 352 l 622 1053 l 748 1053 l 748 0 l 622 0 l 260 689 l 209 800 l 212 690 l 212 0 m 287 1168 l 202 1168 q 237 1299 202 1257 q 325 1341 272 1341 q 410 1314 367 1341 l 439 1297 q 517 1262 495 1262 q 558 1341 558 1262 l 644 1341 q 626 1240 640 1272 q 582 1188 612 1208 q 517 1167 553 1167 q 422 1200 473 1167 l 392 1219 l 376 1231 q 332 1246 353 1246 q 302 1231 317 1246 q 287 1168 287 1215 z "},"Ò":{"ha":833,"x_min":48,"x_max":785,"o":"m 416 -32 q 143 119 237 -32 q 48 526 48 270 q 143 933 48 782 q 416 1084 237 1084 q 690 933 596 1084 q 785 526 785 782 q 690 119 785 270 q 416 -32 596 -32 m 416 74 q 582 186 515 74 q 648 526 648 298 q 582 866 648 754 q 416 979 515 979 q 251 866 317 979 q 185 526 185 754 q 251 186 185 298 q 416 74 317 74 m 591 1168 l 475 1168 l 243 1389 l 390 1389 l 591 1168 z "},"Ó":{"ha":833,"x_min":48,"x_max":785,"o":"m 416 -32 q 143 119 237 -32 q 48 526 48 270 q 143 933 48 782 q 416 1084 237 1084 q 690 933 596 1084 q 785 526 785 782 q 690 119 785 270 q 416 -32 596 -32 m 416 74 q 582 186 515 74 q 648 526 648 298 q 582 866 648 754 q 416 979 515 979 q 251 866 317 979 q 185 526 185 754 q 251 186 185 298 q 416 74 317 74 m 243 1168 l 444 1389 l 591 1389 l 359 1168 l 243 1168 z "},"Ô":{"ha":833,"x_min":48,"x_max":785,"o":"m 416 -32 q 143 119 237 -32 q 48 526 48 270 q 143 933 48 782 q 416 1084 237 1084 q 690 933 596 1084 q 785 526 785 782 q 690 119 785 270 q 416 -32 596 -32 m 416 74 q 582 186 515 74 q 648 526 648 298 q 582 866 648 754 q 416 979 515 979 q 251 866 317 979 q 185 526 185 754 q 251 186 185 298 q 416 74 317 74 m 417 1282 l 322 1168 l 217 1168 l 375 1389 l 459 1389 l 617 1168 l 511 1168 l 417 1282 z "},"Õ":{"ha":833,"x_min":48,"x_max":785,"o":"m 416 -32 q 143 119 237 -32 q 48 526 48 270 q 143 933 48 782 q 416 1084 237 1084 q 690 933 596 1084 q 785 526 785 782 q 690 119 785 270 q 416 -32 596 -32 m 416 74 q 582 186 515 74 q 648 526 648 298 q 582 866 648 754 q 416 979 515 979 q 251 866 317 979 q 185 526 185 754 q 251 186 185 298 q 416 74 317 74 m 281 1168 l 196 1168 q 231 1299 196 1257 q 319 1341 266 1341 q 404 1314 361 1341 l 433 1297 q 511 1262 489 1262 q 552 1341 552 1262 l 638 1341 q 620 1240 634 1272 q 576 1188 606 1208 q 511 1167 547 1167 q 416 1200 467 1167 l 386 1219 l 370 1231 q 326 1246 347 1246 q 296 1231 311 1246 q 281 1168 281 1215 z "},"Ö":{"ha":833,"x_min":48,"x_max":785,"o":"m 416 -32 q 143 119 237 -32 q 48 526 48 270 q 143 933 48 782 q 416 1084 237 1084 q 690 933 596 1084 q 785 526 785 782 q 690 119 785 270 q 416 -32 596 -32 m 416 74 q 582 186 515 74 q 648 526 648 298 q 582 866 648 754 q 416 979 515 979 q 251 866 317 979 q 185 526 185 754 q 251 186 185 298 q 416 74 317 74 m 269 1168 q 210 1192 235 1168 q 185 1252 185 1217 q 210 1312 185 1287 q 269 1336 235 1336 q 328 1312 303 1336 q 353 1252 353 1287 q 329 1192 353 1217 q 269 1168 304 1168 m 564 1168 q 505 1192 530 1168 q 479 1252 479 1217 q 505 1312 479 1287 q 564 1336 530 1336 q 623 1312 598 1336 q 648 1252 648 1287 q 623 1192 648 1217 q 564 1168 598 1168 z "},"×":{"ha":833,"x_min":48,"x_max":785,"o":"m 708 0 l 417 296 l 125 0 l 48 76 l 343 367 l 48 664 l 125 736 l 417 445 l 708 736 l 785 664 l 492 367 l 785 76 l 708 0 z "},"Ø":{"ha":833,"x_min":48,"x_max":785,"o":"m 142 -74 l 48 -74 l 149 113 q 87 242 106 181 q 59 376 69 302 q 48 532 48 450 q 148 943 48 802 q 413 1084 248 1084 q 489 1076 450 1084 q 558 1055 528 1068 q 631 1009 589 1042 l 694 1126 l 785 1126 l 688 941 q 747 815 730 871 q 775 679 765 760 q 785 519 785 597 q 740 223 785 350 q 617 32 694 96 q 410 -32 541 -32 q 312 -19 354 -32 q 208 47 271 -6 l 142 -74 m 218 244 l 574 901 q 493 965 532 951 q 416 979 454 979 q 249 860 312 979 q 185 535 185 742 q 187 436 185 503 q 195 334 189 369 q 218 244 201 300 m 618 810 l 264 153 q 338 91 300 108 q 413 74 376 74 q 589 199 531 74 q 648 527 648 324 q 646 621 648 562 q 638 716 644 679 q 618 810 633 753 z "},"Ù":{"ha":833,"x_min":85,"x_max":748,"o":"m 85 1053 l 222 1053 l 222 361 q 245 175 222 225 q 315 99 268 125 q 420 73 362 73 q 529 101 481 73 q 599 190 576 130 q 622 415 622 250 l 622 1053 l 748 1053 l 748 366 q 704 135 748 218 q 590 10 661 52 q 412 -32 519 -32 q 238 5 313 -32 q 124 115 163 41 q 85 379 85 188 l 85 1053 m 591 1168 l 475 1168 l 243 1389 l 390 1389 l 591 1168 z "},"Ú":{"ha":833,"x_min":85,"x_max":748,"o":"m 85 1053 l 222 1053 l 222 361 q 245 175 222 225 q 315 99 268 125 q 420 73 362 73 q 529 101 481 73 q 599 190 576 130 q 622 415 622 250 l 622 1053 l 748 1053 l 748 366 q 704 135 748 218 q 590 10 661 52 q 412 -32 519 -32 q 238 5 313 -32 q 124 115 163 41 q 85 379 85 188 l 85 1053 m 243 1168 l 444 1389 l 591 1389 l 359 1168 l 243 1168 z "},"Û":{"ha":833,"x_min":85,"x_max":748,"o":"m 85 1053 l 222 1053 l 222 361 q 245 175 222 225 q 315 99 268 125 q 420 73 362 73 q 529 101 481 73 q 599 190 576 130 q 622 415 622 250 l 622 1053 l 748 1053 l 748 366 q 704 135 748 218 q 590 10 661 52 q 412 -32 519 -32 q 238 5 313 -32 q 124 115 163 41 q 85 379 85 188 l 85 1053 m 417 1282 l 322 1168 l 217 1168 l 375 1389 l 459 1389 l 617 1168 l 511 1168 l 417 1282 z "},"Ü":{"ha":833,"x_min":85,"x_max":748,"o":"m 85 1053 l 222 1053 l 222 361 q 245 175 222 225 q 315 99 268 125 q 420 73 362 73 q 529 101 481 73 q 599 190 576 130 q 622 415 622 250 l 622 1053 l 748 1053 l 748 366 q 704 135 748 218 q 590 10 661 52 q 412 -32 519 -32 q 238 5 313 -32 q 124 115 163 41 q 85 379 85 188 l 85 1053 m 269 1168 q 210 1192 235 1168 q 185 1252 185 1217 q 210 1312 185 1287 q 269 1336 235 1336 q 328 1312 303 1336 q 353 1252 353 1287 q 329 1192 353 1217 q 269 1168 304 1168 m 564 1168 q 505 1192 530 1168 q 479 1252 479 1217 q 505 1312 479 1287 q 564 1336 530 1336 q 623 1312 598 1336 q 648 1252 648 1287 q 623 1192 648 1217 q 564 1168 598 1168 z "},"Ý":{"ha":833,"x_min":35,"x_max":798,"o":"m 349 0 l 349 487 l 35 1053 l 191 1053 l 425 635 l 658 1053 l 798 1053 l 486 487 l 486 0 l 349 0 m 243 1168 l 444 1389 l 591 1389 l 359 1168 l 243 1168 z "},"Þ":{"ha":833,"x_min":119,"x_max":769,"o":"m 256 205 l 256 0 l 119 0 l 119 1053 l 256 1053 l 256 873 l 381 873 q 616 837 543 873 q 730 731 690 801 q 769 576 769 661 q 716 387 769 474 q 569 252 663 299 q 312 205 474 205 l 256 205 m 256 311 l 315 311 q 504 343 442 311 q 599 438 566 376 q 632 571 632 500 q 573 715 632 662 q 338 768 513 768 l 256 768 l 256 311 z "},"ß":{"ha":833,"x_min":88,"x_max":772,"o":"m 88 0 l 88 761 q 127 967 88 895 q 236 1077 166 1038 q 406 1116 307 1116 q 593 1055 535 1116 q 651 928 651 994 q 627 845 651 886 q 534 745 604 805 l 488 705 q 447 668 474 694 q 420 614 420 642 q 428 582 420 595 q 476 539 436 568 l 519 507 l 605 448 q 725 342 677 399 q 772 206 772 284 q 696 43 772 107 q 500 -21 619 -21 q 438 -19 474 -21 q 382 -14 402 -16 q 325 0 362 -11 l 325 125 q 394 101 366 108 q 451 89 422 94 q 498 84 479 84 q 570 96 532 84 q 626 136 607 109 q 646 192 646 163 q 613 275 646 234 q 503 367 580 315 l 421 421 q 323 504 359 463 q 288 594 288 544 q 308 667 288 631 q 397 766 328 703 l 437 804 q 492 863 469 833 q 514 924 514 892 q 472 989 514 968 q 389 1010 430 1010 q 303 987 342 1010 q 239 918 263 964 q 214 761 214 871 l 214 0 l 88 0 z "},"à":{"ha":833,"x_min":69,"x_max":758,"o":"m 603 170 q 464 27 545 75 q 315 -21 383 -21 q 145 61 220 -21 q 69 310 69 143 q 119 545 69 441 q 254 708 170 648 q 462 768 338 768 q 570 761 498 768 q 603 758 581 760 l 730 758 l 730 222 q 758 0 730 85 l 627 0 q 603 170 612 62 m 603 320 l 603 645 q 478 663 536 663 q 284 572 361 663 q 206 327 206 482 q 249 157 206 214 q 345 100 291 100 q 475 159 404 100 q 603 320 547 219 m 609 873 l 494 873 l 262 1095 l 408 1095 l 609 873 z "},"á":{"ha":833,"x_min":69,"x_max":758,"o":"m 603 170 q 464 27 545 75 q 315 -21 383 -21 q 145 61 220 -21 q 69 310 69 143 q 119 545 69 441 q 254 708 170 648 q 462 768 338 768 q 570 761 498 768 q 603 758 581 760 l 730 758 l 730 222 q 758 0 730 85 l 627 0 q 603 170 612 62 m 603 320 l 603 645 q 478 663 536 663 q 284 572 361 663 q 206 327 206 482 q 249 157 206 214 q 345 100 291 100 q 475 159 404 100 q 603 320 547 219 m 325 873 l 526 1095 l 672 1095 l 440 873 l 325 873 z "},"â":{"ha":833,"x_min":69,"x_max":758,"o":"m 603 170 q 464 27 545 75 q 315 -21 383 -21 q 145 61 220 -21 q 69 310 69 143 q 119 545 69 441 q 254 708 170 648 q 462 768 338 768 q 570 761 498 768 q 603 758 581 760 l 730 758 l 730 222 q 758 0 730 85 l 627 0 q 603 170 612 62 m 603 320 l 603 645 q 478 663 536 663 q 284 572 361 663 q 206 327 206 482 q 249 157 206 214 q 345 100 291 100 q 475 159 404 100 q 603 320 547 219 m 477 987 l 382 873 l 277 873 l 435 1095 l 519 1095 l 677 873 l 572 873 l 477 987 z "},"ã":{"ha":833,"x_min":69,"x_max":758,"o":"m 603 170 q 464 27 545 75 q 315 -21 383 -21 q 145 61 220 -21 q 69 310 69 143 q 119 545 69 441 q 254 708 170 648 q 462 768 338 768 q 570 761 498 768 q 603 758 581 760 l 730 758 l 730 222 q 758 0 730 85 l 627 0 q 603 170 612 62 m 603 320 l 603 645 q 478 663 536 663 q 284 572 361 663 q 206 327 206 482 q 249 157 206 214 q 345 100 291 100 q 475 159 404 100 q 603 320 547 219 m 310 873 l 225 873 q 260 1005 225 963 q 348 1047 295 1047 q 433 1020 390 1047 l 462 1003 q 541 968 518 968 q 581 1047 581 968 l 667 1047 q 649 946 663 978 q 605 893 635 914 q 541 873 576 873 q 445 906 496 873 l 415 925 l 399 937 q 355 952 376 952 q 325 937 340 952 q 310 873 310 921 z "},"ä":{"ha":833,"x_min":69,"x_max":758,"o":"m 603 170 q 464 27 545 75 q 315 -21 383 -21 q 145 61 220 -21 q 69 310 69 143 q 119 545 69 441 q 254 708 170 648 q 462 768 338 768 q 570 761 498 768 q 603 758 581 760 l 730 758 l 730 222 q 758 0 730 85 l 627 0 q 603 170 612 62 m 603 320 l 603 645 q 478 663 536 663 q 284 572 361 663 q 206 327 206 482 q 249 157 206 214 q 345 100 291 100 q 475 159 404 100 q 603 320 547 219 m 309 873 q 249 898 274 873 q 224 958 224 922 q 250 1017 224 993 q 309 1042 275 1042 q 368 1017 342 1042 q 393 958 393 993 q 368 898 393 922 q 309 873 343 873 m 604 873 q 544 898 569 873 q 519 958 519 922 q 544 1017 519 993 q 604 1042 570 1042 q 663 1017 637 1042 q 688 958 688 993 q 663 898 688 922 q 604 873 637 873 z "},"å":{"ha":833,"x_min":69,"x_max":758,"o":"m 603 170 q 464 27 545 75 q 315 -21 383 -21 q 145 61 220 -21 q 69 310 69 143 q 119 545 69 441 q 254 708 170 648 q 462 768 338 768 q 570 761 498 768 q 603 758 581 760 l 730 758 l 730 222 q 758 0 730 85 l 627 0 q 603 170 612 62 m 603 320 l 603 645 q 478 663 536 663 q 284 572 361 663 q 206 327 206 482 q 249 157 206 214 q 345 100 291 100 q 475 159 404 100 q 603 320 547 219 m 446 937 q 490 955 472 937 q 509 1000 509 974 q 490 1044 509 1025 q 446 1063 472 1063 q 401 1044 420 1063 q 382 1000 382 1025 q 401 955 382 974 q 446 937 420 937 m 446 873 q 356 911 393 873 q 319 1000 319 949 q 356 1088 319 1050 q 446 1126 393 1126 q 535 1088 498 1126 q 572 1000 572 1050 q 535 911 572 949 q 446 873 498 873 z "},"æ":{"ha":833,"x_min":43,"x_max":791,"o":"m 401 153 q 320 22 366 65 q 231 -21 274 -21 q 99 77 155 -21 q 43 328 43 174 q 81 565 43 463 q 181 722 119 666 q 316 779 244 779 q 367 773 340 779 q 415 761 393 768 q 469 730 436 753 q 545 773 518 767 q 593 779 572 779 q 735 702 680 779 q 791 397 791 625 l 791 363 l 517 363 l 517 307 q 532 165 517 206 q 576 104 547 124 q 640 84 604 84 q 791 138 708 84 l 791 22 q 618 -21 695 -21 q 526 -4 568 -21 q 453 48 484 14 q 401 153 422 83 m 391 319 l 391 650 q 359 668 374 662 q 328 673 343 673 q 209 562 249 673 q 170 314 170 450 q 192 176 170 234 q 249 121 214 119 q 391 319 320 125 m 517 452 l 664 452 l 664 474 q 646 633 664 593 q 592 673 627 673 q 536 624 555 673 q 517 474 517 574 l 517 452 z "},"ç":{"ha":833,"x_min":111,"x_max":743,"o":"m 476 -89 q 572 -133 549 -103 q 594 -196 594 -163 q 564 -264 594 -233 q 471 -295 534 -295 q 363 -276 414 -295 l 363 -216 q 443 -237 402 -237 q 486 -222 467 -237 q 505 -193 505 -208 q 379 -134 505 -146 l 442 -19 q 258 57 330 0 q 148 190 185 114 q 111 371 111 267 q 226 667 111 555 q 494 779 340 779 q 743 734 612 779 l 743 613 q 506 673 610 673 q 376 639 437 673 q 281 532 315 605 q 248 383 248 460 q 312 188 248 281 q 513 95 376 95 q 595 101 555 95 q 743 143 635 106 l 743 22 q 513 -23 637 -16 l 476 -89 z "},"è":{"ha":833,"x_min":88,"x_max":746,"o":"m 735 50 q 449 -22 584 -22 q 266 29 347 -22 q 137 175 185 80 q 88 377 88 269 q 134 576 88 481 q 263 725 180 672 q 448 779 346 779 q 664 682 583 779 q 746 385 746 586 l 746 358 l 224 358 q 257 214 224 279 q 343 117 290 149 q 465 84 397 84 q 735 165 587 84 l 735 50 m 231 452 l 609 452 l 609 471 q 564 618 609 564 q 442 673 518 673 q 310 617 366 673 q 231 452 254 562 m 617 873 l 502 873 l 270 1095 l 416 1095 l 617 873 z "},"é":{"ha":833,"x_min":88,"x_max":746,"o":"m 735 50 q 449 -22 584 -22 q 266 29 347 -22 q 137 175 185 80 q 88 377 88 269 q 134 576 88 481 q 263 725 180 672 q 448 779 346 779 q 664 682 583 779 q 746 385 746 586 l 746 358 l 224 358 q 257 214 224 279 q 343 117 290 149 q 465 84 397 84 q 735 165 587 84 l 735 50 m 231 452 l 609 452 l 609 471 q 564 618 609 564 q 442 673 518 673 q 310 617 366 673 q 231 452 254 562 m 301 873 l 502 1095 l 648 1095 l 416 873 l 301 873 z "},"ê":{"ha":833,"x_min":88,"x_max":746,"o":"m 735 50 q 449 -22 584 -22 q 266 29 347 -22 q 137 175 185 80 q 88 377 88 269 q 134 576 88 481 q 263 725 180 672 q 448 779 346 779 q 664 682 583 779 q 746 385 746 586 l 746 358 l 224 358 q 257 214 224 279 q 343 117 290 149 q 465 84 397 84 q 735 165 587 84 l 735 50 m 231 452 l 609 452 l 609 471 q 564 618 609 564 q 442 673 518 673 q 310 617 366 673 q 231 452 254 562 m 444 987 l 349 873 l 243 873 l 401 1095 l 486 1095 l 644 873 l 538 873 l 444 987 z "},"ë":{"ha":833,"x_min":88,"x_max":746,"o":"m 735 50 q 449 -22 584 -22 q 266 29 347 -22 q 137 175 185 80 q 88 377 88 269 q 134 576 88 481 q 263 725 180 672 q 448 779 346 779 q 664 682 583 779 q 746 385 746 586 l 746 358 l 224 358 q 257 214 224 279 q 343 117 290 149 q 465 84 397 84 q 735 165 587 84 l 735 50 m 231 452 l 609 452 l 609 471 q 564 618 609 564 q 442 673 518 673 q 310 617 366 673 q 231 452 254 562 m 306 873 q 247 898 271 873 q 222 958 222 922 q 247 1017 222 993 q 306 1042 272 1042 q 365 1017 340 1042 q 390 958 390 993 q 365 898 390 922 q 306 873 340 873 m 601 873 q 541 898 566 873 q 516 958 516 922 q 542 1017 516 993 q 601 1042 567 1042 q 660 1017 635 1042 q 685 958 685 993 q 660 898 685 922 q 601 873 635 873 z "},"ì":{"ha":833,"x_min":106,"x_max":654,"o":"m 317 0 l 317 652 l 106 652 l 106 758 l 443 758 l 443 105 l 654 105 l 654 0 l 317 0 m 559 873 l 444 873 l 212 1095 l 358 1095 l 559 873 z "},"í":{"ha":833,"x_min":106,"x_max":654,"o":"m 317 0 l 317 652 l 106 652 l 106 758 l 443 758 l 443 105 l 654 105 l 654 0 l 317 0 m 212 873 l 412 1095 l 559 1095 l 327 873 l 212 873 z "},"î":{"ha":833,"x_min":106,"x_max":654,"o":"m 317 0 l 317 652 l 106 652 l 106 758 l 443 758 l 443 105 l 654 105 l 654 0 l 317 0 m 386 987 l 291 873 l 186 873 l 344 1095 l 428 1095 l 586 873 l 480 873 l 386 987 z "},"ï":{"ha":833,"x_min":106,"x_max":654,"o":"m 317 0 l 317 652 l 106 652 l 106 758 l 443 758 l 443 105 l 654 105 l 654 0 l 317 0 m 238 873 q 179 898 203 873 q 154 958 154 922 q 179 1017 154 993 q 238 1042 204 1042 q 297 1017 272 1042 q 322 958 322 993 q 297 898 322 922 q 238 873 273 873 m 533 873 q 473 898 498 873 q 448 958 448 922 q 474 1017 448 993 q 533 1042 499 1042 q 592 1017 567 1042 q 617 958 617 993 q 592 898 617 922 q 533 873 567 873 z "},"ð":{"ha":833,"x_min":59,"x_max":774,"o":"m 601 672 q 535 794 575 738 q 414 911 496 850 l 261 773 l 191 852 l 314 962 q 134 989 227 989 l 117 989 l 117 1095 l 140 1095 q 283 1087 220 1095 q 414 1050 345 1080 l 559 1183 l 629 1104 l 509 996 q 664 828 610 913 q 746 632 718 742 q 774 416 774 523 q 681 98 774 216 q 415 -21 587 -21 q 157 86 254 -21 q 59 363 59 194 q 104 560 59 477 q 231 690 149 644 q 405 736 314 736 q 486 727 443 736 q 601 672 528 718 m 417 84 q 580 161 517 84 q 643 358 643 238 q 580 554 643 477 q 417 631 517 631 q 254 554 317 631 q 191 358 191 477 q 254 161 191 238 q 417 84 317 84 z "},"ñ":{"ha":833,"x_min":106,"x_max":738,"o":"m 106 0 l 106 758 l 233 758 l 233 592 q 363 729 287 680 q 517 779 440 779 q 639 743 584 779 q 716 650 694 707 q 738 423 738 592 l 738 0 l 612 0 l 612 439 q 601 583 612 548 q 563 640 591 618 q 501 663 534 663 q 358 600 435 663 q 233 441 282 536 l 233 0 l 106 0 m 292 873 l 207 873 q 242 1005 207 963 q 330 1047 277 1047 q 415 1020 372 1047 l 444 1003 q 522 968 500 968 q 563 1047 563 968 l 649 1047 q 631 946 645 978 q 587 893 616 914 q 522 873 557 873 q 427 906 478 873 l 397 925 l 380 937 q 336 952 357 952 q 307 937 321 952 q 292 873 292 921 z "},"ò":{"ha":833,"x_min":59,"x_max":774,"o":"m 417 -21 q 157 93 254 -21 q 59 379 59 206 q 157 665 59 552 q 417 779 254 779 q 677 665 579 779 q 774 379 774 552 q 677 93 774 206 q 417 -21 579 -21 m 417 84 q 578 163 518 84 q 637 379 637 241 q 578 595 637 516 q 417 673 518 673 q 256 595 315 673 q 196 379 196 516 q 256 163 196 241 q 417 84 315 84 m 591 873 l 475 873 l 243 1095 l 390 1095 l 591 873 z "},"ó":{"ha":833,"x_min":59,"x_max":774,"o":"m 417 -21 q 157 93 254 -21 q 59 379 59 206 q 157 665 59 552 q 417 779 254 779 q 677 665 579 779 q 774 379 774 552 q 677 93 774 206 q 417 -21 579 -21 m 417 84 q 578 163 518 84 q 637 379 637 241 q 578 595 637 516 q 417 673 518 673 q 256 595 315 673 q 196 379 196 516 q 256 163 196 241 q 417 84 315 84 m 243 873 l 444 1095 l 591 1095 l 359 873 l 243 873 z "},"ô":{"ha":833,"x_min":59,"x_max":774,"o":"m 417 -21 q 157 93 254 -21 q 59 379 59 206 q 157 665 59 552 q 417 779 254 779 q 677 665 579 779 q 774 379 774 552 q 677 93 774 206 q 417 -21 579 -21 m 417 84 q 578 163 518 84 q 637 379 637 241 q 578 595 637 516 q 417 673 518 673 q 256 595 315 673 q 196 379 196 516 q 256 163 196 241 q 417 84 315 84 m 417 987 l 322 873 l 217 873 l 375 1095 l 459 1095 l 617 873 l 511 873 l 417 987 z "},"õ":{"ha":833,"x_min":59,"x_max":774,"o":"m 417 -21 q 157 93 254 -21 q 59 379 59 206 q 157 665 59 552 q 417 779 254 779 q 677 665 579 779 q 774 379 774 552 q 677 93 774 206 q 417 -21 579 -21 m 417 84 q 578 163 518 84 q 637 379 637 241 q 578 595 637 516 q 417 673 518 673 q 256 595 315 673 q 196 379 196 516 q 256 163 196 241 q 417 84 315 84 m 281 873 l 196 873 q 231 1005 196 963 q 319 1047 266 1047 q 404 1020 361 1047 l 433 1003 q 511 968 489 968 q 552 1047 552 968 l 638 1047 q 620 946 634 978 q 576 893 606 914 q 511 873 547 873 q 416 906 467 873 l 386 925 l 370 937 q 326 952 347 952 q 296 937 311 952 q 281 873 281 921 z "},"ö":{"ha":833,"x_min":59,"x_max":774,"o":"m 417 -21 q 157 93 254 -21 q 59 379 59 206 q 157 665 59 552 q 417 779 254 779 q 677 665 579 779 q 774 379 774 552 q 677 93 774 206 q 417 -21 579 -21 m 417 84 q 578 163 518 84 q 637 379 637 241 q 578 595 637 516 q 417 673 518 673 q 256 595 315 673 q 196 379 196 516 q 256 163 196 241 q 417 84 315 84 m 269 873 q 210 898 235 873 q 185 958 185 922 q 210 1017 185 993 q 269 1042 235 1042 q 328 1017 303 1042 q 353 958 353 993 q 329 898 353 922 q 269 873 304 873 m 564 873 q 505 898 530 873 q 479 958 479 922 q 505 1017 479 993 q 564 1042 530 1042 q 623 1017 598 1042 q 648 958 648 993 q 623 898 648 922 q 564 873 598 873 z "},"÷":{"ha":833,"x_min":48,"x_max":785,"o":"m 416 526 q 349 555 378 526 q 319 623 319 585 q 349 692 319 663 q 416 721 378 721 q 485 692 455 721 q 514 623 514 663 q 485 555 514 585 q 416 526 455 526 m 785 421 l 785 315 l 48 315 l 48 421 l 785 421 m 416 16 q 349 45 378 16 q 319 113 319 74 q 349 181 319 153 q 416 210 378 210 q 485 181 455 210 q 514 113 514 153 q 485 45 514 74 q 416 16 455 16 z "},"ø":{"ha":833,"x_min":59,"x_max":774,"o":"m 160 -63 l 59 -63 l 161 87 q 59 382 59 215 q 151 663 59 547 q 416 779 242 779 q 484 774 450 779 q 544 760 517 769 q 609 729 571 751 l 673 821 l 774 821 l 673 675 q 774 379 774 544 q 685 99 774 218 q 416 -21 595 -21 q 333 -14 374 -21 q 225 30 292 -7 l 160 -63 m 231 190 l 546 640 q 417 673 486 673 q 253 595 309 673 q 196 382 196 517 q 231 190 196 281 m 603 573 l 288 120 q 410 84 353 84 q 586 167 534 84 q 637 376 637 250 q 603 573 637 484 z "},"ù":{"ha":833,"x_min":97,"x_max":728,"o":"m 728 758 l 728 0 l 602 0 l 602 166 q 467 26 541 73 q 317 -21 392 -21 q 196 15 251 -21 q 119 108 140 50 q 97 334 97 166 l 97 758 l 223 758 l 223 319 q 234 175 223 210 q 272 117 244 140 q 333 95 300 95 q 476 158 399 95 q 602 316 552 220 l 602 758 l 728 758 m 591 873 l 476 873 l 244 1095 l 391 1095 l 591 873 z "},"ú":{"ha":833,"x_min":97,"x_max":728,"o":"m 728 758 l 728 0 l 602 0 l 602 166 q 467 26 541 73 q 317 -21 392 -21 q 196 15 251 -21 q 119 108 140 50 q 97 334 97 166 l 97 758 l 223 758 l 223 319 q 234 175 223 210 q 272 117 244 140 q 333 95 300 95 q 476 158 399 95 q 602 316 552 220 l 602 758 l 728 758 m 276 873 l 477 1095 l 623 1095 l 391 873 l 276 873 z "},"û":{"ha":833,"x_min":97,"x_max":728,"o":"m 728 758 l 728 0 l 602 0 l 602 166 q 467 26 541 73 q 317 -21 392 -21 q 196 15 251 -21 q 119 108 140 50 q 97 334 97 166 l 97 758 l 223 758 l 223 319 q 234 175 223 210 q 272 117 244 140 q 333 95 300 95 q 476 158 399 95 q 602 316 552 220 l 602 758 l 728 758 m 418 987 l 323 873 l 218 873 l 376 1095 l 460 1095 l 618 873 l 513 873 l 418 987 z "},"ü":{"ha":833,"x_min":97,"x_max":728,"o":"m 728 758 l 728 0 l 602 0 l 602 166 q 467 26 541 73 q 317 -21 392 -21 q 196 15 251 -21 q 119 108 140 50 q 97 334 97 166 l 97 758 l 223 758 l 223 319 q 234 175 223 210 q 272 117 244 140 q 333 95 300 95 q 476 158 399 95 q 602 316 552 220 l 602 758 l 728 758 m 271 873 q 211 898 236 873 q 186 958 186 922 q 212 1017 186 993 q 271 1042 237 1042 q 330 1017 304 1042 q 355 958 355 993 q 330 898 355 922 q 271 873 305 873 m 566 873 q 506 898 531 873 q 481 958 481 922 q 506 1017 481 993 q 566 1042 532 1042 q 625 1017 600 1042 q 650 958 650 993 q 625 898 650 922 q 566 873 600 873 z "},"ý":{"ha":833,"x_min":33,"x_max":823,"o":"m 395 31 l 45 758 l 184 758 l 463 189 l 696 758 l 823 758 l 530 54 q 353 -243 437 -170 q 136 -316 269 -316 q 33 -306 79 -316 l 33 -195 q 133 -211 85 -211 q 241 -187 194 -211 q 328 -103 289 -163 q 384 1 368 -43 l 395 31 m 307 873 l 508 1095 l 654 1095 l 422 873 l 307 873 z "},"þ":{"ha":833,"x_min":93,"x_max":753,"o":"m 219 587 q 358 730 277 682 q 507 779 439 779 q 677 696 602 779 q 753 448 753 614 q 641 117 753 251 q 522 22 588 54 q 360 -11 456 -11 q 252 -3 325 -11 q 219 0 241 -2 l 219 -294 l 93 -294 l 93 1053 l 219 1053 l 219 587 m 219 437 l 219 113 q 345 95 288 95 q 538 185 460 95 q 616 431 616 275 q 574 601 616 544 q 477 658 531 658 q 347 598 418 658 q 219 437 276 538 z "},"ÿ":{"ha":833,"x_min":33,"x_max":823,"o":"m 395 31 l 45 758 l 184 758 l 463 189 l 696 758 l 823 758 l 530 54 q 353 -243 437 -170 q 136 -316 269 -316 q 33 -306 79 -316 l 33 -195 q 133 -211 85 -211 q 241 -187 194 -211 q 328 -103 289 -163 q 384 1 368 -43 l 395 31 m 302 873 q 242 898 267 873 q 218 958 218 922 q 243 1017 218 993 q 302 1042 268 1042 q 361 1017 336 1042 q 386 958 386 993 q 361 898 386 922 q 302 873 336 873 m 597 873 q 537 898 562 873 q 512 958 512 922 q 537 1017 512 993 q 597 1042 563 1042 q 656 1017 631 1042 q 681 958 681 993 q 656 898 681 922 q 597 873 631 873 z "},"Ā":{"ha":833,"x_min":22,"x_max":812,"o":"m 154 0 l 22 0 l 347 1053 l 486 1053 l 812 0 l 667 0 l 595 231 l 225 231 l 154 0 m 258 336 l 565 336 l 438 736 l 408 842 l 382 736 l 258 336 m 228 1122 l 228 1206 l 607 1206 l 607 1122 l 228 1122 z "},"ā":{"ha":833,"x_min":69,"x_max":758,"o":"m 603 170 q 464 27 545 75 q 315 -21 383 -21 q 145 61 220 -21 q 69 310 69 143 q 119 545 69 441 q 254 708 170 648 q 462 768 338 768 q 570 761 498 768 q 603 758 581 760 l 730 758 l 730 222 q 758 0 730 85 l 627 0 q 603 170 612 62 m 603 320 l 603 645 q 478 663 536 663 q 284 572 361 663 q 206 327 206 482 q 249 157 206 214 q 345 100 291 100 q 475 159 404 100 q 603 320 547 219 m 227 843 l 227 927 l 606 927 l 606 843 l 227 843 z "},"Ă":{"ha":833,"x_min":22,"x_max":812,"o":"m 154 0 l 22 0 l 347 1053 l 486 1053 l 812 0 l 667 0 l 595 231 l 225 231 l 154 0 m 258 336 l 565 336 l 438 736 l 408 842 l 382 736 l 258 336 m 304 1343 q 343 1251 310 1291 q 418 1211 376 1211 q 492 1252 459 1211 q 530 1343 524 1292 l 617 1343 q 579 1221 609 1267 q 506 1148 549 1175 q 418 1122 463 1122 q 329 1148 372 1122 q 256 1221 286 1175 q 217 1343 226 1267 l 304 1343 z "},"ă":{"ha":833,"x_min":69,"x_max":758,"o":"m 603 170 q 464 27 545 75 q 315 -21 383 -21 q 145 61 220 -21 q 69 310 69 143 q 119 545 69 441 q 254 708 170 648 q 462 768 338 768 q 570 761 498 768 q 603 758 581 760 l 730 758 l 730 222 q 758 0 730 85 l 627 0 q 603 170 612 62 m 603 320 l 603 645 q 478 663 536 663 q 284 572 361 663 q 206 327 206 482 q 249 157 206 214 q 345 100 291 100 q 475 159 404 100 q 603 320 547 219 m 304 1064 q 343 972 310 1012 q 418 932 376 932 q 492 973 459 932 q 530 1064 524 1013 l 617 1064 q 579 942 609 989 q 506 869 549 896 q 418 843 463 843 q 329 869 372 843 q 256 942 286 896 q 217 1064 226 989 l 304 1064 z "},"Ą":{"ha":833,"x_min":22,"x_max":812,"o":"m 154 0 l 22 0 l 347 1053 l 486 1053 l 812 0 l 667 0 l 595 231 l 225 231 l 154 0 m 258 336 l 565 336 l 438 736 l 408 842 l 382 736 l 258 336 m 812 7 q 713 -73 751 -22 q 675 -156 675 -123 q 694 -196 675 -177 q 758 -215 713 -215 q 812 -202 781 -215 l 812 -268 q 726 -288 767 -288 q 622 -254 663 -288 q 581 -168 581 -220 q 681 7 581 -85 l 812 7 z "},"ą":{"ha":833,"x_min":69,"x_max":758,"o":"m 603 170 q 464 27 545 75 q 315 -21 383 -21 q 145 61 220 -21 q 69 310 69 143 q 119 545 69 441 q 254 708 170 648 q 462 768 338 768 q 570 761 498 768 q 603 758 581 760 l 730 758 l 730 222 q 758 0 730 85 l 627 0 q 603 170 612 62 m 603 320 l 603 645 q 478 663 536 663 q 284 572 361 663 q 206 327 206 482 q 249 157 206 214 q 345 100 291 100 q 475 159 404 100 q 603 320 547 219 m 758 6 q 660 -73 697 -22 q 622 -157 622 -124 q 641 -197 622 -178 q 704 -216 660 -216 q 758 -203 728 -216 l 758 -269 q 672 -288 713 -288 q 568 -254 609 -288 q 527 -168 527 -220 q 627 6 527 -86 l 758 6 z "},"Ć":{"ha":833,"x_min":80,"x_max":738,"o":"m 738 12 q 526 -32 620 -32 q 299 34 403 -32 q 138 231 195 100 q 80 526 80 361 q 137 820 80 690 q 298 1017 194 950 q 526 1084 401 1084 q 738 1040 620 1084 l 738 916 q 521 979 629 979 q 372 923 439 979 q 263 760 304 867 q 222 526 222 652 q 264 290 222 398 q 374 127 307 181 q 521 73 440 73 q 738 136 628 73 l 738 12 m 367 1168 l 568 1389 l 714 1389 l 482 1168 l 367 1168 z "},"ć":{"ha":833,"x_min":111,"x_max":743,"o":"m 743 22 q 501 -21 616 -21 q 299 32 387 -21 q 161 174 210 84 q 111 378 111 264 q 223 665 111 551 q 494 779 336 779 q 743 734 612 779 l 743 613 q 506 673 610 673 q 376 639 437 673 q 281 532 315 605 q 248 383 248 460 q 312 188 248 281 q 513 95 376 95 q 595 101 555 95 q 743 143 635 106 l 743 22 m 335 873 l 536 1095 l 682 1095 l 450 873 l 335 873 z "},"Ĉ":{"ha":833,"x_min":80,"x_max":738,"o":"m 738 12 q 526 -32 620 -32 q 299 34 403 -32 q 138 231 195 100 q 80 526 80 361 q 137 820 80 690 q 298 1017 194 950 q 526 1084 401 1084 q 738 1040 620 1084 l 738 916 q 521 979 629 979 q 372 923 439 979 q 263 760 304 867 q 222 526 222 652 q 264 290 222 398 q 374 127 307 181 q 521 73 440 73 q 738 136 628 73 l 738 12 m 484 1267 l 389 1154 l 283 1154 l 441 1375 l 526 1375 l 684 1154 l 578 1154 l 484 1267 z "},"ĉ":{"ha":833,"x_min":111,"x_max":743,"o":"m 743 22 q 501 -21 616 -21 q 299 32 387 -21 q 161 174 210 84 q 111 378 111 264 q 223 665 111 551 q 494 779 336 779 q 743 734 612 779 l 743 613 q 506 673 610 673 q 376 639 437 673 q 281 532 315 605 q 248 383 248 460 q 312 188 248 281 q 513 95 376 95 q 595 101 555 95 q 743 143 635 106 l 743 22 m 460 967 l 366 853 l 260 853 l 418 1074 l 503 1074 l 661 853 l 555 853 l 460 967 z "},"Ċ":{"ha":833,"x_min":80,"x_max":738,"o":"m 738 12 q 526 -32 620 -32 q 299 34 403 -32 q 138 231 195 100 q 80 526 80 361 q 137 820 80 690 q 298 1017 194 950 q 526 1084 401 1084 q 738 1040 620 1084 l 738 916 q 521 979 629 979 q 372 923 439 979 q 263 760 304 867 q 222 526 222 652 q 264 290 222 398 q 374 127 307 181 q 521 73 440 73 q 738 136 628 73 l 738 12 m 477 1206 q 418 1231 443 1206 q 394 1289 394 1255 q 419 1348 394 1324 q 477 1373 444 1373 q 535 1348 511 1373 q 560 1289 560 1324 q 536 1231 560 1255 q 477 1206 511 1206 z "},"ċ":{"ha":833,"x_min":111,"x_max":743,"o":"m 743 22 q 501 -21 616 -21 q 299 32 387 -21 q 161 174 210 84 q 111 378 111 264 q 223 665 111 551 q 494 779 336 779 q 743 734 612 779 l 743 613 q 506 673 610 673 q 376 639 437 673 q 281 532 315 605 q 248 383 248 460 q 312 188 248 281 q 513 95 376 95 q 595 101 555 95 q 743 143 635 106 l 743 22 m 461 906 q 402 930 427 906 q 378 989 378 954 q 402 1048 378 1023 q 461 1072 427 1072 q 519 1048 494 1072 q 544 989 544 1023 q 519 930 544 954 q 461 906 495 906 z "},"Č":{"ha":833,"x_min":80,"x_max":738,"o":"m 738 12 q 526 -32 620 -32 q 299 34 403 -32 q 138 231 195 100 q 80 526 80 361 q 137 820 80 690 q 298 1017 194 950 q 526 1084 401 1084 q 738 1040 620 1084 l 738 916 q 521 979 629 979 q 372 923 439 979 q 263 760 304 867 q 222 526 222 652 q 264 290 222 398 q 374 127 307 181 q 521 73 440 73 q 738 136 628 73 l 738 12 m 509 1275 l 603 1389 l 709 1389 l 551 1168 l 467 1168 l 309 1389 l 414 1389 l 509 1275 z "},"č":{"ha":833,"x_min":111,"x_max":743,"o":"m 743 22 q 501 -21 616 -21 q 299 32 387 -21 q 161 174 210 84 q 111 378 111 264 q 223 665 111 551 q 494 779 336 779 q 743 734 612 779 l 743 613 q 506 673 610 673 q 376 639 437 673 q 281 532 315 605 q 248 383 248 460 q 312 188 248 281 q 513 95 376 95 q 595 101 555 95 q 743 143 635 106 l 743 22 m 509 981 l 603 1095 l 709 1095 l 551 873 l 467 873 l 309 1095 l 414 1095 l 509 981 z "},"Ď":{"ha":833,"x_min":105,"x_max":779,"o":"m 105 0 l 105 1053 l 355 1053 q 611 992 527 1053 q 736 811 694 932 q 779 524 779 690 q 734 247 779 366 q 608 64 690 128 q 355 0 527 0 l 105 0 m 242 116 l 334 116 q 532 165 473 116 q 617 303 591 215 q 642 545 642 391 q 612 778 642 696 q 527 903 583 859 q 345 947 471 947 l 242 947 l 242 116 m 413 1229 l 507 1343 l 613 1343 l 455 1122 l 371 1122 l 213 1343 l 318 1343 l 413 1229 z "},"ď":{"ha":833,"x_min":77,"x_max":738,"o":"m 611 170 q 472 27 553 75 q 323 -21 391 -21 q 153 61 229 -21 q 77 310 77 143 q 127 545 77 441 q 262 708 178 648 q 470 768 346 768 q 578 761 506 768 q 611 758 589 760 l 611 1095 l 738 1095 l 738 0 l 611 0 l 611 170 m 611 320 l 611 645 q 486 663 544 663 q 292 572 370 663 q 214 327 214 482 q 257 157 214 214 q 353 100 299 100 q 484 159 412 100 q 611 320 555 219 m 351 1116 l 446 1230 l 551 1230 l 393 1009 l 309 1009 l 151 1230 l 256 1230 l 351 1116 z "},"Đ":{"ha":833,"x_min":1,"x_max":780,"o":"m 106 0 l 106 484 l 1 484 l 1 589 l 106 589 l 106 1053 l 356 1053 q 615 1000 541 1053 q 734 819 689 948 q 780 524 780 690 q 734 243 780 366 q 615 60 689 119 q 385 0 541 0 l 106 0 m 243 116 l 335 116 q 535 159 484 116 q 615 296 587 202 q 644 545 644 391 q 615 782 644 696 q 538 907 587 868 q 346 947 489 947 l 243 947 l 243 589 l 412 589 l 412 484 l 243 484 l 243 116 z "},"đ":{"ha":833,"x_min":80,"x_max":867,"o":"m 614 170 q 475 27 556 75 q 326 -21 394 -21 q 156 61 231 -21 q 80 310 80 143 q 130 545 80 441 q 264 708 180 648 q 473 768 349 768 q 581 761 509 768 q 614 758 592 760 l 614 852 l 488 852 l 488 947 l 614 947 l 614 1095 l 741 1095 l 741 947 l 867 947 l 867 852 l 741 852 l 741 0 l 614 0 l 614 170 m 614 320 l 614 645 q 489 663 547 663 q 295 572 372 663 q 217 327 217 482 q 259 157 217 214 q 356 100 302 100 q 486 159 415 100 q 614 320 557 219 z "},"Ē":{"ha":833,"x_min":138,"x_max":706,"o":"m 706 116 l 706 0 l 138 0 l 138 1053 l 695 1053 l 695 947 l 275 947 l 275 589 l 653 589 l 653 484 l 275 484 l 275 116 l 706 116 m 233 1190 l 233 1274 l 612 1274 l 612 1190 l 233 1190 z "},"ē":{"ha":833,"x_min":88,"x_max":746,"o":"m 735 50 q 449 -22 584 -22 q 266 29 347 -22 q 137 175 185 80 q 88 377 88 269 q 134 576 88 481 q 263 725 180 672 q 448 779 346 779 q 664 682 583 779 q 746 385 746 586 l 746 358 l 224 358 q 257 214 224 279 q 343 117 290 149 q 465 84 397 84 q 735 165 587 84 l 735 50 m 231 452 l 609 452 l 609 471 q 564 618 609 564 q 442 673 518 673 q 310 617 366 673 q 231 452 254 562 m 255 853 l 255 937 l 634 937 l 634 853 l 255 853 z "},"Ĕ":{"ha":833,"x_min":138,"x_max":706,"o":"m 706 116 l 706 0 l 138 0 l 138 1053 l 695 1053 l 695 947 l 275 947 l 275 589 l 653 589 l 653 484 l 275 484 l 275 116 l 706 116 m 309 1343 q 348 1251 315 1291 q 422 1211 381 1211 q 496 1252 464 1211 q 535 1343 529 1292 l 622 1343 q 584 1221 614 1267 q 511 1148 553 1175 q 422 1122 468 1122 q 334 1148 377 1122 q 261 1221 291 1175 q 222 1343 231 1267 l 309 1343 z "},"ĕ":{"ha":833,"x_min":88,"x_max":746,"o":"m 735 50 q 449 -22 584 -22 q 266 29 347 -22 q 137 175 185 80 q 88 377 88 269 q 134 576 88 481 q 263 725 180 672 q 448 779 346 779 q 664 682 583 779 q 746 385 746 586 l 746 358 l 224 358 q 257 214 224 279 q 343 117 290 149 q 465 84 397 84 q 735 165 587 84 l 735 50 m 231 452 l 609 452 l 609 471 q 564 618 609 564 q 442 673 518 673 q 310 617 366 673 q 231 452 254 562 m 338 1074 q 377 982 344 1022 q 452 943 410 943 q 526 983 493 943 q 564 1074 558 1023 l 651 1074 q 613 952 643 999 q 540 880 583 906 q 452 853 497 853 q 363 880 406 853 q 290 952 320 906 q 251 1074 260 999 l 338 1074 z "},"Ė":{"ha":833,"x_min":138,"x_max":706,"o":"m 706 116 l 706 0 l 138 0 l 138 1053 l 695 1053 l 695 947 l 275 947 l 275 589 l 653 589 l 653 484 l 275 484 l 275 116 l 706 116 m 422 1175 q 363 1199 388 1175 q 339 1257 339 1223 q 364 1316 339 1292 q 422 1341 389 1341 q 480 1316 456 1341 q 505 1257 505 1292 q 481 1199 505 1223 q 422 1175 456 1175 z "},"ė":{"ha":833,"x_min":88,"x_max":746,"o":"m 735 50 q 449 -22 584 -22 q 266 29 347 -22 q 137 175 185 80 q 88 377 88 269 q 134 576 88 481 q 263 725 180 672 q 448 779 346 779 q 664 682 583 779 q 746 385 746 586 l 746 358 l 224 358 q 257 214 224 279 q 343 117 290 149 q 465 84 397 84 q 735 165 587 84 l 735 50 m 231 452 l 609 452 l 609 471 q 564 618 609 564 q 442 673 518 673 q 310 617 366 673 q 231 452 254 562 m 452 906 q 393 930 417 906 q 368 989 368 954 q 393 1048 368 1023 q 452 1072 418 1072 q 510 1048 485 1072 q 534 989 534 1023 q 510 930 534 954 q 452 906 486 906 z "},"Ę":{"ha":833,"x_min":138,"x_max":706,"o":"m 706 116 l 706 0 l 138 0 l 138 1053 l 695 1053 l 695 947 l 275 947 l 275 589 l 653 589 l 653 484 l 275 484 l 275 116 l 706 116 m 538 7 q 439 -73 477 -22 q 401 -156 401 -123 q 420 -196 401 -177 q 484 -215 439 -215 q 538 -202 507 -215 l 538 -268 q 452 -288 493 -288 q 348 -254 389 -288 q 307 -168 307 -220 q 407 7 307 -85 l 538 7 z "},"ę":{"ha":833,"x_min":88,"x_max":746,"o":"m 735 50 q 449 -22 584 -22 q 266 29 347 -22 q 137 175 185 80 q 88 377 88 269 q 134 576 88 481 q 263 725 180 672 q 448 779 346 779 q 664 682 583 779 q 746 385 746 586 l 746 358 l 224 358 q 257 214 224 279 q 343 117 290 149 q 465 84 397 84 q 735 165 587 84 l 735 50 m 231 452 l 609 452 l 609 471 q 564 618 609 564 q 442 673 518 673 q 310 617 366 673 q 231 452 254 562 m 545 0 q 446 -79 484 -28 q 408 -163 408 -130 q 427 -203 408 -184 q 490 -222 446 -222 q 545 -209 514 -222 l 545 -275 q 458 -294 500 -294 q 354 -260 395 -294 q 313 -174 313 -227 q 414 0 313 -92 l 545 0 z "},"Ě":{"ha":833,"x_min":138,"x_max":706,"o":"m 706 116 l 706 0 l 138 0 l 138 1053 l 695 1053 l 695 947 l 275 947 l 275 589 l 653 589 l 653 484 l 275 484 l 275 116 l 706 116 m 422 1229 l 516 1343 l 622 1343 l 464 1122 l 380 1122 l 222 1343 l 327 1343 l 422 1229 z "},"ě":{"ha":833,"x_min":88,"x_max":746,"o":"m 735 50 q 449 -22 584 -22 q 266 29 347 -22 q 137 175 185 80 q 88 377 88 269 q 134 576 88 481 q 263 725 180 672 q 448 779 346 779 q 664 682 583 779 q 746 385 746 586 l 746 358 l 224 358 q 257 214 224 279 q 343 117 290 149 q 465 84 397 84 q 735 165 587 84 l 735 50 m 231 452 l 609 452 l 609 471 q 564 618 609 564 q 442 673 518 673 q 310 617 366 673 q 231 452 254 562 m 451 960 l 545 1074 l 651 1074 l 493 853 l 409 853 l 251 1074 l 356 1074 l 451 960 z "},"Ĝ":{"ha":833,"x_min":80,"x_max":738,"o":"m 738 1 q 534 -32 627 -32 q 299 33 402 -32 q 138 230 197 98 q 80 526 80 361 q 137 820 80 690 q 298 1017 194 950 q 526 1084 401 1084 q 737 1040 619 1084 l 737 916 q 520 979 628 979 q 371 923 439 979 q 263 760 304 867 q 222 525 222 652 q 300 214 222 354 q 546 73 378 73 q 601 77 568 73 l 601 416 l 496 416 l 496 521 l 738 521 l 738 1 m 477 1267 l 382 1154 l 277 1154 l 435 1375 l 519 1375 l 677 1154 l 571 1154 l 477 1267 z "},"ĝ":{"ha":833,"x_min":77,"x_max":738,"o":"m 611 170 q 472 27 553 75 q 323 -21 391 -21 q 153 61 229 -21 q 77 310 77 143 q 127 545 77 441 q 262 708 178 648 q 470 768 346 768 q 578 761 506 768 q 611 758 589 760 l 738 758 l 738 222 q 733 -12 738 31 q 716 -98 728 -54 q 592 -257 689 -199 q 359 -315 496 -315 q 80 -245 221 -315 l 80 -117 q 212 -182 134 -154 q 363 -210 290 -210 q 473 -192 421 -210 q 556 -139 524 -174 q 600 -59 588 -104 q 611 63 611 -13 l 611 170 m 611 320 l 611 645 q 486 663 544 663 q 292 572 370 663 q 214 327 214 482 q 257 157 214 214 q 353 100 299 100 q 484 159 412 100 q 611 320 555 219 m 413 957 l 318 843 l 213 843 l 371 1064 l 455 1064 l 613 843 l 507 843 l 413 957 z "},"Ğ":{"ha":833,"x_min":80,"x_max":738,"o":"m 738 1 q 534 -32 627 -32 q 299 33 402 -32 q 138 230 197 98 q 80 526 80 361 q 137 820 80 690 q 298 1017 194 950 q 526 1084 401 1084 q 737 1040 619 1084 l 737 916 q 520 979 628 979 q 371 923 439 979 q 263 760 304 867 q 222 525 222 652 q 300 214 222 354 q 546 73 378 73 q 601 77 568 73 l 601 416 l 496 416 l 496 521 l 738 521 l 738 1 m 401 1389 q 440 1297 407 1337 q 515 1257 473 1257 q 589 1298 556 1257 q 627 1389 621 1338 l 714 1389 q 676 1267 706 1314 q 603 1194 646 1221 q 515 1168 560 1168 q 426 1194 469 1168 q 353 1267 383 1221 q 314 1389 323 1314 l 401 1389 z "},"ğ":{"ha":833,"x_min":80,"x_max":741,"o":"m 614 170 q 475 27 556 75 q 326 -21 394 -21 q 156 61 231 -21 q 80 310 80 143 q 130 545 80 441 q 264 708 180 648 q 473 768 349 768 q 581 761 509 768 q 614 758 592 760 l 741 758 l 741 222 q 735 -12 741 31 q 719 -98 730 -54 q 595 -257 692 -199 q 361 -315 498 -315 q 83 -245 224 -315 l 83 -117 q 215 -182 136 -154 q 366 -210 293 -210 q 475 -192 424 -210 q 559 -139 527 -174 q 602 -59 591 -104 q 614 63 614 -13 l 614 170 m 614 320 l 614 645 q 489 663 547 663 q 295 572 372 663 q 217 327 217 482 q 259 157 217 214 q 356 100 302 100 q 486 159 415 100 q 614 320 557 219 m 349 1095 q 389 1003 355 1042 q 463 963 422 963 q 537 1003 505 963 q 576 1095 570 1044 l 663 1095 q 624 973 654 1019 q 551 900 594 926 q 463 873 509 873 q 375 900 418 873 q 301 973 332 926 q 262 1095 271 1019 l 349 1095 z "},"Ġ":{"ha":833,"x_min":80,"x_max":738,"o":"m 738 1 q 534 -32 627 -32 q 299 33 402 -32 q 138 230 197 98 q 80 526 80 361 q 137 820 80 690 q 298 1017 194 950 q 526 1084 401 1084 q 737 1040 619 1084 l 737 916 q 520 979 628 979 q 371 923 439 979 q 263 760 304 867 q 222 525 222 652 q 300 214 222 354 q 546 73 378 73 q 601 77 568 73 l 601 416 l 496 416 l 496 521 l 738 521 l 738 1 m 477 1206 q 418 1231 443 1206 q 394 1289 394 1255 q 419 1348 394 1324 q 477 1373 444 1373 q 535 1348 511 1373 q 560 1289 560 1324 q 536 1231 560 1255 q 477 1206 511 1206 z "},"ġ":{"ha":833,"x_min":77,"x_max":738,"o":"m 611 170 q 472 27 553 75 q 323 -21 391 -21 q 153 61 229 -21 q 77 310 77 143 q 127 545 77 441 q 262 708 178 648 q 470 768 346 768 q 578 761 506 768 q 611 758 589 760 l 738 758 l 738 222 q 733 -12 738 31 q 716 -98 728 -54 q 592 -257 689 -199 q 359 -315 496 -315 q 80 -245 221 -315 l 80 -117 q 212 -182 134 -154 q 363 -210 290 -210 q 473 -192 421 -210 q 556 -139 524 -174 q 600 -59 588 -104 q 611 63 611 -13 l 611 170 m 611 320 l 611 645 q 486 663 544 663 q 292 572 370 663 q 214 327 214 482 q 257 157 214 214 q 353 100 299 100 q 484 159 412 100 q 611 320 555 219 m 456 896 q 397 920 421 896 q 372 979 372 944 q 397 1038 372 1013 q 456 1062 422 1062 q 514 1038 489 1062 q 538 979 538 1013 q 514 920 538 944 q 456 896 490 896 z "},"Ģ":{"ha":833,"x_min":80,"x_max":738,"o":"m 738 1 q 534 -32 627 -32 q 299 33 402 -32 q 138 230 197 98 q 80 526 80 361 q 137 820 80 690 q 298 1017 194 950 q 526 1084 401 1084 q 737 1040 619 1084 l 737 916 q 520 979 628 979 q 371 923 439 979 q 263 760 304 867 q 222 525 222 652 q 300 214 222 354 q 546 73 378 73 q 601 77 568 73 l 601 416 l 496 416 l 496 521 l 738 521 l 738 1 m 457 -487 l 457 -432 q 506 -408 489 -424 q 532 -369 522 -393 q 542 -311 542 -345 q 482 -288 501 -311 q 462 -238 462 -264 q 484 -187 462 -208 q 534 -166 506 -166 q 598 -198 571 -166 q 625 -285 625 -230 q 604 -377 625 -334 q 546 -450 583 -420 q 457 -487 510 -480 z "},"ģ":{"ha":833,"x_min":77,"x_max":738,"o":"m 611 170 q 472 27 553 75 q 323 -21 391 -21 q 153 61 229 -21 q 77 310 77 143 q 127 545 77 441 q 262 708 178 648 q 470 768 346 768 q 578 761 506 768 q 611 758 589 760 l 738 758 l 738 222 q 733 -12 738 31 q 716 -98 728 -54 q 592 -257 689 -199 q 359 -315 496 -315 q 80 -245 221 -315 l 80 -117 q 212 -182 134 -154 q 363 -210 290 -210 q 473 -192 421 -210 q 556 -139 524 -174 q 600 -59 588 -104 q 611 63 611 -13 l 611 170 m 611 320 l 611 645 q 486 663 544 663 q 292 572 370 663 q 214 327 214 482 q 257 157 214 214 q 353 100 299 100 q 484 159 412 100 q 611 320 555 219 m 545 1277 l 545 1214 q 489 1186 508 1204 q 458 1141 470 1169 q 447 1074 447 1113 q 517 1047 494 1074 q 539 990 539 1020 q 514 930 539 955 q 456 906 489 906 q 382 943 413 906 q 351 1044 351 980 q 376 1150 351 1100 q 442 1234 400 1199 q 545 1277 484 1269 z "},"Ĥ":{"ha":833,"x_min":85,"x_max":748,"o":"m 85 0 l 85 1053 l 222 1053 l 222 600 l 612 600 l 612 1053 l 748 1053 l 748 0 l 612 0 l 612 494 l 222 494 l 222 0 l 85 0 m 417 1236 l 322 1122 l 217 1122 l 375 1343 l 459 1343 l 617 1122 l 511 1122 l 417 1236 z "},"ĥ":{"ha":833,"x_min":105,"x_max":736,"o":"m 105 0 l 105 1095 l 231 1095 l 231 592 q 362 729 286 680 q 515 779 439 779 q 633 746 580 779 q 707 666 686 713 q 730 590 724 630 q 736 423 736 549 l 736 0 l 610 0 l 610 439 q 600 583 610 548 q 561 640 589 618 q 500 663 533 663 q 357 600 433 663 q 231 441 281 536 l 231 0 l 105 0 m 368 1278 l 273 1164 l 168 1164 l 326 1385 l 410 1385 l 568 1164 l 463 1164 l 368 1278 z "},"Ħ":{"ha":833,"x_min":48,"x_max":785,"o":"m 85 0 l 85 711 l 48 711 l 48 816 l 85 816 l 85 1053 l 222 1053 l 222 816 l 612 816 l 612 1053 l 748 1053 l 748 816 l 785 816 l 785 711 l 748 711 l 748 0 l 612 0 l 612 494 l 222 494 l 222 0 l 85 0 m 612 600 l 612 711 l 222 711 l 222 600 l 612 600 z "},"ħ":{"ha":833,"x_min":28,"x_max":736,"o":"m 105 0 l 105 836 l 28 836 l 28 920 l 105 920 l 105 1095 l 231 1095 l 231 920 l 408 920 l 408 836 l 231 836 l 231 592 q 362 729 286 680 q 515 779 439 779 q 633 746 580 779 q 707 666 686 713 q 730 590 724 630 q 736 423 736 549 l 736 0 l 610 0 l 610 439 q 600 583 610 548 q 561 640 589 618 q 500 663 533 663 q 357 600 433 663 q 231 441 281 536 l 231 0 l 105 0 z "},"Ĩ":{"ha":833,"x_min":117,"x_max":716,"o":"m 117 0 l 117 105 l 348 105 l 348 947 l 117 947 l 117 1053 l 716 1053 l 716 947 l 485 947 l 485 105 l 716 105 l 716 0 l 117 0 m 281 1122 l 196 1122 q 231 1254 196 1212 q 319 1296 266 1296 q 404 1269 361 1296 l 433 1252 q 511 1217 489 1217 q 552 1296 552 1217 l 638 1296 q 620 1195 634 1227 q 576 1142 606 1163 q 511 1122 547 1122 q 416 1155 467 1122 l 386 1174 l 370 1185 q 326 1201 347 1201 q 296 1185 311 1201 q 281 1122 281 1170 z "},"ĩ":{"ha":833,"x_min":106,"x_max":654,"o":"m 317 0 l 317 652 l 106 652 l 106 758 l 443 758 l 443 105 l 654 105 l 654 0 l 317 0 m 249 833 l 164 833 q 199 964 164 922 q 287 1006 234 1006 q 372 979 329 1006 l 401 962 q 479 927 457 927 q 520 1006 520 927 l 606 1006 q 588 905 602 937 q 544 853 574 873 q 479 832 515 832 q 384 865 435 832 l 354 884 l 338 896 q 294 911 315 911 q 264 896 279 911 q 249 833 249 880 z "},"Ī":{"ha":833,"x_min":117,"x_max":716,"o":"m 117 0 l 117 105 l 348 105 l 348 947 l 117 947 l 117 1053 l 716 1053 l 716 947 l 485 947 l 485 105 l 716 105 l 716 0 l 117 0 m 227 1190 l 227 1274 l 606 1274 l 606 1190 l 227 1190 z "},"ī":{"ha":833,"x_min":106,"x_max":654,"o":"m 317 0 l 317 652 l 106 652 l 106 758 l 443 758 l 443 105 l 654 105 l 654 0 l 317 0 m 196 832 l 196 916 l 575 916 l 575 832 l 196 832 z "},"Ĭ":{"ha":833,"x_min":117,"x_max":716,"o":"m 117 0 l 117 105 l 348 105 l 348 947 l 117 947 l 117 1053 l 716 1053 l 716 947 l 485 947 l 485 105 l 716 105 l 716 0 l 117 0 m 304 1343 q 343 1251 310 1291 q 418 1211 376 1211 q 492 1252 459 1211 q 530 1343 524 1292 l 617 1343 q 579 1221 609 1267 q 506 1148 549 1175 q 418 1122 463 1122 q 329 1148 372 1122 q 256 1221 286 1175 q 217 1343 226 1267 l 304 1343 z "},"ĭ":{"ha":833,"x_min":106,"x_max":654,"o":"m 317 0 l 317 652 l 106 652 l 106 758 l 443 758 l 443 105 l 654 105 l 654 0 l 317 0 m 272 1053 q 311 961 278 1001 q 386 922 345 922 q 460 962 427 922 q 498 1053 492 1002 l 585 1053 q 547 931 577 978 q 474 859 517 885 q 386 832 431 832 q 297 859 340 832 q 224 931 254 885 q 185 1053 194 978 l 272 1053 z "},"Į":{"ha":833,"x_min":117,"x_max":716,"o":"m 117 0 l 117 105 l 348 105 l 348 947 l 117 947 l 117 1053 l 716 1053 l 716 947 l 485 947 l 485 105 l 716 105 l 716 0 l 117 0 m 532 7 q 434 -73 471 -22 q 396 -156 396 -123 q 415 -196 396 -177 q 478 -215 434 -215 q 532 -202 502 -215 l 532 -268 q 446 -288 488 -288 q 342 -254 383 -288 q 301 -168 301 -220 q 401 7 301 -85 l 532 7 z "},"į":{"ha":833,"x_min":107,"x_max":654,"o":"m 317 0 l 317 652 l 107 652 l 107 758 l 444 758 l 444 105 l 654 105 l 654 0 l 317 0 m 296 1031 q 326 1095 296 1074 q 380 1116 355 1116 q 436 1095 407 1116 q 465 1031 465 1074 q 436 968 465 989 q 380 947 407 947 q 326 968 355 947 q 296 1031 296 989 m 502 7 q 403 -73 441 -22 q 366 -156 366 -123 q 385 -196 366 -177 q 448 -215 404 -215 q 502 -202 471 -215 l 502 -268 q 416 -288 457 -288 q 312 -254 353 -288 q 271 -168 271 -220 q 371 7 271 -85 l 502 7 z "},"İ":{"ha":833,"x_min":117,"x_max":716,"o":"m 117 0 l 117 105 l 348 105 l 348 947 l 117 947 l 117 1053 l 716 1053 l 716 947 l 485 947 l 485 105 l 716 105 l 716 0 l 117 0 m 412 1153 q 353 1177 378 1153 q 329 1236 329 1201 q 354 1295 329 1270 q 412 1319 378 1319 q 470 1295 446 1319 q 495 1236 495 1270 q 471 1177 495 1201 q 412 1153 446 1153 z "},"ı":{"ha":833,"x_min":106,"x_max":654,"o":"m 317 0 l 317 652 l 106 652 l 106 758 l 443 758 l 443 105 l 654 105 l 654 0 l 317 0 z "},"Ĳ":{"ha":833,"x_min":22,"x_max":811,"o":"m 237 23 l 237 152 q 485 74 385 74 q 580 94 537 74 q 649 162 623 115 q 674 367 674 210 l 674 1053 l 811 1053 l 811 363 q 773 121 811 195 q 665 8 734 47 q 488 -32 596 -32 q 237 23 368 -32 m 22 0 l 22 1053 l 159 1053 l 159 0 l 22 0 z "},"ĳ":{"ha":833,"x_min":40,"x_max":793,"o":"m 267 -297 l 267 -179 q 446 -210 373 -210 q 553 -188 509 -210 q 622 -114 597 -166 q 646 68 646 -62 l 646 758 l 772 758 l 772 92 q 727 -176 772 -101 q 617 -283 682 -251 q 441 -316 553 -316 q 267 -297 360 -316 m 625 1031 q 654 1095 625 1074 q 709 1116 683 1116 q 765 1095 736 1116 q 793 1031 793 1074 q 765 968 793 989 q 709 947 736 947 q 654 968 683 947 q 625 1031 625 989 m 61 0 l 61 758 l 187 758 l 187 0 l 61 0 m 40 1031 q 69 1095 40 1074 q 124 1116 98 1116 q 180 1095 151 1116 q 209 1031 209 1074 q 180 968 209 989 q 124 947 151 947 q 69 968 98 947 q 40 1031 40 989 z "},"Ĵ":{"ha":833,"x_min":75,"x_max":648,"o":"m 75 23 l 75 152 q 322 74 222 74 q 417 94 374 74 q 486 162 460 115 q 511 367 511 210 l 511 947 l 275 947 l 275 1053 l 648 1053 l 648 363 q 610 121 648 195 q 503 8 572 47 q 326 -32 433 -32 q 75 23 205 -32 m 448 1236 l 353 1122 l 248 1122 l 406 1343 l 490 1343 l 648 1122 l 543 1122 l 448 1236 z "},"ĵ":{"ha":833,"x_min":117,"x_max":650,"o":"m 117 -297 l 117 -179 q 295 -210 222 -210 q 402 -188 358 -210 q 471 -114 446 -166 q 496 68 496 -62 l 496 652 l 174 652 l 174 758 l 622 758 l 622 92 q 576 -176 622 -101 q 467 -283 531 -251 q 290 -316 402 -316 q 117 -297 210 -316 m 450 1027 l 355 913 l 250 913 l 408 1135 l 492 1135 l 650 913 l 544 913 l 450 1027 z "},"Ķ":{"ha":833,"x_min":106,"x_max":833,"o":"m 106 0 l 106 1053 l 243 1053 l 243 536 l 635 1053 l 780 1053 l 402 553 l 833 0 l 661 0 l 243 536 l 243 0 l 106 0 m 443 -455 l 443 -400 q 492 -376 475 -392 q 518 -337 508 -361 q 528 -279 528 -313 q 467 -256 487 -279 q 448 -206 448 -233 q 470 -155 448 -176 q 520 -134 491 -134 q 584 -166 557 -134 q 611 -253 611 -198 q 590 -345 611 -302 q 532 -418 568 -388 q 443 -455 496 -448 z "},"ķ":{"ha":833,"x_min":139,"x_max":807,"o":"m 139 0 l 139 1095 l 265 1095 l 265 407 l 629 758 l 798 758 l 434 407 l 807 0 l 633 0 l 265 407 l 265 0 l 139 0 m 390 -455 l 390 -400 q 439 -376 422 -392 q 465 -337 455 -361 q 475 -279 475 -313 q 415 -256 434 -279 q 395 -206 395 -233 q 417 -155 395 -176 q 467 -134 438 -134 q 531 -166 504 -134 q 558 -253 558 -198 q 537 -345 558 -302 q 479 -418 516 -388 q 390 -455 443 -448 z "},"ĸ":{"ha":833,"x_min":139,"x_max":807,"o":"m 139 0 l 139 758 l 265 758 l 265 407 l 629 758 l 798 758 l 434 407 l 807 0 l 633 0 l 265 407 l 265 0 l 139 0 z "},"Ĺ":{"ha":833,"x_min":149,"x_max":717,"o":"m 717 116 l 717 0 l 149 0 l 149 1053 l 286 1053 l 286 116 l 717 116 m 154 1122 l 355 1343 l 501 1343 l 269 1122 l 154 1122 z "},"ĺ":{"ha":833,"x_min":82,"x_max":671,"o":"m 309 0 l 309 989 l 82 989 l 82 1095 l 435 1095 l 435 105 l 671 105 l 671 0 l 309 0 m 208 1164 l 409 1385 l 555 1385 l 323 1164 l 208 1164 z "},"Ļ":{"ha":833,"x_min":149,"x_max":717,"o":"m 717 116 l 717 0 l 149 0 l 149 1053 l 286 1053 l 286 116 l 717 116 m 390 -455 l 390 -400 q 439 -376 422 -392 q 465 -337 455 -361 q 475 -279 475 -313 q 415 -256 434 -279 q 395 -206 395 -233 q 417 -155 395 -176 q 467 -134 438 -134 q 531 -166 504 -134 q 558 -253 558 -198 q 537 -345 558 -302 q 479 -418 516 -388 q 390 -455 443 -448 z "},"ļ":{"ha":833,"x_min":82,"x_max":671,"o":"m 309 0 l 309 989 l 82 989 l 82 1095 l 435 1095 l 435 105 l 671 105 l 671 0 l 309 0 m 390 -455 l 390 -400 q 439 -376 422 -392 q 465 -337 455 -361 q 475 -279 475 -313 q 415 -256 434 -279 q 395 -206 395 -233 q 417 -155 395 -176 q 467 -134 438 -134 q 531 -166 504 -134 q 558 -253 558 -198 q 537 -345 558 -302 q 479 -418 516 -388 q 390 -455 443 -448 z "},"Ľ":{"ha":833,"x_min":149,"x_max":798,"o":"m 717 116 l 717 0 l 149 0 l 149 1053 l 286 1053 l 286 116 l 717 116 m 630 729 l 630 784 q 678 808 661 792 q 704 847 695 823 q 714 905 714 871 q 654 928 673 905 q 635 978 635 952 q 656 1029 635 1008 q 706 1050 678 1050 q 770 1018 743 1050 q 797 931 797 986 q 776 839 797 882 q 719 766 755 796 q 630 729 682 736 z "},"ľ":{"ha":833,"x_min":82,"x_max":828,"o":"m 309 0 l 309 989 l 82 989 l 82 1095 l 435 1095 l 435 105 l 671 105 l 671 0 l 309 0 m 660 771 l 660 826 q 709 850 692 834 q 735 889 725 865 q 745 947 745 913 q 685 970 704 947 q 665 1020 665 994 q 687 1071 665 1051 q 737 1092 708 1092 q 801 1060 774 1092 q 828 973 828 1028 q 807 881 828 924 q 749 808 785 838 q 660 771 713 778 z "},"Ŀ":{"ha":833,"x_min":149,"x_max":717,"o":"m 717 116 l 717 0 l 149 0 l 149 1053 l 286 1053 l 286 116 l 717 116 m 572 408 q 513 432 538 408 q 489 490 489 456 q 514 549 489 525 q 572 574 538 574 q 630 549 606 574 q 655 490 655 525 q 631 432 655 456 q 572 408 606 408 z "},"ŀ":{"ha":833,"x_min":82,"x_max":785,"o":"m 309 0 l 309 989 l 82 989 l 82 1095 l 435 1095 l 435 105 l 671 105 l 671 0 l 309 0 m 703 496 q 644 520 668 496 q 619 579 619 545 q 644 638 619 614 q 703 663 669 663 q 761 638 736 663 q 785 579 785 614 q 761 520 785 545 q 703 496 736 496 z "},"Ł":{"ha":833,"x_min":1,"x_max":717,"o":"m 717 116 l 717 0 l 149 0 l 149 473 l 1 420 l 1 528 l 149 583 l 149 1053 l 286 1053 l 286 634 l 438 688 l 438 576 l 286 523 l 286 116 l 717 116 z "},"ł":{"ha":833,"x_min":80,"x_max":669,"o":"m 307 0 l 307 471 l 80 384 l 80 498 l 307 585 l 307 989 l 80 989 l 80 1095 l 433 1095 l 433 634 l 669 724 l 669 610 l 433 519 l 433 105 l 669 105 l 669 0 l 307 0 z "},"Ń":{"ha":833,"x_min":85,"x_max":748,"o":"m 212 0 l 85 0 l 85 1053 l 209 1053 l 581 352 l 622 248 l 625 248 l 622 352 l 622 1053 l 748 1053 l 748 0 l 622 0 l 260 689 l 209 800 l 212 690 l 212 0 m 243 1122 l 444 1343 l 590 1343 l 358 1122 l 243 1122 z "},"ń":{"ha":833,"x_min":105,"x_max":736,"o":"m 105 0 l 105 758 l 231 758 l 231 592 q 362 729 286 680 q 515 779 439 779 q 637 743 583 779 q 714 650 692 707 q 736 423 736 592 l 736 0 l 610 0 l 610 439 q 600 583 610 548 q 561 640 589 618 q 500 663 533 663 q 357 600 433 663 q 231 441 281 536 l 231 0 l 105 0 m 247 853 l 448 1074 l 594 1074 l 362 853 l 247 853 z "},"Ņ":{"ha":833,"x_min":85,"x_max":748,"o":"m 212 0 l 85 0 l 85 1053 l 209 1053 l 581 352 l 622 248 l 625 248 l 622 352 l 622 1053 l 748 1053 l 748 0 l 622 0 l 260 689 l 209 800 l 212 690 l 212 0 m 390 -455 l 390 -400 q 439 -376 422 -392 q 465 -337 455 -361 q 475 -279 475 -313 q 415 -256 434 -279 q 395 -206 395 -233 q 417 -155 395 -176 q 467 -134 438 -134 q 531 -166 504 -134 q 558 -253 558 -198 q 537 -345 558 -302 q 479 -418 516 -388 q 390 -455 443 -448 z "},"ņ":{"ha":833,"x_min":105,"x_max":736,"o":"m 105 0 l 105 758 l 231 758 l 231 592 q 362 729 286 680 q 515 779 439 779 q 637 743 583 779 q 714 650 692 707 q 736 423 736 592 l 736 0 l 610 0 l 610 439 q 600 583 610 548 q 561 640 589 618 q 500 663 533 663 q 357 600 433 663 q 231 441 281 536 l 231 0 l 105 0 m 337 -408 l 337 -354 q 386 -330 369 -345 q 412 -290 402 -314 q 422 -232 422 -266 q 362 -209 381 -232 q 342 -159 342 -186 q 364 -108 342 -129 q 414 -87 386 -87 q 478 -119 451 -87 q 505 -206 505 -151 q 484 -298 505 -255 q 426 -371 463 -341 q 337 -408 390 -402 z "},"Ň":{"ha":833,"x_min":85,"x_max":748,"o":"m 212 0 l 85 0 l 85 1053 l 209 1053 l 581 352 l 622 248 l 625 248 l 622 352 l 622 1053 l 748 1053 l 748 0 l 622 0 l 260 689 l 209 800 l 212 690 l 212 0 m 417 1229 l 511 1343 l 617 1343 l 459 1122 l 375 1122 l 217 1343 l 322 1343 l 417 1229 z "},"ň":{"ha":833,"x_min":105,"x_max":736,"o":"m 105 0 l 105 758 l 231 758 l 231 592 q 362 729 286 680 q 515 779 439 779 q 637 743 583 779 q 714 650 692 707 q 736 423 736 592 l 736 0 l 610 0 l 610 439 q 600 583 610 548 q 561 640 589 618 q 500 663 533 663 q 357 600 433 663 q 231 441 281 536 l 231 0 l 105 0 m 420 960 l 515 1074 l 621 1074 l 463 853 l 378 853 l 220 1074 l 326 1074 l 420 960 z "},"ŉ":{"ha":833,"x_min":68,"x_max":825,"o":"m 68 852 l 68 915 q 124 943 104 925 q 154 988 143 961 q 165 1056 165 1016 q 96 1083 118 1056 q 73 1139 73 1109 q 98 1199 73 1175 q 156 1223 123 1223 q 230 1186 199 1223 q 261 1085 261 1150 q 237 979 261 1029 q 170 895 212 930 q 68 852 128 860 m 193 0 l 193 758 l 319 758 l 319 592 q 450 729 374 680 q 604 779 527 779 q 726 743 671 779 q 803 650 781 707 q 825 423 825 592 l 825 0 l 699 0 l 699 439 q 688 583 699 548 q 649 640 677 618 q 588 663 621 663 q 445 600 522 663 q 319 441 369 536 l 319 0 l 193 0 z "},"Ŋ":{"ha":833,"x_min":85,"x_max":748,"o":"m 243 -297 l 243 -179 q 421 -210 349 -210 q 528 -188 484 -210 q 597 -114 572 -166 q 620 3 615 -75 l 260 689 l 209 800 l 212 690 l 212 0 l 85 0 l 85 1053 l 209 1053 l 581 352 l 622 248 l 625 248 l 622 352 l 622 1053 l 748 1053 l 748 92 l 748 73 l 748 0 l 745 0 q 703 -176 736 -120 q 593 -283 657 -251 q 416 -316 528 -316 q 243 -297 336 -316 z "},"ŋ":{"ha":833,"x_min":105,"x_max":736,"o":"m 231 -297 l 231 -179 q 410 -210 337 -210 q 517 -188 473 -210 q 586 -114 561 -166 q 610 68 610 -62 l 610 439 q 600 583 610 548 q 561 640 589 618 q 500 663 533 663 q 357 600 433 663 q 231 441 281 536 l 231 0 l 105 0 l 105 758 l 231 758 l 231 592 q 362 729 286 680 q 515 779 439 779 q 637 743 583 779 q 714 650 692 707 q 736 423 736 592 l 736 0 l 733 0 q 691 -176 724 -120 q 581 -283 646 -251 q 405 -316 517 -316 q 231 -297 324 -316 z "},"Ō":{"ha":833,"x_min":48,"x_max":785,"o":"m 416 -32 q 143 119 237 -32 q 48 526 48 270 q 143 933 48 782 q 416 1084 237 1084 q 690 933 596 1084 q 785 526 785 782 q 690 119 785 270 q 416 -32 596 -32 m 416 74 q 582 186 515 74 q 648 526 648 298 q 582 866 648 754 q 416 979 515 979 q 251 866 317 979 q 185 526 185 754 q 251 186 185 298 q 416 74 317 74 m 227 1153 l 227 1237 l 606 1237 l 606 1153 l 227 1153 z "},"ō":{"ha":833,"x_min":59,"x_max":774,"o":"m 417 -21 q 157 93 254 -21 q 59 379 59 206 q 157 665 59 552 q 417 779 254 779 q 677 665 579 779 q 774 379 774 552 q 677 93 774 206 q 417 -21 579 -21 m 417 84 q 578 163 518 84 q 637 379 637 241 q 578 595 637 516 q 417 673 518 673 q 256 595 315 673 q 196 379 196 516 q 256 163 196 241 q 417 84 315 84 m 227 853 l 227 937 l 606 937 l 606 853 l 227 853 z "},"Ŏ":{"ha":833,"x_min":48,"x_max":785,"o":"m 416 -32 q 143 119 237 -32 q 48 526 48 270 q 143 933 48 782 q 416 1084 237 1084 q 690 933 596 1084 q 785 526 785 782 q 690 119 785 270 q 416 -32 596 -32 m 416 74 q 582 186 515 74 q 648 526 648 298 q 582 866 648 754 q 416 979 515 979 q 251 866 317 979 q 185 526 185 754 q 251 186 185 298 q 416 74 317 74 m 304 1374 q 343 1282 310 1322 q 418 1242 376 1242 q 492 1283 459 1242 q 530 1374 524 1323 l 617 1374 q 579 1252 609 1299 q 506 1179 549 1206 q 418 1153 463 1153 q 329 1179 372 1153 q 256 1252 286 1206 q 217 1374 226 1299 l 304 1374 z "},"ŏ":{"ha":833,"x_min":59,"x_max":774,"o":"m 417 -21 q 157 93 254 -21 q 59 379 59 206 q 157 665 59 552 q 417 779 254 779 q 677 665 579 779 q 774 379 774 552 q 677 93 774 206 q 417 -21 579 -21 m 417 84 q 578 163 518 84 q 637 379 637 241 q 578 595 637 516 q 417 673 518 673 q 256 595 315 673 q 196 379 196 516 q 256 163 196 241 q 417 84 315 84 m 304 1074 q 343 982 310 1022 q 418 943 376 943 q 492 983 459 943 q 530 1074 524 1023 l 617 1074 q 579 952 609 999 q 506 880 549 906 q 418 853 463 853 q 329 880 372 853 q 256 952 286 906 q 217 1074 226 999 l 304 1074 z "},"Ő":{"ha":833,"x_min":48,"x_max":785,"o":"m 416 -32 q 143 119 237 -32 q 48 526 48 270 q 143 933 48 782 q 416 1084 237 1084 q 690 933 596 1084 q 785 526 785 782 q 690 119 785 270 q 416 -32 596 -32 m 416 74 q 582 186 515 74 q 648 526 648 298 q 582 866 648 754 q 416 979 515 979 q 251 866 317 979 q 185 526 185 754 q 251 186 185 298 q 416 74 317 74 m 369 1153 l 290 1153 l 387 1374 l 470 1374 l 369 1153 m 555 1153 l 475 1153 l 573 1374 l 659 1374 l 555 1153 z "},"ő":{"ha":833,"x_min":59,"x_max":774,"o":"m 417 -21 q 157 93 254 -21 q 59 379 59 206 q 157 665 59 552 q 417 779 254 779 q 677 665 579 779 q 774 379 774 552 q 677 93 774 206 q 417 -21 579 -21 m 417 84 q 578 163 518 84 q 637 379 637 241 q 578 595 637 516 q 417 673 518 673 q 256 595 315 673 q 196 379 196 516 q 256 163 196 241 q 417 84 315 84 m 364 853 l 286 853 l 382 1074 l 465 1074 l 364 853 m 550 853 l 470 853 l 568 1074 l 654 1074 l 550 853 z "},"Œ":{"ha":833,"x_min":24,"x_max":803,"o":"m 803 0 l 429 0 l 429 26 q 359 -18 383 -14 q 323 -22 335 -22 q 173 42 245 -22 q 62 241 100 106 q 24 539 24 376 q 66 837 24 710 q 178 1018 108 963 q 325 1074 248 1074 q 371 1067 347 1074 q 429 1026 395 1060 l 429 1053 l 793 1053 l 793 947 l 556 947 l 556 584 l 782 584 l 782 479 l 556 479 l 556 116 l 803 116 l 803 0 m 429 353 l 429 693 q 404 921 429 873 q 330 968 378 968 q 201 843 241 968 q 161 529 161 718 q 199 222 161 361 q 332 84 237 84 q 405 132 380 84 q 429 353 429 180 z "},"œ":{"ha":833,"x_min":45,"x_max":787,"o":"m 424 92 q 339 -2 384 16 q 258 -21 295 -21 q 151 22 199 -21 q 74 163 102 64 q 45 387 45 262 q 97 656 45 534 q 273 779 149 779 q 367 750 327 779 q 433 666 407 722 q 503 750 463 722 q 593 779 543 779 q 731 702 674 779 q 787 405 787 626 l 787 363 l 513 363 l 513 321 q 530 161 513 201 q 575 103 547 121 q 638 84 604 84 q 787 137 708 84 l 787 20 q 617 -21 692 -21 q 512 1 559 -21 q 424 92 464 23 m 387 334 l 387 404 q 383 524 387 490 q 366 593 378 559 q 331 651 354 627 q 279 673 307 675 q 194 586 222 670 q 166 369 166 502 q 193 170 166 256 q 282 84 220 84 q 357 142 328 84 q 387 334 387 201 m 513 452 l 661 452 l 661 475 q 641 637 661 600 q 589 673 621 673 q 535 626 556 673 q 513 475 513 579 l 513 452 z "},"Ŕ":{"ha":833,"x_min":101,"x_max":817,"o":"m 238 447 l 238 0 l 101 0 l 101 1053 l 382 1053 q 585 1024 520 1053 q 686 939 650 996 q 722 817 722 882 q 698 694 722 755 q 632 584 674 632 q 512 492 591 535 l 817 0 l 654 0 l 375 447 l 238 447 m 238 553 l 430 553 q 526 625 494 588 q 574 703 557 661 q 590 785 590 744 q 536 903 590 859 q 340 947 482 947 l 238 947 l 238 553 m 285 1122 l 486 1343 l 632 1343 l 400 1122 l 285 1122 z "},"ŕ":{"ha":833,"x_min":170,"x_max":738,"o":"m 170 0 l 170 758 l 296 758 l 296 592 q 431 732 355 686 q 601 779 507 779 q 738 758 669 779 l 738 484 l 616 484 l 616 657 q 566 663 585 663 q 428 607 496 663 q 296 440 360 551 l 296 0 l 170 0 m 280 853 l 481 1074 l 627 1074 l 395 853 l 280 853 z "},"Ŗ":{"ha":833,"x_min":101,"x_max":817,"o":"m 238 447 l 238 0 l 101 0 l 101 1053 l 382 1053 q 585 1024 520 1053 q 686 939 650 996 q 722 817 722 882 q 698 694 722 755 q 632 584 674 632 q 512 492 591 535 l 817 0 l 654 0 l 375 447 l 238 447 m 238 553 l 430 553 q 526 625 494 588 q 574 703 557 661 q 590 785 590 744 q 536 903 590 859 q 340 947 482 947 l 238 947 l 238 553 m 390 -455 l 390 -400 q 439 -376 422 -392 q 465 -337 455 -361 q 475 -279 475 -313 q 415 -256 434 -279 q 395 -206 395 -233 q 417 -155 395 -176 q 467 -134 438 -134 q 531 -166 504 -134 q 558 -253 558 -198 q 537 -345 558 -302 q 479 -418 516 -388 q 390 -455 443 -448 z "},"ŗ":{"ha":833,"x_min":170,"x_max":738,"o":"m 170 0 l 170 758 l 296 758 l 296 592 q 431 732 355 686 q 601 779 507 779 q 738 758 669 779 l 738 484 l 616 484 l 616 657 q 566 663 585 663 q 428 607 496 663 q 296 440 360 551 l 296 0 l 170 0 m 428 -455 l 428 -400 q 476 -376 459 -392 q 502 -337 492 -361 q 512 -279 512 -313 q 452 -256 471 -279 q 432 -206 432 -233 q 454 -155 432 -176 q 504 -134 476 -134 q 568 -166 541 -134 q 595 -253 595 -198 q 574 -345 595 -302 q 516 -418 553 -388 q 428 -455 480 -448 z "},"Ř":{"ha":833,"x_min":101,"x_max":817,"o":"m 238 447 l 238 0 l 101 0 l 101 1053 l 382 1053 q 585 1024 520 1053 q 686 939 650 996 q 722 817 722 882 q 698 694 722 755 q 632 584 674 632 q 512 492 591 535 l 817 0 l 654 0 l 375 447 l 238 447 m 238 553 l 430 553 q 526 625 494 588 q 574 703 557 661 q 590 785 590 744 q 536 903 590 859 q 340 947 482 947 l 238 947 l 238 553 m 385 1229 l 479 1343 l 585 1343 l 427 1122 l 343 1122 l 185 1343 l 290 1343 l 385 1229 z "},"ř":{"ha":833,"x_min":170,"x_max":738,"o":"m 170 0 l 170 758 l 296 758 l 296 592 q 431 732 355 686 q 601 779 507 779 q 738 758 669 779 l 738 484 l 616 484 l 616 657 q 566 663 585 663 q 428 607 496 663 q 296 440 360 551 l 296 0 l 170 0 m 454 960 l 548 1074 l 654 1074 l 496 853 l 412 853 l 254 1074 l 359 1074 l 454 960 z "},"Ś":{"ha":833,"x_min":106,"x_max":748,"o":"m 106 22 l 106 151 q 402 74 269 74 q 509 95 458 74 q 586 157 559 117 q 612 243 612 197 q 576 346 612 298 q 441 452 540 394 l 372 492 l 302 532 q 117 803 117 641 q 200 1003 117 922 q 457 1084 282 1084 q 675 1051 570 1084 l 675 934 q 449 979 559 979 q 308 932 361 979 q 254 821 254 886 q 295 714 254 757 q 401 635 336 671 l 454 604 l 519 564 l 575 531 q 748 265 748 425 q 659 56 748 143 q 374 -32 570 -32 q 255 -21 312 -32 q 106 22 199 -11 m 254 1153 l 454 1374 l 601 1374 l 369 1153 l 254 1153 z "},"ś":{"ha":833,"x_min":114,"x_max":730,"o":"m 114 40 l 114 174 q 275 104 190 124 q 418 84 359 84 q 556 115 514 84 q 598 192 598 146 q 578 244 598 222 q 481 298 559 266 l 437 315 l 350 350 q 172 452 209 405 q 135 564 135 498 q 207 718 135 658 q 441 779 279 779 q 671 743 563 779 l 671 629 q 437 673 547 673 q 312 645 357 673 q 267 575 267 617 q 306 510 267 534 q 432 454 345 486 l 517 422 q 682 330 635 380 q 730 204 730 279 q 654 42 730 106 q 412 -21 578 -21 q 114 40 267 -21 m 248 853 l 449 1074 l 595 1074 l 363 853 l 248 853 z "},"Ŝ":{"ha":833,"x_min":106,"x_max":748,"o":"m 106 22 l 106 151 q 402 74 269 74 q 509 95 458 74 q 586 157 559 117 q 612 243 612 197 q 576 346 612 298 q 441 452 540 394 l 372 492 l 302 532 q 117 803 117 641 q 200 1003 117 922 q 457 1084 282 1084 q 675 1051 570 1084 l 675 934 q 449 979 559 979 q 308 932 361 979 q 254 821 254 886 q 295 714 254 757 q 401 635 336 671 l 454 604 l 519 564 l 575 531 q 748 265 748 425 q 659 56 748 143 q 374 -32 570 -32 q 255 -21 312 -32 q 106 22 199 -11 m 427 1267 l 332 1153 l 227 1153 l 385 1374 l 469 1374 l 627 1153 l 522 1153 l 427 1267 z "},"ŝ":{"ha":833,"x_min":114,"x_max":730,"o":"m 114 40 l 114 174 q 275 104 190 124 q 418 84 359 84 q 556 115 514 84 q 598 192 598 146 q 578 244 598 222 q 481 298 559 266 l 437 315 l 350 350 q 172 452 209 405 q 135 564 135 498 q 207 718 135 658 q 441 779 279 779 q 671 743 563 779 l 671 629 q 437 673 547 673 q 312 645 357 673 q 267 575 267 617 q 306 510 267 534 q 432 454 345 486 l 517 422 q 682 330 635 380 q 730 204 730 279 q 654 42 730 106 q 412 -21 578 -21 q 114 40 267 -21 m 422 967 l 327 853 l 222 853 l 380 1074 l 464 1074 l 622 853 l 516 853 l 422 967 z "},"Ş":{"ha":833,"x_min":106,"x_max":748,"o":"m 363 -32 q 268 -26 325 -32 q 106 22 211 -20 l 106 151 q 402 74 269 74 q 509 95 458 74 q 586 157 559 117 q 612 243 612 197 q 576 346 612 298 q 441 452 540 394 l 372 492 l 302 530 q 117 803 117 637 q 200 1003 117 922 q 457 1084 282 1084 q 675 1051 570 1084 l 675 934 q 449 979 559 979 q 310 932 361 979 q 259 821 259 886 q 302 714 259 760 q 401 635 346 668 l 454 604 l 519 564 l 575 531 q 748 263 748 425 q 674 69 748 151 q 438 -30 601 -13 l 406 -89 q 500 -133 478 -103 q 523 -196 523 -163 q 493 -264 523 -233 q 399 -295 463 -295 q 292 -276 343 -295 l 292 -216 q 372 -237 331 -237 q 415 -222 396 -237 q 434 -193 434 -208 q 308 -134 434 -146 l 363 -32 z "},"ş":{"ha":833,"x_min":114,"x_max":730,"o":"m 384 -20 q 252 -3 328 -20 q 114 40 175 14 l 114 174 q 275 104 190 124 q 418 84 359 84 q 556 115 514 84 q 598 192 598 146 q 578 244 598 222 q 481 298 559 266 l 351 351 l 298 370 q 174 450 214 404 q 135 564 135 496 q 207 718 135 658 q 441 779 279 779 q 671 743 563 779 l 671 629 q 437 673 547 673 q 310 644 353 673 q 267 576 267 614 q 330 496 267 523 l 390 471 l 432 454 l 517 422 q 684 328 637 378 q 730 204 730 279 q 707 107 730 151 q 647 37 684 63 q 578 1 615 14 q 458 -20 541 -13 l 419 -89 q 515 -133 492 -103 q 537 -196 537 -163 q 507 -264 537 -233 q 414 -295 477 -295 q 306 -276 357 -295 l 306 -216 q 386 -237 345 -237 q 429 -222 410 -237 q 448 -193 448 -208 q 322 -134 448 -146 l 384 -20 z "},"Š":{"ha":833,"x_min":106,"x_max":748,"o":"m 106 22 l 106 151 q 402 74 269 74 q 509 95 458 74 q 586 157 559 117 q 612 243 612 197 q 576 346 612 298 q 441 452 540 394 l 372 492 l 302 532 q 117 803 117 641 q 200 1003 117 922 q 457 1084 282 1084 q 675 1051 570 1084 l 675 934 q 449 979 559 979 q 308 932 361 979 q 254 821 254 886 q 295 714 254 757 q 401 635 336 671 l 454 604 l 519 564 l 575 531 q 748 265 748 425 q 659 56 748 143 q 374 -32 570 -32 q 255 -21 312 -32 q 106 22 199 -11 m 417 1275 l 511 1389 l 617 1389 l 459 1168 l 375 1168 l 217 1389 l 322 1389 l 417 1275 z "},"š":{"ha":833,"x_min":114,"x_max":730,"o":"m 114 40 l 114 174 q 275 104 190 124 q 418 84 359 84 q 556 115 514 84 q 598 192 598 146 q 578 244 598 222 q 481 298 559 266 l 437 315 l 350 350 q 172 452 209 405 q 135 564 135 498 q 207 718 135 658 q 441 779 279 779 q 671 743 563 779 l 671 629 q 437 673 547 673 q 312 645 357 673 q 267 575 267 617 q 306 510 267 534 q 432 454 345 486 l 517 422 q 682 330 635 380 q 730 204 730 279 q 654 42 730 106 q 412 -21 578 -21 q 114 40 267 -21 m 422 981 l 516 1095 l 622 1095 l 464 873 l 380 873 l 222 1095 l 327 1095 l 422 981 z "},"Ţ":{"ha":833,"x_min":33,"x_max":801,"o":"m 348 0 l 348 937 l 33 937 l 33 1053 l 801 1053 l 801 937 l 485 937 l 485 0 l 348 0 m 465 7 l 415 -82 q 510 -126 488 -96 q 532 -189 532 -157 q 503 -257 532 -227 q 409 -288 473 -288 q 301 -269 353 -288 l 301 -209 q 382 -230 340 -230 q 425 -216 406 -230 q 444 -186 444 -201 q 317 -127 444 -140 l 391 7 l 465 7 z "},"ţ":{"ha":833,"x_min":65,"x_max":739,"o":"m 739 31 q 610 -14 650 -7 q 532 -21 570 -21 q 387 9 453 -21 q 288 100 321 40 q 254 284 254 159 l 254 589 l 65 589 l 65 694 l 254 694 l 254 1000 l 380 1000 l 380 694 l 718 694 l 718 589 l 380 589 l 380 286 q 402 157 380 195 q 460 102 424 119 q 546 84 496 84 q 739 142 637 84 l 739 31 m 538 0 l 488 -89 q 583 -133 561 -103 q 606 -196 606 -163 q 576 -264 606 -233 q 482 -295 546 -295 q 374 -276 426 -295 l 374 -216 q 455 -237 414 -237 q 498 -222 479 -237 q 517 -193 517 -208 q 391 -134 517 -146 l 465 0 l 538 0 z "},"Ť":{"ha":833,"x_min":33,"x_max":801,"o":"m 348 0 l 348 937 l 33 937 l 33 1053 l 801 1053 l 801 937 l 485 937 l 485 0 l 348 0 m 417 1229 l 511 1343 l 617 1343 l 459 1122 l 375 1122 l 217 1343 l 322 1343 l 417 1229 z "},"ť":{"ha":833,"x_min":65,"x_max":832,"o":"m 739 31 q 610 -14 650 -7 q 532 -21 570 -21 q 387 9 453 -21 q 288 100 321 40 q 254 284 254 159 l 254 589 l 65 589 l 65 694 l 254 694 l 254 1000 l 380 1000 l 380 694 l 718 694 l 718 589 l 380 589 l 380 286 q 402 157 380 195 q 460 102 424 119 q 546 84 496 84 q 739 142 637 84 l 739 31 m 639 831 l 639 895 q 695 922 675 905 q 725 968 714 940 q 736 1035 736 996 q 667 1062 689 1035 q 644 1119 644 1089 q 669 1179 644 1155 q 727 1203 694 1203 q 801 1166 770 1203 q 832 1065 832 1129 q 808 959 832 1009 q 741 875 783 910 q 639 831 699 839 z "},"Ŧ":{"ha":833,"x_min":33,"x_max":801,"o":"m 348 0 l 348 937 l 33 937 l 33 1053 l 801 1053 l 801 937 l 485 937 l 485 0 l 348 0 m 227 490 l 227 574 l 606 574 l 606 490 l 227 490 z "},"ŧ":{"ha":833,"x_min":65,"x_max":739,"o":"m 739 31 q 610 -14 650 -7 q 532 -21 570 -21 q 387 9 453 -21 q 288 100 321 40 q 254 284 254 159 l 254 589 l 65 589 l 65 694 l 254 694 l 254 1000 l 380 1000 l 380 694 l 718 694 l 718 589 l 380 589 l 380 286 q 402 157 380 195 q 460 102 424 119 q 546 84 496 84 q 739 142 637 84 l 739 31 m 124 318 l 124 402 l 503 402 l 503 318 l 124 318 z "},"Ũ":{"ha":833,"x_min":85,"x_max":748,"o":"m 85 1053 l 222 1053 l 222 361 q 245 175 222 225 q 315 99 268 125 q 420 73 362 73 q 529 101 481 73 q 599 190 576 130 q 622 415 622 250 l 622 1053 l 748 1053 l 748 366 q 704 135 748 218 q 590 10 661 52 q 412 -32 519 -32 q 238 5 313 -32 q 124 115 163 41 q 85 379 85 188 l 85 1053 m 281 1122 l 196 1122 q 231 1254 196 1212 q 319 1296 266 1296 q 404 1269 361 1296 l 433 1252 q 511 1217 489 1217 q 552 1296 552 1217 l 638 1296 q 620 1195 634 1227 q 576 1142 606 1163 q 511 1122 547 1122 q 416 1155 467 1122 l 386 1174 l 370 1185 q 326 1201 347 1201 q 296 1185 311 1201 q 281 1122 281 1170 z "},"ũ":{"ha":833,"x_min":97,"x_max":728,"o":"m 728 758 l 728 0 l 602 0 l 602 166 q 467 26 541 73 q 317 -21 392 -21 q 196 15 251 -21 q 119 108 140 50 q 97 334 97 166 l 97 758 l 223 758 l 223 319 q 234 175 223 210 q 272 117 244 140 q 333 95 300 95 q 476 158 399 95 q 602 316 552 220 l 602 758 l 728 758 m 281 833 l 196 833 q 231 964 196 922 q 319 1006 266 1006 q 404 979 361 1006 l 433 962 q 511 927 489 927 q 552 1006 552 927 l 638 1006 q 620 905 634 937 q 576 853 606 873 q 511 832 547 832 q 416 865 467 832 l 386 884 l 370 896 q 326 911 347 911 q 296 896 311 911 q 281 833 281 880 z "},"Ū":{"ha":833,"x_min":85,"x_max":748,"o":"m 85 1053 l 222 1053 l 222 361 q 245 175 222 225 q 315 99 268 125 q 420 73 362 73 q 529 101 481 73 q 599 190 576 130 q 622 415 622 250 l 622 1053 l 748 1053 l 748 366 q 704 135 748 218 q 590 10 661 52 q 412 -32 519 -32 q 238 5 313 -32 q 124 115 163 41 q 85 379 85 188 l 85 1053 m 227 1190 l 227 1274 l 606 1274 l 606 1190 l 227 1190 z "},"ū":{"ha":833,"x_min":97,"x_max":728,"o":"m 728 758 l 728 0 l 602 0 l 602 166 q 467 26 541 73 q 317 -21 392 -21 q 196 15 251 -21 q 119 108 140 50 q 97 334 97 166 l 97 758 l 223 758 l 223 319 q 234 175 223 210 q 272 117 244 140 q 333 95 300 95 q 476 158 399 95 q 602 316 552 220 l 602 758 l 728 758 m 227 832 l 227 916 l 606 916 l 606 832 l 227 832 z "},"Ŭ":{"ha":833,"x_min":85,"x_max":748,"o":"m 85 1053 l 222 1053 l 222 361 q 245 175 222 225 q 315 99 268 125 q 420 73 362 73 q 529 101 481 73 q 599 190 576 130 q 622 415 622 250 l 622 1053 l 748 1053 l 748 366 q 704 135 748 218 q 590 10 661 52 q 412 -32 519 -32 q 238 5 313 -32 q 124 115 163 41 q 85 379 85 188 l 85 1053 m 304 1343 q 343 1251 310 1291 q 418 1211 376 1211 q 492 1252 459 1211 q 530 1343 524 1292 l 617 1343 q 579 1221 609 1267 q 506 1148 549 1175 q 418 1122 463 1122 q 329 1148 372 1122 q 256 1221 286 1175 q 217 1343 226 1267 l 304 1343 z "},"ŭ":{"ha":833,"x_min":97,"x_max":728,"o":"m 728 758 l 728 0 l 602 0 l 602 166 q 467 26 541 73 q 317 -21 392 -21 q 196 15 251 -21 q 119 108 140 50 q 97 334 97 166 l 97 758 l 223 758 l 223 319 q 234 175 223 210 q 272 117 244 140 q 333 95 300 95 q 476 158 399 95 q 602 316 552 220 l 602 758 l 728 758 m 304 1053 q 343 961 310 1001 q 418 922 376 922 q 492 962 459 922 q 530 1053 524 1002 l 617 1053 q 579 931 609 978 q 506 859 549 885 q 418 832 463 832 q 329 859 372 832 q 256 931 286 885 q 217 1053 226 978 l 304 1053 z "},"Ů":{"ha":833,"x_min":85,"x_max":748,"o":"m 85 1053 l 222 1053 l 222 361 q 245 175 222 225 q 315 99 268 125 q 420 73 362 73 q 529 101 481 73 q 599 190 576 130 q 622 415 622 250 l 622 1053 l 748 1053 l 748 366 q 704 135 748 218 q 590 10 661 52 q 412 -32 519 -32 q 238 5 313 -32 q 124 115 163 41 q 85 379 85 188 l 85 1053 m 416 1185 q 461 1203 443 1185 q 479 1248 479 1222 q 461 1292 479 1274 q 416 1311 443 1311 q 372 1292 391 1311 q 353 1248 353 1274 q 372 1203 353 1222 q 416 1185 391 1185 m 416 1122 q 327 1160 363 1122 q 290 1248 290 1198 q 327 1336 290 1299 q 416 1374 364 1374 q 506 1336 469 1374 q 543 1248 543 1299 q 506 1160 543 1198 q 416 1122 469 1122 z "},"ů":{"ha":833,"x_min":97,"x_max":728,"o":"m 728 758 l 728 0 l 602 0 l 602 166 q 467 26 541 73 q 317 -21 392 -21 q 196 15 251 -21 q 119 108 140 50 q 97 334 97 166 l 97 758 l 223 758 l 223 319 q 234 175 223 210 q 272 117 244 140 q 333 95 300 95 q 476 158 399 95 q 602 316 552 220 l 602 758 l 728 758 m 416 895 q 461 914 443 895 q 479 958 479 932 q 461 1003 479 984 q 416 1021 443 1021 q 372 1003 391 1021 q 353 958 353 984 q 372 914 353 932 q 416 895 391 895 m 416 832 q 327 870 363 832 q 290 958 290 908 q 327 1047 290 1009 q 416 1084 364 1084 q 506 1047 469 1084 q 543 958 543 1009 q 506 870 543 908 q 416 832 469 832 z "},"Ű":{"ha":833,"x_min":85,"x_max":748,"o":"m 85 1053 l 222 1053 l 222 361 q 245 175 222 225 q 315 99 268 125 q 420 73 362 73 q 529 101 481 73 q 599 190 576 130 q 622 415 622 250 l 622 1053 l 748 1053 l 748 366 q 704 135 748 218 q 590 10 661 52 q 412 -32 519 -32 q 238 5 313 -32 q 124 115 163 41 q 85 379 85 188 l 85 1053 m 385 1122 l 306 1122 l 402 1343 l 486 1343 l 385 1122 m 570 1122 l 490 1122 l 589 1343 l 674 1343 l 570 1122 z "},"ű":{"ha":833,"x_min":97,"x_max":728,"o":"m 728 758 l 728 0 l 602 0 l 602 166 q 467 26 541 73 q 317 -21 392 -21 q 196 15 251 -21 q 119 108 140 50 q 97 334 97 166 l 97 758 l 223 758 l 223 319 q 234 175 223 210 q 272 117 244 140 q 333 95 300 95 q 476 158 399 95 q 602 316 552 220 l 602 758 l 728 758 m 373 832 l 294 832 l 391 1053 l 474 1053 l 373 832 m 559 832 l 479 832 l 577 1053 l 663 1053 l 559 832 z "},"Ų":{"ha":833,"x_min":85,"x_max":748,"o":"m 85 1053 l 222 1053 l 222 361 q 245 175 222 225 q 315 99 268 125 q 420 73 362 73 q 529 101 481 73 q 599 190 576 130 q 622 415 622 250 l 622 1053 l 748 1053 l 748 366 q 704 135 748 218 q 590 10 661 52 q 412 -32 519 -32 q 238 5 313 -32 q 124 115 163 41 q 85 379 85 188 l 85 1053 m 524 0 q 426 -79 463 -28 q 388 -163 388 -130 q 407 -203 388 -184 q 470 -222 426 -222 q 524 -209 494 -222 l 524 -275 q 438 -294 479 -294 q 334 -260 375 -294 q 293 -174 293 -227 q 393 0 293 -92 l 524 0 z "},"ų":{"ha":833,"x_min":97,"x_max":735,"o":"m 728 758 l 728 0 l 602 0 l 602 166 q 467 26 541 73 q 317 -21 392 -21 q 196 15 251 -21 q 119 108 140 50 q 97 334 97 166 l 97 758 l 223 758 l 223 319 q 234 175 223 210 q 272 117 244 140 q 333 95 300 95 q 476 158 399 95 q 602 316 552 220 l 602 758 l 728 758 m 735 13 q 636 -66 674 -16 q 599 -150 599 -117 q 618 -190 599 -171 q 681 -209 637 -209 q 735 -196 705 -209 l 735 -262 q 649 -281 690 -281 q 545 -248 586 -281 q 504 -161 504 -214 q 604 13 504 -79 l 735 13 z "},"Ŵ":{"ha":833,"x_min":19,"x_max":814,"o":"m 141 0 l 19 1053 l 144 1053 l 216 412 l 225 305 l 229 305 l 242 412 l 353 1053 l 477 1053 l 604 386 l 616 284 l 620 284 l 628 387 l 707 1053 l 814 1053 l 687 0 l 557 0 l 422 713 l 408 821 l 404 821 l 391 713 l 269 0 l 141 0 m 417 1236 l 322 1122 l 217 1122 l 375 1343 l 459 1343 l 617 1122 l 511 1122 l 417 1236 z "},"ŵ":{"ha":833,"x_min":14,"x_max":819,"o":"m 137 0 l 14 758 l 131 758 l 203 296 l 222 189 l 240 296 l 361 758 l 474 758 l 610 296 l 634 189 l 650 296 l 722 758 l 819 758 l 696 0 l 578 0 l 433 488 l 410 595 l 407 595 l 386 488 l 260 0 l 137 0 m 417 946 l 322 832 l 217 832 l 375 1053 l 459 1053 l 617 832 l 511 832 l 417 946 z "},"Ŷ":{"ha":833,"x_min":35,"x_max":798,"o":"m 349 0 l 349 487 l 35 1053 l 191 1053 l 425 635 l 658 1053 l 798 1053 l 486 487 l 486 0 l 349 0 m 417 1236 l 322 1122 l 217 1122 l 375 1343 l 459 1343 l 617 1122 l 511 1122 l 417 1236 z "},"ŷ":{"ha":833,"x_min":22,"x_max":812,"o":"m 384 31 l 34 758 l 173 758 l 452 189 l 685 758 l 812 758 l 518 54 q 341 -243 425 -170 q 125 -316 258 -316 q 22 -306 67 -316 l 22 -195 q 121 -211 74 -211 q 230 -187 182 -211 q 317 -103 277 -163 q 372 1 356 -43 l 384 31 m 417 946 l 322 832 l 217 832 l 375 1053 l 459 1053 l 617 832 l 511 832 l 417 946 z "},"Ÿ":{"ha":833,"x_min":35,"x_max":798,"o":"m 349 0 l 349 487 l 35 1053 l 191 1053 l 425 635 l 658 1053 l 798 1053 l 486 487 l 486 0 l 349 0 m 269 1168 q 210 1192 235 1168 q 185 1252 185 1217 q 210 1312 185 1287 q 269 1336 235 1336 q 328 1312 303 1336 q 353 1252 353 1287 q 329 1192 353 1217 q 269 1168 304 1168 m 564 1168 q 505 1192 530 1168 q 479 1252 479 1217 q 505 1312 479 1287 q 564 1336 530 1336 q 623 1312 598 1336 q 648 1252 648 1287 q 623 1192 648 1217 q 564 1168 598 1168 z "},"Ź":{"ha":833,"x_min":83,"x_max":751,"o":"m 83 0 l 83 116 l 583 947 l 98 947 l 98 1053 l 741 1053 l 741 947 l 241 116 l 751 116 l 751 0 l 83 0 m 243 1122 l 444 1343 l 590 1343 l 358 1122 l 243 1122 z "},"ź":{"ha":833,"x_min":90,"x_max":737,"o":"m 90 0 l 90 116 l 555 652 l 101 652 l 101 758 l 722 758 l 722 652 l 254 116 l 737 116 l 737 0 l 90 0 m 240 832 l 441 1053 l 587 1053 l 355 832 l 240 832 z "},"Ż":{"ha":833,"x_min":83,"x_max":751,"o":"m 83 0 l 83 116 l 583 947 l 98 947 l 98 1053 l 741 1053 l 741 947 l 241 116 l 751 116 l 751 0 l 83 0 m 417 1175 q 358 1199 382 1175 q 334 1257 334 1223 q 358 1316 334 1292 q 417 1341 383 1341 q 475 1316 450 1341 q 500 1257 500 1292 q 475 1199 500 1223 q 417 1175 451 1175 z "},"ż":{"ha":833,"x_min":90,"x_max":737,"o":"m 90 0 l 90 116 l 555 652 l 101 652 l 101 758 l 722 758 l 722 652 l 254 116 l 737 116 l 737 0 l 90 0 m 417 885 q 358 909 382 885 q 334 968 334 933 q 358 1027 334 1002 q 417 1051 383 1051 q 475 1027 450 1051 q 500 968 500 1002 q 475 909 500 933 q 417 885 451 885 z "},"Ž":{"ha":833,"x_min":83,"x_max":751,"o":"m 83 0 l 83 116 l 583 947 l 98 947 l 98 1053 l 741 1053 l 741 947 l 241 116 l 751 116 l 751 0 l 83 0 m 417 1275 l 511 1389 l 617 1389 l 459 1168 l 375 1168 l 217 1389 l 322 1389 l 417 1275 z "},"ž":{"ha":833,"x_min":90,"x_max":737,"o":"m 90 0 l 90 116 l 555 652 l 101 652 l 101 758 l 722 758 l 722 652 l 254 116 l 737 116 l 737 0 l 90 0 m 417 981 l 511 1095 l 617 1095 l 459 873 l 375 873 l 217 1095 l 322 1095 l 417 981 z "},"ſ":{"ha":833,"x_min":113,"x_max":787,"o":"m 281 0 l 281 589 l 113 589 l 113 694 l 281 694 l 281 730 q 315 951 281 880 q 420 1069 349 1023 q 608 1116 491 1116 q 787 1097 696 1116 l 787 977 q 612 1010 688 1010 q 506 987 552 1010 q 434 915 460 965 q 408 743 408 864 l 408 0 l 281 0 z "},"ƀ":{"ha":833,"x_min":-31,"x_max":756,"o":"m -31 842 l -31 947 l 96 947 l 96 1095 l 222 1095 l 222 947 l 348 947 l 348 842 l 222 842 l 222 587 q 361 730 280 682 q 509 779 441 779 q 680 696 604 779 q 756 448 756 614 q 706 213 756 316 q 571 49 655 109 q 363 -11 487 -11 q 254 -3 328 -11 q 222 0 243 -2 l 96 0 l 96 842 l -31 842 m 222 437 l 222 113 q 348 95 290 95 q 541 185 463 95 q 619 431 619 275 q 576 601 619 544 q 479 658 534 658 q 350 598 420 658 q 222 437 279 538 z "},"Ƃ":{"ha":833,"x_min":119,"x_max":755,"o":"m 618 302 q 490 531 618 463 q 302 564 429 564 l 256 564 l 256 104 l 325 104 q 526 138 458 104 q 618 302 618 184 m 702 1053 l 702 947 l 256 947 l 256 669 l 298 669 q 555 622 460 669 q 702 489 648 575 q 755 298 755 402 q 603 37 755 111 q 368 0 529 0 l 119 0 l 119 1053 l 702 1053 z "},"ƃ":{"ha":833,"x_min":96,"x_max":756,"o":"m 222 587 q 361 730 280 682 q 509 779 441 779 q 680 696 604 779 q 756 448 756 614 q 706 213 756 316 q 571 49 655 109 q 363 -11 487 -11 q 254 -3 328 -11 q 222 0 243 -2 l 96 0 l 96 1095 l 649 1095 l 649 989 l 222 989 l 222 587 m 222 437 l 222 113 q 348 95 290 95 q 541 185 463 95 q 619 431 619 275 q 576 601 619 544 q 479 658 534 658 q 350 598 420 658 q 222 437 279 538 z "},"Ƅ":{"ha":833,"x_min":119,"x_max":769,"o":"m 312 669 q 569 622 474 669 q 716 487 663 574 q 769 298 769 399 q 730 142 769 212 q 616 36 690 73 q 381 0 543 0 l 119 0 l 119 1053 l 256 1053 l 256 669 l 312 669 m 256 106 l 338 106 q 573 159 513 106 q 632 302 632 212 q 599 436 632 374 q 504 531 566 498 q 315 564 442 564 l 256 564 l 256 106 z "},"ƅ":{"ha":833,"x_min":144,"x_max":689,"o":"m 321 481 q 523 448 438 481 q 649 351 608 414 q 689 215 689 288 q 659 102 689 153 q 558 26 628 52 q 372 0 488 0 l 144 0 l 144 758 l 281 758 l 281 481 l 321 481 m 281 137 l 340 137 q 509 158 467 144 q 552 238 552 173 q 528 309 552 290 q 459 336 504 328 q 324 345 415 345 l 281 345 l 281 137 z "},"Ɔ":{"ha":833,"x_min":80,"x_max":738,"o":"m 80 1040 q 292 1084 198 1084 q 519 1018 415 1084 q 680 822 623 952 q 738 526 738 691 q 681 233 738 363 q 520 35 624 102 q 292 -32 416 -32 q 80 12 198 -32 l 80 137 q 297 74 189 74 q 446 130 378 74 q 555 293 513 185 q 596 526 596 400 q 553 763 596 654 q 444 925 511 871 q 297 979 378 979 q 80 916 190 979 l 80 1040 z "},"Ɖ":{"ha":833,"x_min":1,"x_max":780,"o":"m 106 0 l 106 484 l 1 484 l 1 589 l 106 589 l 106 1053 l 356 1053 q 615 1000 541 1053 q 734 819 689 948 q 780 524 780 690 q 734 243 780 366 q 615 60 689 119 q 385 0 541 0 l 106 0 m 243 116 l 335 116 q 535 159 484 116 q 615 296 587 202 q 644 545 644 391 q 615 782 644 696 q 538 907 587 868 q 346 947 489 947 l 243 947 l 243 589 l 412 589 l 412 484 l 243 484 l 243 116 z "},"Ƌ":{"ha":833,"x_min":119,"x_max":755,"o":"m 256 302 q 349 138 256 184 q 550 104 416 104 l 618 104 l 618 564 l 573 564 q 385 531 446 564 q 256 302 256 463 m 755 1053 l 755 0 l 507 0 q 272 37 346 0 q 119 298 119 111 q 173 489 119 402 q 319 622 227 575 q 576 669 414 669 l 618 669 l 618 947 l 173 947 l 173 1053 l 755 1053 z "},"ƌ":{"ha":833,"x_min":96,"x_max":756,"o":"m 630 989 l 203 989 l 203 1095 l 756 1095 l 756 0 l 630 0 q 597 -3 608 -2 q 489 -11 524 -11 q 281 49 365 -11 q 146 213 197 109 q 96 448 96 316 q 172 696 96 614 q 342 779 248 779 q 491 730 410 779 q 630 587 572 682 l 630 989 m 630 437 q 502 598 573 538 q 372 658 431 658 q 275 601 318 658 q 233 431 233 544 q 311 185 233 275 q 504 95 389 95 q 630 113 562 95 l 630 437 l 630 437 z "},"Ǝ":{"ha":833,"x_min":138,"x_max":706,"o":"m 569 116 l 569 484 l 191 484 l 191 589 l 569 589 l 569 947 l 149 947 l 149 1053 l 706 1053 l 706 0 l 138 0 l 138 116 l 569 116 z "},"Ə":{"ha":833,"x_min":88,"x_max":746,"o":"m 99 980 q 385 1080 250 1080 q 568 1009 488 1080 q 697 807 649 939 q 746 526 746 675 q 700 249 746 382 q 571 42 654 116 q 387 -32 488 -32 q 170 102 252 -32 q 88 515 88 235 l 88 552 l 601 552 q 573 778 601 662 q 484 919 545 894 q 369 944 424 944 q 99 844 247 958 l 99 980 m 600 412 l 208 412 l 208 387 q 262 185 208 246 q 392 123 316 123 q 533 186 469 123 q 600 412 598 249 z "},"Ɛ":{"ha":833,"x_min":85,"x_max":745,"o":"m 222 300 q 292 134 222 198 q 463 73 359 73 q 745 151 592 73 l 745 22 q 471 -32 595 -32 q 201 57 310 -32 q 85 309 85 152 q 318 588 85 519 q 137 836 137 674 q 244 1033 137 970 q 475 1084 330 1084 q 718 1033 581 1084 l 718 913 q 470 979 583 979 q 334 943 387 979 q 274 823 274 902 q 351 675 274 726 q 517 631 416 631 l 601 631 l 601 526 l 551 526 q 222 300 222 526 z "},"Ƒ":{"ha":833,"x_min":-225,"x_max":732,"o":"m 291 484 l 283 0 q 235 -176 268 -120 q 125 -283 189 -251 q -52 -316 60 -316 q -225 -297 -132 -316 l -225 -179 q -47 -210 -119 -210 q 60 -188 16 -210 q 129 -114 104 -166 q 154 68 154 -62 l 154 1053 l 732 1053 l 732 947 l 291 947 l 291 589 l 690 589 l 690 484 l 291 484 z "},"ƒ":{"ha":833,"x_min":96,"x_max":832,"o":"m 96 -252 l 266 589 l 96 589 l 117 694 l 289 694 l 294 730 q 360 930 312 849 q 492 1063 408 1011 q 715 1116 576 1116 q 805 1108 749 1116 q 832 1105 814 1107 l 810 996 l 783 1000 q 690 1010 728 1010 q 577 989 628 1010 q 489 922 526 969 q 425 743 452 874 l 414 694 l 682 694 l 661 589 l 393 589 l 222 -252 l 96 -252 z "},"Ɩ":{"ha":833,"x_min":117,"x_max":622,"o":"m 243 1053 l 243 363 q 268 181 243 233 q 336 107 292 129 q 444 85 380 85 q 622 116 516 85 l 622 -2 q 448 -21 529 -21 q 272 12 336 -21 q 162 119 208 44 q 117 387 117 194 l 117 1053 l 243 1053 z "},"Ɨ":{"ha":833,"x_min":117,"x_max":716,"o":"m 154 530 l 154 635 l 348 635 l 348 947 l 117 947 l 117 1053 l 716 1053 l 716 947 l 485 947 l 485 635 l 680 635 l 680 530 l 485 530 l 485 105 l 716 105 l 716 0 l 117 0 l 117 105 l 348 105 l 348 530 l 154 530 z "},"ƙ":{"ha":833,"x_min":139,"x_max":807,"o":"m 139 0 l 139 677 q 184 944 139 869 q 294 1052 230 1019 q 471 1084 359 1084 q 644 1065 551 1084 l 644 947 q 466 979 538 979 q 359 957 403 979 q 290 882 315 935 q 265 701 265 830 l 265 407 l 629 758 l 798 758 l 434 407 l 807 0 l 633 0 l 265 407 l 265 0 l 139 0 z "},"ƚ":{"ha":833,"x_min":82,"x_max":671,"o":"m 309 0 l 309 543 l 113 543 l 113 648 l 309 648 l 309 989 l 82 989 l 82 1095 l 435 1095 l 435 648 l 640 648 l 640 543 l 435 543 l 435 105 l 671 105 l 671 0 l 309 0 z "},"Ɯ":{"ha":833,"x_min":48,"x_max":785,"o":"m 785 1053 l 785 21 l 674 21 l 674 195 q 577 42 622 84 q 486 0 532 0 q 397 43 431 0 q 363 165 363 86 l 363 206 q 310 94 341 137 q 244 25 278 51 q 166 0 210 0 q 83 41 117 0 q 48 206 48 83 l 48 1053 l 159 1053 l 159 261 q 163 174 159 197 q 179 138 167 151 q 205 126 191 126 q 281 180 241 126 q 363 359 321 234 l 363 1053 l 469 1053 l 469 262 q 489 144 469 161 q 524 126 509 126 q 598 186 559 126 q 674 341 638 247 l 674 1053 l 785 1053 z "},"Ɲ":{"ha":833,"x_min":-294,"x_max":748,"o":"m 212 690 l 212 92 l 212 73 l 212 0 l 208 0 q 166 -176 199 -120 q 56 -283 121 -251 q -120 -316 -8 -316 q -294 -297 -201 -316 l -294 -179 q -115 -210 -188 -210 q -8 -188 -52 -210 q 60 -114 36 -166 q 85 49 83 -66 l 85 1053 l 209 1053 l 581 352 l 622 248 l 625 248 l 622 352 l 622 1053 l 748 1053 l 748 0 l 622 0 l 260 689 l 209 800 l 212 690 z "},"ƞ":{"ha":833,"x_min":105,"x_max":736,"o":"m 105 0 l 105 758 l 231 758 l 231 592 q 362 729 286 680 q 515 779 439 779 q 637 743 583 779 q 714 650 692 707 q 736 423 736 592 l 736 -252 l 610 -252 l 610 439 q 600 583 610 548 q 561 640 589 618 q 500 663 533 663 q 357 600 433 663 q 231 441 281 536 l 231 0 l 105 0 z "},"Ɵ":{"ha":833,"x_min":48,"x_max":785,"o":"m 416 -32 q 143 119 237 -32 q 48 526 48 270 q 143 933 48 782 q 416 1084 237 1084 q 690 933 596 1084 q 785 526 785 782 q 690 119 785 270 q 416 -32 596 -32 m 416 74 q 581 186 515 74 q 646 475 640 286 l 186 475 q 251 186 193 286 q 416 74 317 74 m 581 866 q 416 979 515 979 q 251 866 317 979 q 186 581 193 768 l 646 581 q 581 866 640 768 z "},"Ơ":{"ha":833,"x_min":48,"x_max":897,"o":"m 416 -32 q 143 119 237 -32 q 48 526 48 270 q 143 933 48 782 q 416 1084 237 1084 q 690 932 596 1084 l 694 927 q 718 937 703 931 q 716 1017 699 984 q 764 1062 734 1050 q 832 1061 799 1076 q 880 1013 866 1046 q 872 925 897 970 q 785 854 848 880 q 736 838 758 843 q 785 526 785 709 q 690 119 785 270 q 416 -32 596 -32 m 416 74 q 582 186 515 74 q 648 526 648 298 q 582 866 648 754 q 416 979 515 979 q 251 866 317 979 q 185 526 185 754 q 251 186 185 298 q 416 74 317 74 z "},"ơ":{"ha":833,"x_min":59,"x_max":883,"o":"m 417 -21 q 157 93 254 -21 q 59 379 59 206 q 157 665 59 552 q 417 779 254 779 q 677 665 579 779 q 692 647 684 656 q 705 652 697 649 q 703 732 686 699 q 751 777 720 765 q 819 776 785 791 q 866 728 852 761 q 859 641 883 686 q 772 570 835 595 q 742 558 755 563 q 774 379 774 479 q 677 93 774 206 q 417 -21 579 -21 m 417 84 q 578 163 518 84 q 637 379 637 241 q 578 595 637 516 q 417 673 518 673 q 256 595 315 673 q 196 379 196 516 q 256 163 196 241 q 417 84 315 84 z "},"ƥ":{"ha":833,"x_min":96,"x_max":756,"o":"m 222 587 q 361 730 280 682 q 509 779 441 779 q 680 696 604 779 q 756 448 756 614 q 706 213 756 316 q 571 49 655 109 q 363 -11 487 -11 q 254 -3 328 -11 q 222 0 243 -2 l 222 -294 l 96 -294 l 96 609 q 141 877 96 802 q 251 984 186 951 q 427 1017 315 1017 q 601 998 508 1017 l 601 880 q 422 911 495 911 q 315 889 359 911 q 246 814 271 867 q 222 652 223 766 l 222 587 m 222 437 l 222 113 q 348 95 290 95 q 541 185 463 95 q 619 431 619 275 q 576 601 619 544 q 479 658 534 658 q 350 598 420 658 q 222 437 279 538 z "},"Ƨ":{"ha":833,"x_min":106,"x_max":748,"o":"m 748 22 q 599 -21 656 -11 q 480 -32 543 -32 q 195 56 284 -32 q 106 265 106 143 q 279 531 106 425 l 335 564 l 401 604 l 454 635 q 559 714 518 671 q 601 821 601 757 q 547 932 601 886 q 406 979 493 979 q 180 934 296 979 l 180 1051 q 397 1084 285 1084 q 655 1003 572 1084 q 737 803 737 922 q 553 532 737 641 l 483 492 l 414 452 q 279 346 315 394 q 243 243 243 298 q 269 157 243 197 q 346 95 295 117 q 452 74 397 74 q 748 151 585 74 l 748 22 l 748 22 z "},"ƨ":{"ha":833,"x_min":114,"x_max":730,"o":"m 730 40 q 431 -21 576 -21 q 190 42 265 -21 q 114 204 114 106 q 161 330 114 279 q 326 422 209 380 l 412 454 q 538 510 499 486 q 577 575 577 534 q 532 645 577 617 q 407 673 487 673 q 172 629 297 673 l 172 743 q 402 779 281 779 q 636 718 564 779 q 709 564 709 658 q 671 452 709 498 q 494 350 635 405 l 406 315 l 363 298 q 265 244 285 266 q 245 192 245 222 q 288 115 245 146 q 425 84 330 84 q 569 104 484 84 q 730 174 654 124 l 730 40 l 730 40 z "},"Ʃ":{"ha":833,"x_min":62,"x_max":762,"o":"m 762 126 l 762 0 l 62 0 l 62 126 l 378 559 l 77 947 l 77 1053 l 735 1053 l 735 947 l 250 947 l 528 588 l 204 126 l 762 126 z "},"ƫ":{"ha":833,"x_min":65,"x_max":739,"o":"m 739 142 l 739 31 l 737 30 q 693 -176 730 -113 q 583 -283 648 -251 q 407 -316 519 -316 q 233 -297 326 -316 l 233 -179 q 412 -210 339 -210 q 519 -188 475 -210 q 587 -114 563 -166 q 609 -14 604 -80 q 532 -21 570 -21 q 387 9 453 -21 q 288 100 321 40 q 254 284 254 159 l 254 589 l 65 589 l 65 694 l 254 694 l 254 1000 l 380 1000 l 380 694 l 718 694 l 718 589 l 380 589 l 380 286 q 402 157 380 195 q 460 102 424 119 q 546 84 496 84 q 739 142 637 84 z "},"ƭ":{"ha":833,"x_min":65,"x_max":760,"o":"m 739 31 q 610 -14 650 -7 q 532 -21 570 -21 q 387 9 453 -21 q 288 100 321 40 q 254 284 254 159 l 254 589 l 65 589 l 65 694 l 254 694 l 254 728 l 255 728 q 300 944 260 880 q 410 1052 345 1019 q 586 1084 474 1084 q 760 1065 667 1084 l 760 947 q 581 979 654 979 q 474 957 518 979 q 405 882 430 935 q 380 720 382 834 l 380 694 l 718 694 l 718 589 l 380 589 l 380 286 q 402 157 380 195 q 460 102 424 119 q 546 84 496 84 q 739 142 637 84 l 739 31 z "},"Ʈ":{"ha":833,"x_min":33,"x_max":864,"o":"m 348 0 l 348 937 l 33 937 l 33 1053 l 801 1053 l 801 937 l 485 937 l 485 68 q 510 -114 485 -62 q 578 -188 534 -166 q 686 -210 623 -210 q 864 -179 758 -210 l 864 -297 q 690 -316 771 -316 q 514 -283 578 -316 q 404 -176 450 -251 q 348 0 370 -120 z "},"Ư":{"ha":833,"x_min":85,"x_max":890,"o":"m 85 1053 l 222 1053 l 222 361 q 245 175 222 225 q 288 106 268 125 q 366 87 308 87 q 451 108 427 87 q 497 190 475 130 q 520 415 520 250 l 520 1053 l 646 1053 l 646 922 q 711 937 676 923 q 710 1017 692 984 q 758 1062 727 1050 q 826 1061 792 1076 q 873 1013 859 1046 q 866 925 890 970 q 779 854 842 880 q 665 836 724 832 l 646 838 l 646 366 q 603 135 646 218 q 512 10 559 52 q 358 -32 465 -32 q 211 5 259 -32 q 124 115 163 41 q 85 379 85 188 l 85 1053 z "},"ư":{"ha":833,"x_min":97,"x_max":869,"o":"m 627 758 l 627 711 q 691 727 656 713 q 689 807 672 774 q 737 852 707 840 q 805 850 772 865 q 852 803 839 836 q 845 715 869 760 q 758 644 821 670 q 644 626 703 622 l 627 627 l 627 0 l 500 0 l 500 166 q 392 26 439 73 q 270 -21 345 -21 q 172 15 203 -21 q 119 108 140 50 q 97 334 97 166 l 97 758 l 223 758 l 223 319 q 234 175 223 210 q 252 117 244 140 q 292 95 260 95 q 405 158 359 95 q 500 316 450 220 l 500 758 l 627 758 z "},"Ʊ":{"ha":833,"x_min":22,"x_max":812,"o":"m 475 1084 l 812 1084 l 812 963 l 648 963 q 759 770 733 867 q 785 556 785 673 q 691 151 785 302 q 417 0 597 0 q 143 151 237 0 q 49 556 49 302 q 75 770 49 673 q 186 963 101 867 l 22 963 l 22 1084 l 359 1084 l 359 963 q 264 885 299 936 q 207 751 229 835 q 186 557 186 667 q 246 225 186 345 q 417 105 307 105 q 589 226 528 105 q 649 556 649 347 q 628 750 649 667 q 571 885 606 834 q 475 963 536 936 l 475 1084 z "},"Ƶ":{"ha":833,"x_min":83,"x_max":751,"o":"m 154 509 l 154 614 l 382 614 l 583 947 l 98 947 l 98 1053 l 741 1053 l 741 947 l 541 614 l 680 614 l 680 509 l 477 509 l 241 116 l 751 116 l 751 0 l 83 0 l 83 116 l 319 509 l 154 509 z "},"ƶ":{"ha":833,"x_min":90,"x_max":737,"o":"m 154 347 l 154 452 l 380 452 l 555 652 l 101 652 l 101 758 l 722 758 l 722 652 l 547 452 l 680 452 l 680 347 l 454 347 l 254 116 l 737 116 l 737 0 l 90 0 l 90 116 l 290 347 l 154 347 z "},"Ʒ":{"ha":833,"x_min":98,"x_max":743,"o":"m 477 505 l 318 505 l 583 947 l 98 947 l 98 1053 l 741 1053 l 741 947 l 534 602 q 555 590 545 596 q 693 482 644 538 q 743 311 743 426 q 630 59 743 139 q 359 -21 518 -21 q 111 23 242 -21 l 111 144 q 348 84 243 84 q 478 118 417 84 q 572 191 539 153 q 606 307 606 230 q 541 468 606 409 q 477 505 508 482 l 477 505 z "},"Ƹ":{"ha":833,"x_min":98,"x_max":743,"o":"m 364 505 q 300 468 333 482 q 235 307 235 409 q 269 191 235 230 q 363 118 302 153 q 493 84 424 84 q 730 144 597 84 l 730 23 q 481 -21 599 -21 q 211 59 323 -21 q 98 311 98 139 q 148 482 98 426 q 286 590 197 538 q 307 602 296 596 l 100 947 l 100 1053 l 743 1053 l 743 947 l 258 947 l 523 505 l 364 505 l 364 505 z "},"ƹ":{"ha":833,"x_min":98,"x_max":743,"o":"m 364 210 q 300 173 333 187 q 235 12 235 114 q 269 -104 235 -65 q 363 -177 302 -142 q 493 -211 424 -211 q 730 -151 597 -211 l 730 -272 q 481 -316 599 -316 q 211 -236 323 -316 q 98 16 98 -156 q 148 187 98 131 q 286 295 197 243 q 307 307 296 301 l 100 652 l 100 758 l 743 758 l 743 652 l 258 652 l 523 210 l 364 210 l 364 210 z "},"ƻ":{"ha":833,"x_min":101,"x_max":738,"o":"m 154 441 l 154 547 l 392 547 q 465 627 418 574 q 562 751 538 708 q 585 837 585 795 q 531 942 585 905 q 409 979 477 979 q 322 970 370 979 q 239 949 275 961 q 122 901 203 937 l 122 1013 q 293 1068 208 1053 q 435 1084 379 1084 q 586 1057 517 1084 q 688 974 654 1030 q 722 854 722 918 q 678 708 722 783 q 547 547 641 644 l 680 547 l 680 441 l 441 441 l 439 439 l 374 376 q 274 255 312 313 q 232 116 236 197 l 738 116 l 738 0 l 101 0 l 101 116 q 119 212 101 161 q 189 327 138 263 q 290 441 237 386 l 154 441 z "},"ǀ":{"ha":833,"x_min":361,"x_max":472,"o":"m 361 -32 l 361 1084 l 472 1084 l 472 -32 l 361 -32 z "},"ǁ":{"ha":833,"x_min":212,"x_max":621,"o":"m 511 -32 l 511 1084 l 621 1084 l 621 -32 l 511 -32 m 212 -32 l 212 1084 l 323 1084 l 323 -32 l 212 -32 z "},"ǂ":{"ha":833,"x_min":48,"x_max":785,"o":"m 785 652 l 785 547 l 48 547 l 48 652 l 785 652 m 785 415 l 785 310 l 48 310 l 48 415 l 785 415 m 361 -32 l 361 1084 l 472 1084 l 472 -32 l 361 -32 z "},"ǃ":{"ha":833,"x_min":319,"x_max":514,"o":"m 359 300 l 328 1053 l 496 1053 l 464 300 l 359 300 m 417 -32 q 348 -3 377 -32 q 319 66 319 26 q 348 134 319 106 q 417 163 377 163 q 485 135 456 163 q 514 66 514 106 q 485 -3 514 25 q 417 -32 456 -32 z "},"Ǆ":{"ha":833,"x_min":53,"x_max":792,"o":"m 53 0 l 53 1053 l 178 1053 q 306 992 264 1053 q 368 811 347 932 q 389 524 389 690 q 367 247 389 366 q 304 64 345 128 q 178 0 264 0 l 53 0 m 121 116 l 167 116 q 266 165 237 116 q 309 303 296 215 q 321 545 321 391 q 307 778 321 696 q 264 903 292 859 q 172 947 236 947 l 121 947 l 121 116 m 458 0 l 458 116 l 708 947 l 466 947 l 466 1053 l 787 1053 l 787 947 l 538 116 l 792 116 l 792 0 l 458 0 m 625 1275 l 673 1389 l 726 1389 l 646 1168 l 604 1168 l 526 1389 l 578 1389 l 625 1275 z "},"ǅ":{"ha":833,"x_min":53,"x_max":785,"o":"m 53 0 l 53 1053 l 178 1053 q 306 992 264 1053 q 368 811 347 932 q 389 524 389 690 q 367 247 389 366 q 304 64 345 128 q 178 0 264 0 l 53 0 m 121 116 l 167 116 q 266 165 237 116 q 309 303 296 215 q 321 545 321 391 q 307 778 321 696 q 264 903 292 859 q 172 947 236 947 l 121 947 l 121 116 m 462 0 l 462 116 l 694 652 l 467 652 l 467 758 l 778 758 l 778 652 l 544 116 l 785 116 l 785 0 l 462 0 m 625 981 l 673 1095 l 726 1095 l 646 873 l 604 873 l 526 1095 l 578 1095 l 625 981 z "},"ǆ":{"ha":833,"x_min":39,"x_max":785,"o":"m 306 170 q 236 27 277 75 q 162 -21 196 -21 q 77 61 115 -21 q 39 310 39 143 q 64 545 39 441 q 131 708 89 648 q 235 768 173 768 q 290 761 253 768 q 306 758 295 760 l 306 1095 l 369 1095 l 369 0 l 306 0 l 306 170 m 306 320 l 306 645 q 243 663 272 663 q 146 572 185 663 q 107 327 107 482 q 129 157 107 214 q 177 100 150 100 q 242 159 206 100 q 306 320 277 219 m 462 0 l 462 116 l 694 652 l 467 652 l 467 758 l 778 758 l 778 652 l 544 116 l 785 116 l 785 0 l 462 0 m 625 981 l 673 1095 l 726 1095 l 646 873 l 604 873 l 526 1095 l 578 1095 l 625 981 z "},"Ǉ":{"ha":833,"x_min":75,"x_max":741,"o":"m 359 116 l 359 0 l 75 0 l 75 1053 l 143 1053 l 143 116 l 359 116 m 454 23 l 454 152 q 578 74 528 74 q 626 94 604 74 q 660 162 647 115 q 673 367 673 210 l 673 947 l 554 947 l 554 1053 l 741 1053 l 741 363 q 722 121 741 195 q 668 8 703 47 q 580 -32 633 -32 q 454 23 519 -32 z "},"ǈ":{"ha":833,"x_min":75,"x_max":739,"o":"m 359 116 l 359 0 l 75 0 l 75 1053 l 143 1053 l 143 116 l 359 116 m 475 -297 l 475 -179 q 564 -210 528 -210 q 618 -188 596 -210 q 652 -114 640 -166 q 665 68 665 -62 l 665 652 l 504 652 l 504 758 l 728 758 l 728 92 q 705 -176 728 -101 q 650 -283 682 -251 q 562 -316 618 -316 q 475 -297 522 -316 m 654 1031 q 669 1095 654 1074 q 696 1116 683 1116 q 724 1095 709 1116 q 739 1031 739 1074 q 724 968 739 989 q 696 947 709 947 q 669 968 683 947 q 654 1031 654 989 z "},"ǉ":{"ha":833,"x_min":41,"x_max":739,"o":"m 155 0 l 155 989 l 41 989 l 41 1095 l 218 1095 l 218 105 l 336 105 l 336 0 l 155 0 m 475 -297 l 475 -179 q 564 -210 528 -210 q 618 -188 596 -210 q 652 -114 640 -166 q 665 68 665 -62 l 665 652 l 504 652 l 504 758 l 728 758 l 728 92 q 705 -176 728 -101 q 650 -283 682 -251 q 562 -316 618 -316 q 475 -297 522 -316 m 654 1031 q 669 1095 654 1074 q 696 1116 683 1116 q 724 1095 709 1116 q 739 1031 739 1074 q 724 968 739 989 q 696 947 709 947 q 669 968 683 947 q 654 1031 654 989 z "},"Ǌ":{"ha":833,"x_min":43,"x_max":741,"o":"m 106 0 l 43 0 l 43 1053 l 104 1053 l 291 352 l 311 248 l 313 248 l 311 352 l 311 1053 l 374 1053 l 374 0 l 311 0 l 130 689 l 104 800 l 106 690 l 106 0 m 454 23 l 454 152 q 578 74 528 74 q 626 94 604 74 q 660 162 647 115 q 673 367 673 210 l 673 947 l 554 947 l 554 1053 l 741 1053 l 741 363 q 722 121 741 195 q 668 8 703 47 q 580 -32 633 -32 q 454 23 519 -32 z "},"ǋ":{"ha":833,"x_min":43,"x_max":739,"o":"m 106 0 l 43 0 l 43 1053 l 104 1053 l 291 352 l 311 248 l 313 248 l 311 352 l 311 1053 l 374 1053 l 374 0 l 311 0 l 130 689 l 104 800 l 106 690 l 106 0 m 475 -297 l 475 -179 q 564 -210 528 -210 q 618 -188 596 -210 q 652 -114 640 -166 q 665 68 665 -62 l 665 652 l 504 652 l 504 758 l 728 758 l 728 92 q 705 -176 728 -101 q 650 -283 682 -251 q 562 -316 618 -316 q 475 -297 522 -316 m 654 1031 q 669 1095 654 1074 q 696 1116 683 1116 q 724 1095 709 1116 q 739 1031 739 1074 q 724 968 739 989 q 696 947 709 947 q 669 968 683 947 q 654 1031 654 989 z "},"ǌ":{"ha":833,"x_min":53,"x_max":739,"o":"m 53 0 l 53 758 l 116 758 l 116 592 q 181 729 143 680 q 258 779 220 779 q 319 743 292 779 q 357 650 347 707 q 368 423 368 592 l 368 0 l 305 0 l 305 439 q 300 583 305 548 q 281 640 295 618 q 250 663 267 663 q 179 600 217 663 q 116 441 140 536 l 116 0 l 53 0 m 475 -297 l 475 -179 q 564 -210 528 -210 q 618 -188 596 -210 q 652 -114 640 -166 q 665 68 665 -62 l 665 652 l 504 652 l 504 758 l 728 758 l 728 92 q 705 -176 728 -101 q 650 -283 682 -251 q 562 -316 618 -316 q 475 -297 522 -316 m 654 1031 q 669 1095 654 1074 q 696 1116 683 1116 q 724 1095 709 1116 q 739 1031 739 1074 q 724 968 739 989 q 696 947 709 947 q 669 968 683 947 q 654 1031 654 989 z "},"Ǎ":{"ha":833,"x_min":22,"x_max":812,"o":"m 154 0 l 22 0 l 347 1053 l 486 1053 l 812 0 l 667 0 l 595 231 l 225 231 l 154 0 m 258 336 l 565 336 l 438 736 l 408 842 l 382 736 l 258 336 m 417 1229 l 511 1343 l 617 1343 l 459 1122 l 375 1122 l 217 1343 l 322 1343 l 417 1229 z "},"ǎ":{"ha":833,"x_min":69,"x_max":758,"o":"m 603 170 q 464 27 545 75 q 315 -21 383 -21 q 145 61 220 -21 q 69 310 69 143 q 119 545 69 441 q 254 708 170 648 q 462 768 338 768 q 570 761 498 768 q 603 758 581 760 l 730 758 l 730 222 q 758 0 730 85 l 627 0 q 603 170 612 62 m 603 320 l 603 645 q 478 663 536 663 q 284 572 361 663 q 206 327 206 482 q 249 157 206 214 q 345 100 291 100 q 475 159 404 100 q 603 320 547 219 m 417 950 l 511 1064 l 617 1064 l 459 843 l 375 843 l 217 1064 l 322 1064 l 417 950 z "},"Ǐ":{"ha":833,"x_min":117,"x_max":716,"o":"m 117 0 l 117 105 l 348 105 l 348 947 l 117 947 l 117 1053 l 716 1053 l 716 947 l 485 947 l 485 105 l 716 105 l 716 0 l 117 0 m 417 1229 l 511 1343 l 617 1343 l 459 1122 l 375 1122 l 217 1343 l 322 1343 l 417 1229 z "},"ǐ":{"ha":833,"x_min":106,"x_max":654,"o":"m 317 0 l 317 652 l 106 652 l 106 758 l 443 758 l 443 105 l 654 105 l 654 0 l 317 0 m 385 939 l 479 1053 l 585 1053 l 427 832 l 343 832 l 185 1053 l 290 1053 l 385 939 z "},"Ǒ":{"ha":833,"x_min":48,"x_max":785,"o":"m 416 -32 q 143 119 237 -32 q 48 526 48 270 q 143 933 48 782 q 416 1084 237 1084 q 690 933 596 1084 q 785 526 785 782 q 690 119 785 270 q 416 -32 596 -32 m 416 74 q 582 186 515 74 q 648 526 648 298 q 582 866 648 754 q 416 979 515 979 q 251 866 317 979 q 185 526 185 754 q 251 186 185 298 q 416 74 317 74 m 417 1260 l 511 1374 l 617 1374 l 459 1153 l 375 1153 l 217 1374 l 322 1374 l 417 1260 z "},"ǒ":{"ha":833,"x_min":59,"x_max":774,"o":"m 417 -21 q 157 93 254 -21 q 59 379 59 206 q 157 665 59 552 q 417 779 254 779 q 677 665 579 779 q 774 379 774 552 q 677 93 774 206 q 417 -21 579 -21 m 417 84 q 578 163 518 84 q 637 379 637 241 q 578 595 637 516 q 417 673 518 673 q 256 595 315 673 q 196 379 196 516 q 256 163 196 241 q 417 84 315 84 m 417 960 l 511 1074 l 617 1074 l 459 853 l 375 853 l 217 1074 l 322 1074 l 417 960 z "},"Ǔ":{"ha":833,"x_min":85,"x_max":748,"o":"m 85 1053 l 222 1053 l 222 361 q 245 175 222 225 q 315 99 268 125 q 420 73 362 73 q 529 101 481 73 q 599 190 576 130 q 622 415 622 250 l 622 1053 l 748 1053 l 748 366 q 704 135 748 218 q 590 10 661 52 q 412 -32 519 -32 q 238 5 313 -32 q 124 115 163 41 q 85 379 85 188 l 85 1053 m 417 1229 l 511 1343 l 617 1343 l 459 1122 l 375 1122 l 217 1343 l 322 1343 l 417 1229 z "},"ǔ":{"ha":833,"x_min":97,"x_max":728,"o":"m 728 758 l 728 0 l 602 0 l 602 166 q 467 26 541 73 q 317 -21 392 -21 q 196 15 251 -21 q 119 108 140 50 q 97 334 97 166 l 97 758 l 223 758 l 223 319 q 234 175 223 210 q 272 117 244 140 q 333 95 300 95 q 476 158 399 95 q 602 316 552 220 l 602 758 l 728 758 m 417 939 l 511 1053 l 617 1053 l 459 832 l 375 832 l 217 1053 l 322 1053 l 417 939 z "},"Ǖ":{"ha":833,"x_min":85,"x_max":748,"o":"m 85 1053 l 222 1053 l 222 361 q 245 175 222 225 q 315 99 268 125 q 420 73 362 73 q 529 101 481 73 q 599 190 576 130 q 622 415 622 250 l 622 1053 l 748 1053 l 748 366 q 704 135 748 218 q 590 10 661 52 q 412 -32 519 -32 q 238 5 313 -32 q 124 115 163 41 q 85 379 85 188 l 85 1053 m 269 1122 q 210 1146 235 1122 q 185 1206 185 1171 q 210 1265 185 1241 q 269 1290 235 1290 q 328 1265 303 1290 q 353 1206 353 1241 q 329 1146 353 1171 q 269 1122 304 1122 m 564 1122 q 505 1146 530 1122 q 479 1206 479 1171 q 505 1265 479 1241 q 564 1290 530 1290 q 623 1265 598 1290 q 648 1206 648 1241 q 623 1146 648 1171 q 564 1122 598 1122 m 227 1359 l 227 1443 l 606 1443 l 606 1359 l 227 1359 z "},"ǖ":{"ha":833,"x_min":97,"x_max":728,"o":"m 728 758 l 728 0 l 602 0 l 602 166 q 467 26 541 73 q 317 -21 392 -21 q 196 15 251 -21 q 119 108 140 50 q 97 334 97 166 l 97 758 l 223 758 l 223 319 q 234 175 223 210 q 272 117 244 140 q 333 95 300 95 q 476 158 399 95 q 602 316 552 220 l 602 758 l 728 758 m 269 832 q 210 857 235 832 q 185 916 185 881 q 210 976 185 951 q 269 1000 235 1000 q 328 976 303 1000 q 353 916 353 951 q 329 857 353 881 q 269 832 304 832 m 564 832 q 505 857 530 832 q 479 916 479 881 q 505 976 479 951 q 564 1000 530 1000 q 623 976 598 1000 q 648 916 648 951 q 623 857 648 881 q 564 832 598 832 m 227 1064 l 227 1148 l 606 1148 l 606 1064 l 227 1064 z "},"Ǘ":{"ha":833,"x_min":85,"x_max":748,"o":"m 85 1053 l 222 1053 l 222 361 q 245 175 222 225 q 315 99 268 125 q 420 73 362 73 q 529 101 481 73 q 599 190 576 130 q 622 415 622 250 l 622 1053 l 748 1053 l 748 366 q 704 135 748 218 q 590 10 661 52 q 412 -32 519 -32 q 238 5 313 -32 q 124 115 163 41 q 85 379 85 188 l 85 1053 m 269 1122 q 210 1146 235 1122 q 185 1206 185 1171 q 210 1265 185 1241 q 269 1290 235 1290 q 328 1265 303 1290 q 353 1206 353 1241 q 329 1146 353 1171 q 269 1122 304 1122 m 564 1122 q 505 1146 530 1122 q 479 1206 479 1171 q 505 1265 479 1241 q 564 1290 530 1290 q 623 1265 598 1290 q 648 1206 648 1241 q 623 1146 648 1171 q 564 1122 598 1122 m 243 1359 l 444 1580 l 590 1580 l 358 1359 l 243 1359 z "},"ǘ":{"ha":833,"x_min":97,"x_max":728,"o":"m 728 758 l 728 0 l 602 0 l 602 166 q 467 26 541 73 q 317 -21 392 -21 q 196 15 251 -21 q 119 108 140 50 q 97 334 97 166 l 97 758 l 223 758 l 223 319 q 234 175 223 210 q 272 117 244 140 q 333 95 300 95 q 476 158 399 95 q 602 316 552 220 l 602 758 l 728 758 m 269 832 q 210 857 235 832 q 185 916 185 881 q 210 976 185 951 q 269 1000 235 1000 q 328 976 303 1000 q 353 916 353 951 q 329 857 353 881 q 269 832 304 832 m 564 832 q 505 857 530 832 q 479 916 479 881 q 505 976 479 951 q 564 1000 530 1000 q 623 976 598 1000 q 648 916 648 951 q 623 857 648 881 q 564 832 598 832 m 239 1064 l 439 1285 l 586 1285 l 354 1064 l 239 1064 z "},"Ǚ":{"ha":833,"x_min":85,"x_max":748,"o":"m 85 1053 l 222 1053 l 222 361 q 245 175 222 225 q 315 99 268 125 q 420 73 362 73 q 529 101 481 73 q 599 190 576 130 q 622 415 622 250 l 622 1053 l 748 1053 l 748 366 q 704 135 748 218 q 590 10 661 52 q 412 -32 519 -32 q 238 5 313 -32 q 124 115 163 41 q 85 379 85 188 l 85 1053 m 269 1122 q 210 1146 235 1122 q 185 1206 185 1171 q 210 1265 185 1241 q 269 1290 235 1290 q 328 1265 303 1290 q 353 1206 353 1241 q 329 1146 353 1171 q 269 1122 304 1122 m 564 1122 q 505 1146 530 1122 q 479 1206 479 1171 q 505 1265 479 1241 q 564 1290 530 1290 q 623 1265 598 1290 q 648 1206 648 1241 q 623 1146 648 1171 q 564 1122 598 1122 m 417 1466 l 511 1580 l 617 1580 l 459 1359 l 375 1359 l 217 1580 l 322 1580 l 417 1466 z "},"ǚ":{"ha":833,"x_min":97,"x_max":728,"o":"m 728 758 l 728 0 l 602 0 l 602 166 q 467 26 541 73 q 317 -21 392 -21 q 196 15 251 -21 q 119 108 140 50 q 97 334 97 166 l 97 758 l 223 758 l 223 319 q 234 175 223 210 q 272 117 244 140 q 333 95 300 95 q 476 158 399 95 q 602 316 552 220 l 602 758 l 728 758 m 269 832 q 210 857 235 832 q 185 916 185 881 q 210 976 185 951 q 269 1000 235 1000 q 328 976 303 1000 q 353 916 353 951 q 329 857 353 881 q 269 832 304 832 m 564 832 q 505 857 530 832 q 479 916 479 881 q 505 976 479 951 q 564 1000 530 1000 q 623 976 598 1000 q 648 916 648 951 q 623 857 648 881 q 564 832 598 832 m 417 1171 l 511 1285 l 617 1285 l 459 1064 l 375 1064 l 217 1285 l 322 1285 l 417 1171 z "},"Ǜ":{"ha":833,"x_min":85,"x_max":748,"o":"m 85 1053 l 222 1053 l 222 361 q 245 175 222 225 q 315 99 268 125 q 420 73 362 73 q 529 101 481 73 q 599 190 576 130 q 622 415 622 250 l 622 1053 l 748 1053 l 748 366 q 704 135 748 218 q 590 10 661 52 q 412 -32 519 -32 q 238 5 313 -32 q 124 115 163 41 q 85 379 85 188 l 85 1053 m 269 1122 q 210 1146 235 1122 q 185 1206 185 1171 q 210 1265 185 1241 q 269 1290 235 1290 q 328 1265 303 1290 q 353 1206 353 1241 q 329 1146 353 1171 q 269 1122 304 1122 m 564 1122 q 505 1146 530 1122 q 479 1206 479 1171 q 505 1265 479 1241 q 564 1290 530 1290 q 623 1265 598 1290 q 648 1206 648 1241 q 623 1146 648 1171 q 564 1122 598 1122 m 590 1359 l 475 1359 l 243 1580 l 389 1580 l 590 1359 z "},"ǜ":{"ha":833,"x_min":97,"x_max":728,"o":"m 728 758 l 728 0 l 602 0 l 602 166 q 467 26 541 73 q 317 -21 392 -21 q 196 15 251 -21 q 119 108 140 50 q 97 334 97 166 l 97 758 l 223 758 l 223 319 q 234 175 223 210 q 272 117 244 140 q 333 95 300 95 q 476 158 399 95 q 602 316 552 220 l 602 758 l 728 758 m 269 832 q 210 857 235 832 q 185 916 185 881 q 210 976 185 951 q 269 1000 235 1000 q 328 976 303 1000 q 353 916 353 951 q 329 857 353 881 q 269 832 304 832 m 564 832 q 505 857 530 832 q 479 916 479 881 q 505 976 479 951 q 564 1000 530 1000 q 623 976 598 1000 q 648 916 648 951 q 623 857 648 881 q 564 832 598 832 m 586 1064 l 471 1064 l 239 1285 l 385 1285 l 586 1064 z "},"ǝ":{"ha":833,"x_min":88,"x_max":746,"o":"m 99 707 q 385 779 250 779 q 568 728 488 779 q 697 582 649 677 q 746 380 746 488 q 700 180 746 276 q 571 32 654 85 q 387 -22 488 -22 q 170 75 252 -22 q 88 372 88 171 l 88 399 l 610 399 q 577 543 610 477 q 491 640 545 608 q 369 673 437 673 q 99 591 247 673 l 99 707 m 603 304 l 225 304 l 225 286 q 271 138 225 193 q 392 83 316 83 q 525 139 469 83 q 603 304 581 195 z "},"Ǟ":{"ha":833,"x_min":22,"x_max":812,"o":"m 154 0 l 22 0 l 347 1053 l 486 1053 l 812 0 l 667 0 l 595 231 l 225 231 l 154 0 m 258 336 l 565 336 l 438 736 l 408 842 l 382 736 l 258 336 m 270 1122 q 211 1146 235 1122 q 186 1206 186 1171 q 211 1265 186 1241 q 270 1290 236 1290 q 329 1265 304 1290 q 354 1206 354 1241 q 329 1146 354 1171 q 270 1122 304 1122 m 565 1122 q 505 1146 530 1122 q 480 1206 480 1171 q 506 1265 480 1241 q 565 1290 531 1290 q 624 1265 599 1290 q 649 1206 649 1241 q 624 1146 649 1171 q 565 1122 599 1122 m 228 1359 l 228 1443 l 607 1443 l 607 1359 l 228 1359 z "},"ǟ":{"ha":833,"x_min":69,"x_max":758,"o":"m 603 170 q 464 27 545 75 q 315 -21 383 -21 q 145 61 220 -21 q 69 310 69 143 q 119 545 69 441 q 254 708 170 648 q 462 768 338 768 q 570 761 498 768 q 603 758 581 760 l 730 758 l 730 222 q 758 0 730 85 l 627 0 q 603 170 612 62 m 603 320 l 603 645 q 478 663 536 663 q 284 572 361 663 q 206 327 206 482 q 249 157 206 214 q 345 100 291 100 q 475 159 404 100 q 603 320 547 219 m 269 843 q 210 867 235 843 q 185 927 185 892 q 210 987 185 962 q 269 1011 235 1011 q 328 987 303 1011 q 353 927 353 962 q 329 867 353 892 q 269 843 304 843 m 564 843 q 505 867 530 843 q 479 927 479 892 q 505 987 479 962 q 564 1011 530 1011 q 623 987 598 1011 q 648 927 648 962 q 623 867 648 892 q 564 843 598 843 m 227 1075 l 227 1159 l 606 1159 l 606 1075 l 227 1075 z "},"Ǡ":{"ha":833,"x_min":22,"x_max":812,"o":"m 154 0 l 22 0 l 347 1053 l 486 1053 l 812 0 l 667 0 l 595 231 l 225 231 l 154 0 m 258 336 l 565 336 l 438 736 l 408 842 l 382 736 l 258 336 m 418 1175 q 359 1199 383 1175 q 334 1257 334 1223 q 359 1316 334 1292 q 418 1341 384 1341 q 476 1316 451 1341 q 500 1257 500 1292 q 476 1199 500 1223 q 418 1175 452 1175 m 228 1412 l 228 1496 l 607 1496 l 607 1412 l 228 1412 z "},"ǡ":{"ha":833,"x_min":69,"x_max":758,"o":"m 603 170 q 464 27 545 75 q 315 -21 383 -21 q 145 61 220 -21 q 69 310 69 143 q 119 545 69 441 q 254 708 170 648 q 462 768 338 768 q 570 761 498 768 q 603 758 581 760 l 730 758 l 730 222 q 758 0 730 85 l 627 0 q 603 170 612 62 m 603 320 l 603 645 q 478 663 536 663 q 284 572 361 663 q 206 327 206 482 q 249 157 206 214 q 345 100 291 100 q 475 159 404 100 q 603 320 547 219 m 417 896 q 358 920 382 896 q 334 979 334 944 q 358 1038 334 1013 q 417 1062 383 1062 q 475 1038 450 1062 q 500 979 500 1013 q 475 920 500 944 q 417 896 451 896 m 227 1128 l 227 1212 l 606 1212 l 606 1128 l 227 1128 z "},"Ǣ":{"ha":833,"x_min":1,"x_max":801,"o":"m 433 0 l 433 252 l 220 252 l 117 0 l 1 0 l 433 1053 l 801 1053 l 801 947 l 559 947 l 559 584 l 791 584 l 791 479 l 559 479 l 559 116 l 801 116 l 801 0 l 433 0 m 258 347 l 433 347 l 433 769 l 258 347 m 217 1122 l 217 1206 l 596 1206 l 596 1122 l 217 1122 z "},"ǣ":{"ha":833,"x_min":43,"x_max":791,"o":"m 401 153 q 320 22 366 65 q 231 -21 274 -21 q 99 77 155 -21 q 43 328 43 174 q 81 565 43 463 q 181 722 119 666 q 316 779 244 779 q 367 773 340 779 q 415 761 393 768 q 469 730 436 753 q 545 773 518 767 q 593 779 572 779 q 735 702 680 779 q 791 397 791 625 l 791 363 l 517 363 l 517 307 q 532 165 517 206 q 576 104 547 124 q 640 84 604 84 q 791 138 708 84 l 791 22 q 618 -21 695 -21 q 526 -4 568 -21 q 453 48 484 14 q 401 153 422 83 m 391 319 l 391 650 q 359 668 374 662 q 328 673 343 673 q 209 562 249 673 q 170 314 170 450 q 192 176 170 234 q 249 121 214 119 q 391 319 320 125 m 517 452 l 664 452 l 664 474 q 646 633 664 593 q 592 673 627 673 q 536 624 555 673 q 517 474 517 574 l 517 452 m 228 853 l 228 937 l 607 937 l 607 853 l 228 853 z "},"Ǥ":{"ha":833,"x_min":80,"x_max":823,"o":"m 432 211 l 432 316 l 601 316 l 601 416 l 496 416 l 496 521 l 738 521 l 738 316 l 823 316 l 823 211 l 738 211 l 738 1 q 534 -32 627 -32 q 299 33 402 -32 q 138 230 197 98 q 80 526 80 361 q 137 820 80 690 q 298 1017 194 950 q 526 1084 401 1084 q 737 1040 619 1084 l 737 916 q 520 979 628 979 q 371 923 439 979 q 263 760 304 867 q 222 525 222 652 q 300 214 222 354 q 546 73 378 73 q 601 77 568 73 l 601 211 l 432 211 z "},"ǥ":{"ha":833,"x_min":77,"x_max":829,"o":"m 611 170 q 472 27 553 75 q 323 -21 391 -21 q 153 61 229 -21 q 77 310 77 143 q 127 545 77 441 q 262 708 178 648 q 470 768 346 768 q 578 761 506 768 q 611 758 589 760 l 738 758 l 738 479 l 829 479 l 829 374 l 738 374 l 738 222 q 733 -12 738 31 q 716 -98 728 -54 q 592 -257 689 -199 q 359 -315 496 -315 q 80 -245 221 -315 l 80 -117 q 212 -182 134 -154 q 363 -210 290 -210 q 473 -192 421 -210 q 556 -139 524 -174 q 600 -59 588 -104 q 611 63 611 -13 l 611 170 m 611 320 l 611 374 l 507 374 l 507 479 l 611 479 l 611 645 q 486 663 544 663 q 292 572 370 663 q 214 327 214 482 q 257 157 214 214 q 353 100 299 100 q 484 159 412 100 q 611 320 555 219 z "},"Ǧ":{"ha":833,"x_min":80,"x_max":738,"o":"m 738 1 q 534 -32 627 -32 q 299 33 402 -32 q 138 230 197 98 q 80 526 80 361 q 137 820 80 690 q 298 1017 194 950 q 526 1084 401 1084 q 737 1040 619 1084 l 737 916 q 520 979 628 979 q 371 923 439 979 q 263 760 304 867 q 222 525 222 652 q 300 214 222 354 q 546 73 378 73 q 601 77 568 73 l 601 416 l 496 416 l 496 521 l 738 521 l 738 1 m 414 1261 l 509 1375 l 614 1375 l 456 1154 l 372 1154 l 214 1375 l 319 1375 l 414 1261 z "},"ǧ":{"ha":833,"x_min":77,"x_max":738,"o":"m 611 170 q 472 27 553 75 q 323 -21 391 -21 q 153 61 229 -21 q 77 310 77 143 q 127 545 77 441 q 262 708 178 648 q 470 768 346 768 q 578 761 506 768 q 611 758 589 760 l 738 758 l 738 222 q 733 -12 738 31 q 716 -98 728 -54 q 592 -257 689 -199 q 359 -315 496 -315 q 80 -245 221 -315 l 80 -117 q 212 -182 134 -154 q 363 -210 290 -210 q 473 -192 421 -210 q 556 -139 524 -174 q 600 -59 588 -104 q 611 63 611 -13 l 611 170 m 611 320 l 611 645 q 486 663 544 663 q 292 572 370 663 q 214 327 214 482 q 257 157 214 214 q 353 100 299 100 q 484 159 412 100 q 611 320 555 219 m 413 950 l 507 1064 l 613 1064 l 455 843 l 371 843 l 213 1064 l 318 1064 l 413 950 z "},"Ǩ":{"ha":833,"x_min":106,"x_max":833,"o":"m 106 0 l 106 1053 l 243 1053 l 243 536 l 635 1053 l 780 1053 l 402 553 l 833 0 l 661 0 l 243 536 l 243 0 l 106 0 m 469 1229 l 564 1343 l 669 1343 l 511 1122 l 427 1122 l 269 1343 l 374 1343 l 469 1229 z "},"ǩ":{"ha":833,"x_min":139,"x_max":807,"o":"m 139 0 l 139 1095 l 265 1095 l 265 407 l 629 758 l 798 758 l 434 407 l 807 0 l 633 0 l 265 407 l 265 0 l 139 0 m 473 1271 l 567 1385 l 673 1385 l 515 1164 l 431 1164 l 273 1385 l 378 1385 l 473 1271 z "},"Ǫ":{"ha":833,"x_min":48,"x_max":785,"o":"m 416 -32 q 143 119 237 -32 q 48 526 48 270 q 143 933 48 782 q 416 1084 237 1084 q 690 933 596 1084 q 785 526 785 782 q 690 119 785 270 q 416 -32 596 -32 m 416 74 q 582 186 515 74 q 648 526 648 298 q 582 866 648 754 q 416 979 515 979 q 251 866 317 979 q 185 526 185 754 q 251 186 185 298 q 416 74 317 74 m 532 -26 q 434 -106 471 -55 q 396 -189 396 -157 q 415 -229 396 -210 q 478 -248 434 -248 q 532 -235 502 -248 l 532 -301 q 446 -321 488 -321 q 342 -287 383 -321 q 301 -201 301 -253 q 401 -26 301 -119 l 532 -26 z "},"ǫ":{"ha":833,"x_min":59,"x_max":774,"o":"m 417 -21 q 157 93 254 -21 q 59 379 59 206 q 157 665 59 552 q 417 779 254 779 q 677 665 579 779 q 774 379 774 552 q 677 93 774 206 q 417 -21 579 -21 m 417 84 q 578 163 518 84 q 637 379 637 241 q 578 595 637 516 q 417 673 518 673 q 256 595 315 673 q 196 379 196 516 q 256 163 196 241 q 417 84 315 84 m 532 -16 q 434 -95 471 -44 q 396 -178 396 -146 q 415 -218 396 -199 q 478 -237 434 -237 q 532 -224 502 -237 l 532 -290 q 446 -310 488 -310 q 342 -276 383 -310 q 301 -190 301 -242 q 401 -16 301 -108 l 532 -16 z "},"Ǭ":{"ha":833,"x_min":48,"x_max":785,"o":"m 416 -32 q 143 119 237 -32 q 48 526 48 270 q 143 933 48 782 q 416 1084 237 1084 q 690 933 596 1084 q 785 526 785 782 q 690 119 785 270 q 416 -32 596 -32 m 416 74 q 582 186 515 74 q 648 526 648 298 q 582 866 648 754 q 416 979 515 979 q 251 866 317 979 q 185 526 185 754 q 251 186 185 298 q 416 74 317 74 m 532 -26 q 434 -106 471 -55 q 396 -189 396 -157 q 415 -229 396 -210 q 478 -248 434 -248 q 532 -235 502 -248 l 532 -301 q 446 -321 488 -321 q 342 -287 383 -321 q 301 -201 301 -253 q 401 -26 301 -119 l 532 -26 m 227 1153 l 227 1237 l 606 1237 l 606 1153 l 227 1153 z "},"ǭ":{"ha":833,"x_min":59,"x_max":774,"o":"m 417 -21 q 157 93 254 -21 q 59 379 59 206 q 157 665 59 552 q 417 779 254 779 q 677 665 579 779 q 774 379 774 552 q 677 93 774 206 q 417 -21 579 -21 m 417 84 q 578 163 518 84 q 637 379 637 241 q 578 595 637 516 q 417 673 518 673 q 256 595 315 673 q 196 379 196 516 q 256 163 196 241 q 417 84 315 84 m 532 -16 q 434 -95 471 -44 q 396 -178 396 -146 q 415 -218 396 -199 q 478 -237 434 -237 q 532 -224 502 -237 l 532 -290 q 446 -310 488 -310 q 342 -276 383 -310 q 301 -190 301 -242 q 401 -16 301 -108 l 532 -16 m 227 853 l 227 937 l 606 937 l 606 853 l 227 853 z "},"Ǯ":{"ha":833,"x_min":98,"x_max":743,"o":"m 477 505 l 318 505 l 583 947 l 98 947 l 98 1053 l 741 1053 l 741 947 l 534 602 q 555 590 545 596 q 693 482 644 538 q 743 311 743 426 q 630 59 743 139 q 359 -21 518 -21 q 111 23 242 -21 l 111 144 q 348 84 243 84 q 478 118 417 84 q 572 191 539 153 q 606 307 606 230 q 541 468 606 409 q 477 505 508 482 l 477 505 m 417 1286 l 511 1400 l 617 1400 l 459 1179 l 375 1179 l 217 1400 l 322 1400 l 417 1286 z "},"ǯ":{"ha":833,"x_min":98,"x_max":743,"o":"m 477 210 l 318 210 l 583 652 l 98 652 l 98 758 l 741 758 l 741 652 l 534 307 q 555 295 545 301 q 693 187 644 243 q 743 16 743 131 q 630 -236 743 -156 q 359 -316 518 -316 q 111 -272 242 -316 l 111 -151 q 348 -211 243 -211 q 478 -177 417 -211 q 572 -104 539 -142 q 606 12 606 -65 q 541 173 606 114 q 477 210 508 187 l 477 210 m 417 981 l 511 1095 l 617 1095 l 459 873 l 375 873 l 217 1095 l 322 1095 l 417 981 z "},"ǰ":{"ha":833,"x_min":117,"x_max":650,"o":"m 117 -297 l 117 -179 q 295 -210 222 -210 q 402 -188 358 -210 q 471 -114 446 -166 q 496 68 496 -62 l 496 652 l 174 652 l 174 758 l 622 758 l 622 92 q 576 -176 622 -101 q 467 -283 531 -251 q 290 -316 402 -316 q 117 -297 210 -316 m 450 1021 l 544 1135 l 650 1135 l 492 913 l 408 913 l 250 1135 l 355 1135 l 450 1021 z "},"Ǳ":{"ha":833,"x_min":53,"x_max":792,"o":"m 53 0 l 53 1053 l 178 1053 q 306 992 264 1053 q 368 811 347 932 q 389 524 389 690 q 367 247 389 366 q 304 64 345 128 q 178 0 264 0 l 53 0 m 121 116 l 167 116 q 266 165 237 116 q 309 303 296 215 q 321 545 321 391 q 307 778 321 696 q 264 903 292 859 q 172 947 236 947 l 121 947 l 121 116 m 458 0 l 458 116 l 708 947 l 466 947 l 466 1053 l 787 1053 l 787 947 l 538 116 l 792 116 l 792 0 l 458 0 z "},"ǲ":{"ha":833,"x_min":53,"x_max":785,"o":"m 53 0 l 53 1053 l 178 1053 q 306 992 264 1053 q 368 811 347 932 q 389 524 389 690 q 367 247 389 366 q 304 64 345 128 q 178 0 264 0 l 53 0 m 121 116 l 167 116 q 266 165 237 116 q 309 303 296 215 q 321 545 321 391 q 307 778 321 696 q 264 903 292 859 q 172 947 236 947 l 121 947 l 121 116 m 462 0 l 462 116 l 694 652 l 467 652 l 467 758 l 778 758 l 778 652 l 544 116 l 785 116 l 785 0 l 462 0 z "},"ǳ":{"ha":833,"x_min":39,"x_max":785,"o":"m 306 170 q 236 27 277 75 q 162 -21 196 -21 q 77 61 115 -21 q 39 310 39 143 q 64 545 39 441 q 131 708 89 648 q 235 768 173 768 q 290 761 253 768 q 306 758 295 760 l 306 1095 l 369 1095 l 369 0 l 306 0 l 306 170 m 306 320 l 306 645 q 243 663 272 663 q 146 572 185 663 q 107 327 107 482 q 129 157 107 214 q 177 100 150 100 q 242 159 206 100 q 306 320 277 219 m 462 0 l 462 116 l 694 652 l 467 652 l 467 758 l 778 758 l 778 652 l 544 116 l 785 116 l 785 0 l 462 0 z "},"Ǵ":{"ha":833,"x_min":80,"x_max":738,"o":"m 738 1 q 534 -32 627 -32 q 299 33 402 -32 q 138 230 197 98 q 80 526 80 361 q 137 820 80 690 q 298 1017 194 950 q 526 1084 401 1084 q 737 1040 619 1084 l 737 916 q 520 979 628 979 q 371 923 439 979 q 263 760 304 867 q 222 525 222 652 q 300 214 222 354 q 546 73 378 73 q 601 77 568 73 l 601 416 l 496 416 l 496 521 l 738 521 l 738 1 m 235 1154 l 436 1375 l 583 1375 l 351 1154 l 235 1154 z "},"ǵ":{"ha":833,"x_min":77,"x_max":738,"o":"m 611 170 q 472 27 553 75 q 323 -21 391 -21 q 153 61 229 -21 q 77 310 77 143 q 127 545 77 441 q 262 708 178 648 q 470 768 346 768 q 578 761 506 768 q 611 758 589 760 l 738 758 l 738 222 q 733 -12 738 31 q 716 -98 728 -54 q 592 -257 689 -199 q 359 -315 496 -315 q 80 -245 221 -315 l 80 -117 q 212 -182 134 -154 q 363 -210 290 -210 q 473 -192 421 -210 q 556 -139 524 -174 q 600 -59 588 -104 q 611 63 611 -13 l 611 170 m 611 320 l 611 645 q 486 663 544 663 q 292 572 370 663 q 214 327 214 482 q 257 157 214 214 q 353 100 299 100 q 484 159 412 100 q 611 320 555 219 m 312 843 l 513 1064 l 659 1064 l 427 843 l 312 843 z "},"Ǹ":{"ha":833,"x_min":85,"x_max":748,"o":"m 212 0 l 85 0 l 85 1053 l 209 1053 l 581 352 l 622 248 l 625 248 l 622 352 l 622 1053 l 748 1053 l 748 0 l 622 0 l 260 689 l 209 800 l 212 690 l 212 0 m 590 1122 l 475 1122 l 243 1343 l 389 1343 l 590 1122 z "},"ǹ":{"ha":833,"x_min":105,"x_max":736,"o":"m 105 0 l 105 758 l 231 758 l 231 592 q 362 729 286 680 q 515 779 439 779 q 637 743 583 779 q 714 650 692 707 q 736 423 736 592 l 736 0 l 610 0 l 610 439 q 600 583 610 548 q 561 640 589 618 q 500 663 533 663 q 357 600 433 663 q 231 441 281 536 l 231 0 l 105 0 m 594 853 l 479 853 l 247 1074 l 393 1074 l 594 853 z "},"Ǻ":{"ha":833,"x_min":22,"x_max":812,"o":"m 154 0 l 22 0 l 347 1053 l 486 1053 l 812 0 l 667 0 l 595 231 l 225 231 l 154 0 m 258 336 l 565 336 l 438 736 l 408 842 l 382 736 l 258 336 m 417 1185 q 462 1203 444 1185 q 480 1248 480 1222 q 462 1292 480 1274 q 417 1311 444 1311 q 373 1292 391 1311 q 354 1248 354 1274 q 373 1203 354 1222 q 417 1185 391 1185 m 417 1122 q 328 1160 364 1122 q 291 1248 291 1198 q 328 1336 291 1299 q 417 1374 365 1374 q 507 1336 470 1374 q 543 1248 543 1299 q 507 1160 543 1198 q 417 1122 470 1122 m 243 1443 l 444 1664 l 591 1664 l 359 1443 l 243 1443 z "},"ǻ":{"ha":833,"x_min":69,"x_max":758,"o":"m 603 170 q 464 27 545 75 q 315 -21 383 -21 q 145 61 220 -21 q 69 310 69 143 q 119 545 69 441 q 254 708 170 648 q 462 768 338 768 q 570 761 498 768 q 603 758 581 760 l 730 758 l 730 222 q 758 0 730 85 l 627 0 q 603 170 612 62 m 603 320 l 603 645 q 478 663 536 663 q 284 572 361 663 q 206 327 206 482 q 249 157 206 214 q 345 100 291 100 q 475 159 404 100 q 603 320 547 219 m 416 906 q 461 925 443 906 q 479 969 479 943 q 461 1014 479 995 q 416 1032 443 1032 q 372 1014 391 1032 q 353 969 353 995 q 372 925 353 943 q 416 906 391 906 m 416 843 q 327 881 363 843 q 290 969 290 919 q 327 1058 290 1020 q 416 1095 364 1095 q 506 1058 469 1095 q 543 969 543 1020 q 506 881 543 919 q 416 843 469 843 m 240 1159 l 441 1380 l 587 1380 l 355 1159 l 240 1159 z "},"Ǽ":{"ha":833,"x_min":1,"x_max":801,"o":"m 433 0 l 433 252 l 220 252 l 117 0 l 1 0 l 433 1053 l 801 1053 l 801 947 l 559 947 l 559 584 l 791 584 l 791 479 l 559 479 l 559 116 l 801 116 l 801 0 l 433 0 m 258 347 l 433 347 l 433 769 l 258 347 m 227 1122 l 428 1343 l 574 1343 l 342 1122 l 227 1122 z "},"ǽ":{"ha":833,"x_min":43,"x_max":791,"o":"m 401 153 q 320 22 366 65 q 231 -21 274 -21 q 99 77 155 -21 q 43 328 43 174 q 81 565 43 463 q 181 722 119 666 q 316 779 244 779 q 367 773 340 779 q 415 761 393 768 q 469 730 436 753 q 545 773 518 767 q 593 779 572 779 q 735 702 680 779 q 791 397 791 625 l 791 363 l 517 363 l 517 307 q 532 165 517 206 q 576 104 547 124 q 640 84 604 84 q 791 138 708 84 l 791 22 q 618 -21 695 -21 q 526 -4 568 -21 q 453 48 484 14 q 401 153 422 83 m 391 319 l 391 650 q 359 668 374 662 q 328 673 343 673 q 209 562 249 673 q 170 314 170 450 q 192 176 170 234 q 249 121 214 119 q 391 319 320 125 m 517 452 l 664 452 l 664 474 q 646 633 664 593 q 592 673 627 673 q 536 624 555 673 q 517 474 517 574 l 517 452 m 243 853 l 444 1074 l 591 1074 l 359 853 l 243 853 z "},"Ǿ":{"ha":833,"x_min":48,"x_max":785,"o":"m 142 -74 l 48 -74 l 149 113 q 87 242 106 181 q 59 376 69 302 q 48 532 48 450 q 148 943 48 802 q 413 1084 248 1084 q 489 1076 450 1084 q 558 1055 528 1068 q 631 1009 589 1042 l 694 1126 l 785 1126 l 688 941 q 747 815 730 871 q 775 679 765 760 q 785 519 785 597 q 740 223 785 350 q 617 32 694 96 q 410 -32 541 -32 q 312 -19 354 -32 q 208 47 271 -6 l 142 -74 m 218 244 l 574 901 q 493 965 532 951 q 416 979 454 979 q 249 860 312 979 q 185 535 185 742 q 187 436 185 503 q 195 334 189 369 q 218 244 201 300 m 618 810 l 264 153 q 338 91 300 108 q 413 74 376 74 q 589 199 531 74 q 648 527 648 324 q 646 621 648 562 q 638 716 644 679 q 618 810 633 753 m 243 1195 l 444 1416 l 590 1416 l 358 1195 l 243 1195 z "},"ǿ":{"ha":833,"x_min":59,"x_max":774,"o":"m 160 -63 l 59 -63 l 161 87 q 59 382 59 215 q 151 663 59 547 q 416 779 242 779 q 484 774 450 779 q 544 760 517 769 q 609 729 571 751 l 673 821 l 774 821 l 673 675 q 774 379 774 544 q 685 99 774 218 q 416 -21 595 -21 q 333 -14 374 -21 q 225 30 292 -7 l 160 -63 m 231 190 l 546 640 q 417 673 486 673 q 253 595 309 673 q 196 382 196 517 q 231 190 196 281 m 603 573 l 288 120 q 410 84 353 84 q 586 167 534 84 q 637 376 637 250 q 603 573 637 484 m 243 890 l 444 1111 l 590 1111 l 358 890 l 243 890 z "},"Ȁ":{"ha":833,"x_min":22,"x_max":812,"o":"m 154 0 l 22 0 l 347 1053 l 486 1053 l 812 0 l 667 0 l 595 231 l 225 231 l 154 0 m 258 336 l 565 336 l 438 736 l 408 842 l 382 736 l 258 336 m 380 1343 l 463 1343 l 559 1122 l 481 1122 l 380 1343 m 191 1343 l 277 1343 l 375 1122 l 295 1122 l 191 1343 z "},"ȁ":{"ha":833,"x_min":69,"x_max":758,"o":"m 603 170 q 464 27 545 75 q 315 -21 383 -21 q 145 61 220 -21 q 69 310 69 143 q 119 545 69 441 q 254 708 170 648 q 462 768 338 768 q 570 761 498 768 q 603 758 581 760 l 730 758 l 730 222 q 758 0 730 85 l 627 0 q 603 170 612 62 m 603 320 l 603 645 q 478 663 536 663 q 284 572 361 663 q 206 327 206 482 q 249 157 206 214 q 345 100 291 100 q 475 159 404 100 q 603 320 547 219 m 376 1065 l 460 1065 l 556 844 l 477 844 l 376 1065 m 188 1065 l 273 1065 l 372 844 l 292 844 l 188 1065 z "},"Ȃ":{"ha":833,"x_min":22,"x_max":812,"o":"m 154 0 l 22 0 l 347 1053 l 486 1053 l 812 0 l 667 0 l 595 231 l 225 231 l 154 0 m 258 336 l 565 336 l 438 736 l 408 842 l 382 736 l 258 336 m 217 1122 q 256 1243 226 1197 q 329 1316 286 1290 q 418 1343 372 1343 q 506 1316 463 1343 q 579 1243 549 1290 q 617 1122 609 1197 l 530 1122 q 492 1213 524 1173 q 418 1253 459 1253 q 343 1214 376 1253 q 304 1122 310 1174 l 217 1122 z "},"ȃ":{"ha":833,"x_min":69,"x_max":758,"o":"m 603 170 q 464 27 545 75 q 315 -21 383 -21 q 145 61 220 -21 q 69 310 69 143 q 119 545 69 441 q 254 708 170 648 q 462 768 338 768 q 570 761 498 768 q 603 758 581 760 l 730 758 l 730 222 q 758 0 730 85 l 627 0 q 603 170 612 62 m 603 320 l 603 645 q 478 663 536 663 q 284 572 361 663 q 206 327 206 482 q 249 157 206 214 q 345 100 291 100 q 475 159 404 100 q 603 320 547 219 m 264 842 q 303 964 273 918 q 377 1037 334 1010 q 465 1063 420 1063 q 553 1037 511 1063 q 626 964 596 1010 q 665 842 656 918 l 578 842 q 539 933 572 893 q 465 974 507 974 q 391 934 424 974 q 351 842 357 895 l 264 842 z "},"Ȅ":{"ha":833,"x_min":138,"x_max":706,"o":"m 706 116 l 706 0 l 138 0 l 138 1053 l 695 1053 l 695 947 l 275 947 l 275 589 l 653 589 l 653 484 l 275 484 l 275 116 l 706 116 m 385 1343 l 468 1343 l 564 1122 l 486 1122 l 385 1343 m 196 1343 l 281 1343 l 380 1122 l 300 1122 l 196 1343 z "},"ȅ":{"ha":833,"x_min":88,"x_max":746,"o":"m 735 50 q 449 -22 584 -22 q 266 29 347 -22 q 137 175 185 80 q 88 377 88 269 q 134 576 88 481 q 263 725 180 672 q 448 779 346 779 q 664 682 583 779 q 746 385 746 586 l 746 358 l 224 358 q 257 214 224 279 q 343 117 290 149 q 465 84 397 84 q 735 165 587 84 l 735 50 m 231 452 l 609 452 l 609 471 q 564 618 609 564 q 442 673 518 673 q 310 617 366 673 q 231 452 254 562 m 427 1075 l 511 1075 l 607 854 l 528 854 l 427 1075 m 239 1075 l 324 1075 l 422 854 l 342 854 l 239 1075 z "},"Ȇ":{"ha":833,"x_min":138,"x_max":706,"o":"m 706 116 l 706 0 l 138 0 l 138 1053 l 695 1053 l 695 947 l 275 947 l 275 589 l 653 589 l 653 484 l 275 484 l 275 116 l 706 116 m 222 1122 q 261 1243 231 1197 q 334 1316 291 1290 q 422 1343 377 1343 q 511 1316 468 1343 q 584 1243 553 1290 q 622 1122 614 1197 l 535 1122 q 496 1213 529 1173 q 422 1253 464 1253 q 348 1214 381 1253 q 309 1122 315 1174 l 222 1122 z "},"ȇ":{"ha":833,"x_min":88,"x_max":746,"o":"m 735 50 q 449 -22 584 -22 q 266 29 347 -22 q 137 175 185 80 q 88 377 88 269 q 134 576 88 481 q 263 725 180 672 q 448 779 346 779 q 664 682 583 779 q 746 385 746 586 l 746 358 l 224 358 q 257 214 224 279 q 343 117 290 149 q 465 84 397 84 q 735 165 587 84 l 735 50 m 231 452 l 609 452 l 609 471 q 564 618 609 564 q 442 673 518 673 q 310 617 366 673 q 231 452 254 562 m 264 852 q 303 974 273 928 q 377 1047 334 1021 q 465 1074 420 1074 q 553 1047 511 1074 q 626 974 596 1021 q 665 852 656 928 l 578 852 q 539 944 572 903 q 465 984 507 984 q 391 944 424 984 q 351 852 357 905 l 264 852 z "},"Ȉ":{"ha":833,"x_min":117,"x_max":716,"o":"m 117 0 l 117 105 l 348 105 l 348 947 l 117 947 l 117 1053 l 716 1053 l 716 947 l 485 947 l 485 105 l 716 105 l 716 0 l 117 0 m 379 1343 l 463 1343 l 559 1122 l 480 1122 l 379 1343 m 191 1343 l 276 1343 l 374 1122 l 294 1122 l 191 1343 z "},"ȉ":{"ha":833,"x_min":106,"x_max":654,"o":"m 317 0 l 317 652 l 106 652 l 106 758 l 443 758 l 443 105 l 654 105 l 654 0 l 317 0 m 343 1135 l 427 1135 l 523 913 l 444 913 l 343 1135 m 155 1135 l 240 1135 l 338 913 l 258 913 l 155 1135 z "},"Ȋ":{"ha":833,"x_min":117,"x_max":716,"o":"m 117 0 l 117 105 l 348 105 l 348 947 l 117 947 l 117 1053 l 716 1053 l 716 947 l 485 947 l 485 105 l 716 105 l 716 0 l 117 0 m 197 1122 q 236 1243 205 1197 q 309 1316 266 1290 q 397 1343 352 1343 q 486 1316 443 1343 q 558 1243 528 1290 q 597 1122 589 1197 l 510 1122 q 471 1213 504 1173 q 397 1253 439 1253 q 323 1214 356 1253 q 283 1122 290 1174 l 197 1122 z "},"ȋ":{"ha":833,"x_min":106,"x_max":654,"o":"m 317 0 l 317 652 l 106 652 l 106 758 l 443 758 l 443 105 l 654 105 l 654 0 l 317 0 m 163 913 q 202 1035 172 989 q 276 1108 233 1082 q 364 1135 319 1135 q 452 1108 410 1135 q 525 1035 495 1082 q 564 913 555 989 l 477 913 q 438 1005 471 964 q 364 1045 406 1045 q 290 1005 323 1045 q 250 913 256 966 l 163 913 z "},"Ȍ":{"ha":833,"x_min":48,"x_max":785,"o":"m 416 -32 q 143 119 237 -32 q 48 526 48 270 q 143 933 48 782 q 416 1084 237 1084 q 690 933 596 1084 q 785 526 785 782 q 690 119 785 270 q 416 -32 596 -32 m 416 74 q 582 186 515 74 q 648 526 648 298 q 582 866 648 754 q 416 979 515 979 q 251 866 317 979 q 185 526 185 754 q 251 186 185 298 q 416 74 317 74 m 427 1374 l 510 1374 l 606 1153 l 528 1153 l 427 1374 m 238 1374 l 323 1374 l 422 1153 l 342 1153 l 238 1374 z "},"ȍ":{"ha":833,"x_min":59,"x_max":774,"o":"m 417 -21 q 157 93 254 -21 q 59 379 59 206 q 157 665 59 552 q 417 779 254 779 q 677 665 579 779 q 774 379 774 552 q 677 93 774 206 q 417 -21 579 -21 m 417 84 q 578 163 518 84 q 637 379 637 241 q 578 595 637 516 q 417 673 518 673 q 256 595 315 673 q 196 379 196 516 q 256 163 196 241 q 417 84 315 84 m 427 1075 l 510 1075 l 606 854 l 528 854 l 427 1075 m 238 1075 l 323 1075 l 422 854 l 342 854 l 238 1075 z "},"Ȏ":{"ha":833,"x_min":48,"x_max":785,"o":"m 416 -32 q 143 119 237 -32 q 48 526 48 270 q 143 933 48 782 q 416 1084 237 1084 q 690 933 596 1084 q 785 526 785 782 q 690 119 785 270 q 416 -32 596 -32 m 416 74 q 582 186 515 74 q 648 526 648 298 q 582 866 648 754 q 416 979 515 979 q 251 866 317 979 q 185 526 185 754 q 251 186 185 298 q 416 74 317 74 m 197 1153 q 236 1275 205 1228 q 309 1348 266 1321 q 397 1374 352 1374 q 486 1348 443 1374 q 558 1275 528 1321 q 597 1153 589 1228 l 510 1153 q 471 1244 504 1204 q 397 1284 439 1284 q 323 1245 356 1284 q 283 1153 290 1205 l 197 1153 z "},"ȏ":{"ha":833,"x_min":59,"x_max":774,"o":"m 417 -21 q 157 93 254 -21 q 59 379 59 206 q 157 665 59 552 q 417 779 254 779 q 677 665 579 779 q 774 379 774 552 q 677 93 774 206 q 417 -21 579 -21 m 417 84 q 578 163 518 84 q 637 379 637 241 q 578 595 637 516 q 417 673 518 673 q 256 595 315 673 q 196 379 196 516 q 256 163 196 241 q 417 84 315 84 m 197 852 q 236 974 205 928 q 309 1047 266 1021 q 397 1074 352 1074 q 486 1047 443 1074 q 558 974 528 1021 q 597 852 589 928 l 510 852 q 471 944 504 903 q 397 984 439 984 q 323 944 356 984 q 283 852 290 905 l 197 852 z "},"Ȑ":{"ha":833,"x_min":97,"x_max":817,"o":"m 238 447 l 238 0 l 101 0 l 101 1053 l 382 1053 q 585 1024 520 1053 q 686 939 650 996 q 722 817 722 882 q 698 694 722 755 q 632 584 674 632 q 512 492 591 535 l 817 0 l 654 0 l 375 447 l 238 447 m 238 553 l 430 553 q 526 625 494 588 q 574 703 557 661 q 590 785 590 744 q 536 903 590 859 q 340 947 482 947 l 238 947 l 238 553 m 286 1343 l 369 1343 l 465 1122 l 387 1122 l 286 1343 m 97 1343 l 182 1343 l 281 1122 l 201 1122 l 97 1343 z "},"ȑ":{"ha":833,"x_min":170,"x_max":738,"o":"m 170 0 l 170 758 l 296 758 l 296 592 q 431 732 355 686 q 601 779 507 779 q 738 758 669 779 l 738 484 l 616 484 l 616 657 q 566 663 585 663 q 428 607 496 663 q 296 440 360 551 l 296 0 l 170 0 m 416 1075 l 500 1075 l 596 854 l 517 854 l 416 1075 m 228 1075 l 313 1075 l 412 854 l 332 854 l 228 1075 z "},"Ȓ":{"ha":833,"x_min":101,"x_max":817,"o":"m 238 447 l 238 0 l 101 0 l 101 1053 l 382 1053 q 585 1024 520 1053 q 686 939 650 996 q 722 817 722 882 q 698 694 722 755 q 632 584 674 632 q 512 492 591 535 l 817 0 l 654 0 l 375 447 l 238 447 m 238 553 l 430 553 q 526 625 494 588 q 574 703 557 661 q 590 785 590 744 q 536 903 590 859 q 340 947 482 947 l 238 947 l 238 553 m 258 1122 q 297 1243 267 1197 q 371 1316 328 1290 q 459 1343 414 1343 q 547 1316 505 1343 q 620 1243 590 1290 q 659 1122 650 1197 l 572 1122 q 533 1213 566 1173 q 459 1253 500 1253 q 385 1214 418 1253 q 345 1122 351 1174 l 258 1122 z "},"ȓ":{"ha":833,"x_min":170,"x_max":738,"o":"m 170 0 l 170 758 l 296 758 l 296 592 q 431 732 355 686 q 601 779 507 779 q 738 758 669 779 l 738 484 l 616 484 l 616 657 q 566 663 585 663 q 428 607 496 663 q 296 440 360 551 l 296 0 l 170 0 m 254 852 q 293 974 262 928 q 366 1047 323 1021 q 454 1074 409 1074 q 543 1047 500 1074 q 615 974 585 1021 q 654 852 646 928 l 567 852 q 528 944 561 903 q 454 984 496 984 q 380 944 413 984 q 340 852 347 905 l 254 852 z "},"Ȕ":{"ha":833,"x_min":85,"x_max":748,"o":"m 85 1053 l 222 1053 l 222 361 q 245 175 222 225 q 315 99 268 125 q 420 73 362 73 q 529 101 481 73 q 599 190 576 130 q 622 415 622 250 l 622 1053 l 748 1053 l 748 366 q 704 135 748 218 q 590 10 661 52 q 412 -32 519 -32 q 238 5 313 -32 q 124 115 163 41 q 85 379 85 188 l 85 1053 m 379 1343 l 463 1343 l 559 1122 l 480 1122 l 379 1343 m 191 1343 l 276 1343 l 374 1122 l 294 1122 l 191 1343 z "},"ȕ":{"ha":833,"x_min":97,"x_max":728,"o":"m 728 758 l 728 0 l 602 0 l 602 166 q 467 26 541 73 q 317 -21 392 -21 q 196 15 251 -21 q 119 108 140 50 q 97 334 97 166 l 97 758 l 223 758 l 223 319 q 234 175 223 210 q 272 117 244 140 q 333 95 300 95 q 476 158 399 95 q 602 316 552 220 l 602 758 l 728 758 m 382 1054 l 465 1054 l 562 833 l 483 833 l 382 1054 m 193 1054 l 279 1054 l 377 833 l 297 833 l 193 1054 z "},"Ȗ":{"ha":833,"x_min":85,"x_max":748,"o":"m 85 1053 l 222 1053 l 222 361 q 245 175 222 225 q 315 99 268 125 q 420 73 362 73 q 529 101 481 73 q 599 190 576 130 q 622 415 622 250 l 622 1053 l 748 1053 l 748 366 q 704 135 748 218 q 590 10 661 52 q 412 -32 519 -32 q 238 5 313 -32 q 124 115 163 41 q 85 379 85 188 l 85 1053 m 217 1122 q 256 1243 226 1197 q 329 1316 286 1290 q 418 1343 372 1343 q 506 1316 463 1343 q 579 1243 549 1290 q 617 1122 609 1197 l 530 1122 q 492 1213 524 1173 q 418 1253 459 1253 q 343 1214 376 1253 q 304 1122 310 1174 l 217 1122 z "},"ȗ":{"ha":833,"x_min":97,"x_max":728,"o":"m 728 758 l 728 0 l 602 0 l 602 166 q 467 26 541 73 q 317 -21 392 -21 q 196 15 251 -21 q 119 108 140 50 q 97 334 97 166 l 97 758 l 223 758 l 223 319 q 234 175 223 210 q 272 117 244 140 q 333 95 300 95 q 476 158 399 95 q 602 316 552 220 l 602 758 l 728 758 m 222 831 q 261 953 231 907 q 335 1026 292 1000 q 423 1053 378 1053 q 511 1026 469 1053 q 584 953 554 1000 q 623 831 614 907 l 536 831 q 497 923 530 882 q 423 963 465 963 q 349 923 382 963 q 309 831 315 884 l 222 831 z "},"Ș":{"ha":833,"x_min":106,"x_max":748,"o":"m 106 22 l 106 151 q 402 74 269 74 q 509 95 458 74 q 586 157 559 117 q 612 243 612 197 q 576 346 612 298 q 441 452 540 394 l 372 492 l 302 532 q 117 803 117 641 q 200 1003 117 922 q 457 1084 282 1084 q 675 1051 570 1084 l 675 934 q 449 979 559 979 q 308 932 361 979 q 254 821 254 886 q 295 714 254 757 q 401 635 336 671 l 454 604 l 519 564 l 575 531 q 748 265 748 425 q 659 56 748 143 q 374 -32 570 -32 q 255 -21 312 -32 q 106 22 199 -11 m 401 -487 l 401 -432 q 449 -408 433 -424 q 476 -369 466 -393 q 486 -311 486 -345 q 425 -288 445 -311 q 406 -238 406 -264 q 428 -187 406 -208 q 478 -166 449 -166 q 542 -198 515 -166 q 569 -285 569 -230 q 548 -377 569 -334 q 490 -450 526 -420 q 401 -487 454 -480 z "},"ș":{"ha":833,"x_min":114,"x_max":730,"o":"m 114 40 l 114 174 q 275 104 190 124 q 418 84 359 84 q 556 115 514 84 q 598 192 598 146 q 578 244 598 222 q 481 298 559 266 l 437 315 l 350 350 q 172 452 209 405 q 135 564 135 498 q 207 718 135 658 q 441 779 279 779 q 671 743 563 779 l 671 629 q 437 673 547 673 q 312 645 357 673 q 267 575 267 617 q 306 510 267 534 q 432 454 345 486 l 517 422 q 682 330 635 380 q 730 204 730 279 q 654 42 730 106 q 412 -21 578 -21 q 114 40 267 -21 m 396 -476 l 396 -421 q 444 -397 428 -413 q 470 -358 461 -382 q 480 -300 480 -334 q 420 -277 439 -300 q 401 -227 401 -254 q 422 -176 401 -197 q 472 -155 444 -155 q 536 -187 509 -155 q 563 -274 563 -219 q 542 -366 563 -323 q 485 -439 521 -409 q 396 -476 448 -470 z "},"Ț":{"ha":833,"x_min":33,"x_max":801,"o":"m 348 0 l 348 937 l 33 937 l 33 1053 l 801 1053 l 801 937 l 485 937 l 485 0 l 348 0 m 390 -455 l 390 -400 q 439 -376 422 -392 q 465 -337 455 -361 q 475 -279 475 -313 q 415 -256 434 -279 q 395 -206 395 -233 q 417 -155 395 -176 q 467 -134 438 -134 q 531 -166 504 -134 q 558 -253 558 -198 q 537 -345 558 -302 q 479 -418 516 -388 q 390 -455 443 -448 z "},"ț":{"ha":833,"x_min":65,"x_max":739,"o":"m 739 31 q 610 -14 650 -7 q 532 -21 570 -21 q 387 9 453 -21 q 288 100 321 40 q 254 284 254 159 l 254 589 l 65 589 l 65 694 l 254 694 l 254 1000 l 380 1000 l 380 694 l 718 694 l 718 589 l 380 589 l 380 286 q 402 157 380 195 q 460 102 424 119 q 546 84 496 84 q 739 142 637 84 l 739 31 m 377 -476 l 377 -421 q 425 -397 409 -413 q 451 -358 442 -382 q 461 -300 461 -334 q 401 -277 420 -300 q 382 -227 382 -254 q 403 -176 382 -197 q 453 -155 425 -155 q 517 -187 491 -155 q 544 -274 544 -219 q 523 -366 544 -323 q 466 -439 502 -409 q 377 -476 429 -470 z "},"Ȟ":{"ha":833,"x_min":85,"x_max":748,"o":"m 85 0 l 85 1053 l 222 1053 l 222 600 l 612 600 l 612 1053 l 748 1053 l 748 0 l 612 0 l 612 494 l 222 494 l 222 0 l 85 0 m 417 1229 l 511 1343 l 617 1343 l 459 1122 l 375 1122 l 217 1343 l 322 1343 l 417 1229 z "},"ȟ":{"ha":833,"x_min":105,"x_max":736,"o":"m 105 0 l 105 1095 l 231 1095 l 231 592 q 362 729 286 680 q 515 779 439 779 q 633 746 580 779 q 707 666 686 713 q 730 590 724 630 q 736 423 736 549 l 736 0 l 610 0 l 610 439 q 600 583 610 548 q 561 640 589 618 q 500 663 533 663 q 357 600 433 663 q 231 441 281 536 l 231 0 l 105 0 m 420 1271 l 515 1385 l 621 1385 l 463 1164 l 378 1164 l 220 1385 l 326 1385 l 420 1271 z "},"Ƞ":{"ha":833,"x_min":105,"x_max":736,"o":"m 105 0 l 105 1053 l 231 1053 l 231 887 q 362 1024 286 975 q 515 1074 439 1074 q 637 1038 583 1074 q 714 945 692 1002 q 736 718 736 887 l 736 -252 l 610 -252 l 610 734 q 600 878 610 843 q 561 935 589 913 q 500 958 533 958 q 357 895 433 958 q 231 736 281 831 l 231 0 l 105 0 z "},"Ȣ":{"ha":833,"x_min":59,"x_max":774,"o":"m 85 1053 l 222 1053 l 222 931 q 245 745 222 795 q 315 669 268 695 q 420 643 362 643 l 425 643 q 528 671 483 644 q 599 759 576 699 q 622 985 622 819 l 622 1053 l 748 1053 l 748 935 q 704 705 748 788 q 620 600 670 640 q 677 564 650 585 q 774 311 774 484 q 677 59 774 138 q 417 -21 579 -21 q 157 59 254 -21 q 59 311 59 138 q 157 564 59 484 q 203 595 178 581 q 124 684 153 629 q 85 949 85 758 l 85 1053 m 417 84 q 578 129 518 84 q 637 311 637 174 q 578 493 637 448 q 422 538 519 536 l 417 538 l 412 538 l 407 538 q 256 493 312 535 q 196 311 196 448 q 256 129 196 174 q 417 84 315 84 z "},"Ȥ":{"ha":833,"x_min":83,"x_max":756,"o":"m 525 -206 q 624 -127 586 -178 q 661 -43 661 -76 q 642 -3 661 -22 q 638 0 640 -1 l 83 0 l 83 116 l 583 947 l 98 947 l 98 1053 l 741 1053 l 741 947 l 241 116 l 751 116 l 751 3 q 756 -32 756 -13 q 656 -206 756 -114 l 525 -206 z "},"ȥ":{"ha":833,"x_min":90,"x_max":737,"o":"m 505 -200 q 603 -121 566 -172 q 641 -37 641 -70 q 625 0 641 -18 l 90 0 l 90 116 l 555 652 l 101 652 l 101 758 l 722 758 l 722 652 l 254 116 l 737 116 l 737 0 l 733 0 q 736 -26 736 -12 q 635 -200 736 -108 l 505 -200 z "},"Ȧ":{"ha":833,"x_min":22,"x_max":812,"o":"m 154 0 l 22 0 l 347 1053 l 486 1053 l 812 0 l 667 0 l 595 231 l 225 231 l 154 0 m 258 336 l 565 336 l 438 736 l 408 842 l 382 736 l 258 336 m 418 1175 q 359 1199 383 1175 q 334 1257 334 1223 q 359 1316 334 1292 q 418 1341 384 1341 q 476 1316 451 1341 q 500 1257 500 1292 q 476 1199 500 1223 q 418 1175 452 1175 z "},"ȧ":{"ha":833,"x_min":69,"x_max":758,"o":"m 603 170 q 464 27 545 75 q 315 -21 383 -21 q 145 61 220 -21 q 69 310 69 143 q 119 545 69 441 q 254 708 170 648 q 462 768 338 768 q 570 761 498 768 q 603 758 581 760 l 730 758 l 730 222 q 758 0 730 85 l 627 0 q 603 170 612 62 m 603 320 l 603 645 q 478 663 536 663 q 284 572 361 663 q 206 327 206 482 q 249 157 206 214 q 345 100 291 100 q 475 159 404 100 q 603 320 547 219 m 417 896 q 358 920 382 896 q 334 979 334 944 q 358 1038 334 1013 q 417 1062 383 1062 q 475 1038 450 1062 q 500 979 500 1013 q 475 920 500 944 q 417 896 451 896 z "},"Ȩ":{"ha":833,"x_min":138,"x_max":706,"o":"m 706 116 l 706 0 l 138 0 l 138 1053 l 695 1053 l 695 947 l 275 947 l 275 589 l 653 589 l 653 484 l 275 484 l 275 116 l 706 116 m 470 0 l 420 -89 q 515 -133 493 -103 q 538 -196 538 -163 q 508 -264 538 -233 q 414 -295 478 -295 q 307 -276 358 -295 l 307 -216 q 387 -237 346 -237 q 430 -222 411 -237 q 449 -193 449 -208 q 323 -134 449 -146 l 397 0 l 470 0 z "},"ȩ":{"ha":833,"x_min":88,"x_max":746,"o":"m 735 50 q 449 -22 584 -22 q 266 29 347 -22 q 137 175 185 80 q 88 377 88 269 q 134 576 88 481 q 263 725 180 672 q 448 779 346 779 q 664 682 583 779 q 746 385 746 586 l 746 358 l 224 358 q 257 214 224 279 q 343 117 290 149 q 465 84 397 84 q 735 165 587 84 l 735 50 m 231 452 l 609 452 l 609 471 q 564 618 609 564 q 442 673 518 673 q 310 617 366 673 q 231 452 254 562 m 465 -16 l 416 -105 q 511 -150 488 -119 q 533 -212 533 -180 q 503 -280 533 -250 q 410 -311 473 -311 q 302 -292 353 -311 l 302 -232 q 382 -253 341 -253 q 425 -239 406 -253 q 444 -209 444 -224 q 318 -150 444 -163 l 392 -16 l 465 -16 z "},"Ȫ":{"ha":833,"x_min":48,"x_max":785,"o":"m 416 -32 q 143 119 237 -32 q 48 526 48 270 q 143 933 48 782 q 416 1084 237 1084 q 690 933 596 1084 q 785 526 785 782 q 690 119 785 270 q 416 -32 596 -32 m 416 74 q 582 186 515 74 q 648 526 648 298 q 582 866 648 754 q 416 979 515 979 q 251 866 317 979 q 185 526 185 754 q 251 186 185 298 q 416 74 317 74 m 269 1153 q 210 1177 235 1153 q 185 1237 185 1202 q 210 1297 185 1272 q 269 1321 235 1321 q 328 1297 303 1321 q 353 1237 353 1272 q 329 1177 353 1202 q 269 1153 304 1153 m 564 1153 q 505 1177 530 1153 q 479 1237 479 1202 q 505 1297 479 1272 q 564 1321 530 1321 q 623 1297 598 1321 q 648 1237 648 1272 q 623 1177 648 1202 q 564 1153 598 1153 m 227 1390 l 227 1474 l 606 1474 l 606 1390 l 227 1390 z "},"ȫ":{"ha":833,"x_min":59,"x_max":774,"o":"m 417 -21 q 157 93 254 -21 q 59 379 59 206 q 157 665 59 552 q 417 779 254 779 q 677 665 579 779 q 774 379 774 552 q 677 93 774 206 q 417 -21 579 -21 m 417 84 q 578 163 518 84 q 637 379 637 241 q 578 595 637 516 q 417 673 518 673 q 256 595 315 673 q 196 379 196 516 q 256 163 196 241 q 417 84 315 84 m 269 853 q 210 878 235 853 q 185 937 185 902 q 210 997 185 972 q 269 1021 235 1021 q 328 997 303 1021 q 353 937 353 972 q 329 878 353 902 q 269 853 304 853 m 564 853 q 505 878 530 853 q 479 937 479 902 q 505 997 479 972 q 564 1021 530 1021 q 623 997 598 1021 q 648 937 648 972 q 623 878 648 902 q 564 853 598 853 m 227 1085 l 227 1169 l 606 1169 l 606 1085 l 227 1085 z "},"Ȭ":{"ha":833,"x_min":48,"x_max":785,"o":"m 416 -32 q 143 119 237 -32 q 48 526 48 270 q 143 933 48 782 q 416 1084 237 1084 q 690 933 596 1084 q 785 526 785 782 q 690 119 785 270 q 416 -32 596 -32 m 416 74 q 582 186 515 74 q 648 526 648 298 q 582 866 648 754 q 416 979 515 979 q 251 866 317 979 q 185 526 185 754 q 251 186 185 298 q 416 74 317 74 m 281 1154 l 196 1154 q 231 1285 196 1243 q 319 1327 266 1327 q 404 1300 361 1327 l 433 1283 q 511 1248 489 1248 q 552 1327 552 1248 l 638 1327 q 620 1226 634 1258 q 576 1174 606 1194 q 511 1153 547 1153 q 416 1186 467 1153 l 386 1205 l 370 1217 q 326 1232 347 1232 q 296 1217 311 1232 q 281 1154 281 1201 m 227 1396 l 227 1480 l 606 1480 l 606 1396 l 227 1396 z "},"ȭ":{"ha":833,"x_min":59,"x_max":774,"o":"m 417 -21 q 157 93 254 -21 q 59 379 59 206 q 157 665 59 552 q 417 779 254 779 q 677 665 579 779 q 774 379 774 552 q 677 93 774 206 q 417 -21 579 -21 m 417 84 q 578 163 518 84 q 637 379 637 241 q 578 595 637 516 q 417 673 518 673 q 256 595 315 673 q 196 379 196 516 q 256 163 196 241 q 417 84 315 84 m 281 854 l 196 854 q 231 985 196 943 q 319 1027 266 1027 q 404 1000 361 1027 l 433 983 q 511 948 489 948 q 552 1027 552 948 l 638 1027 q 620 926 634 958 q 576 874 606 895 q 511 853 547 853 q 416 886 467 853 l 386 905 l 370 917 q 326 932 347 932 q 296 917 311 932 q 281 854 281 901 m 227 1091 l 227 1175 l 606 1175 l 606 1091 l 227 1091 z "},"Ȯ":{"ha":833,"x_min":48,"x_max":785,"o":"m 416 -32 q 143 119 237 -32 q 48 526 48 270 q 143 933 48 782 q 416 1084 237 1084 q 690 933 596 1084 q 785 526 785 782 q 690 119 785 270 q 416 -32 596 -32 m 416 74 q 582 186 515 74 q 648 526 648 298 q 582 866 648 754 q 416 979 515 979 q 251 866 317 979 q 185 526 185 754 q 251 186 185 298 q 416 74 317 74 m 417 1206 q 358 1230 382 1206 q 334 1289 334 1254 q 358 1348 334 1323 q 417 1372 383 1372 q 475 1348 450 1372 q 500 1289 500 1323 q 475 1230 500 1254 q 417 1206 451 1206 z "},"ȯ":{"ha":833,"x_min":59,"x_max":774,"o":"m 417 -21 q 157 93 254 -21 q 59 379 59 206 q 157 665 59 552 q 417 779 254 779 q 677 665 579 779 q 774 379 774 552 q 677 93 774 206 q 417 -21 579 -21 m 417 84 q 578 163 518 84 q 637 379 637 241 q 578 595 637 516 q 417 673 518 673 q 256 595 315 673 q 196 379 196 516 q 256 163 196 241 q 417 84 315 84 m 417 906 q 358 930 382 906 q 334 989 334 954 q 358 1048 334 1023 q 417 1072 383 1072 q 475 1048 450 1072 q 500 989 500 1023 q 475 930 500 954 q 417 906 451 906 z "},"Ȱ":{"ha":833,"x_min":48,"x_max":785,"o":"m 416 -32 q 143 119 237 -32 q 48 526 48 270 q 143 933 48 782 q 416 1084 237 1084 q 690 933 596 1084 q 785 526 785 782 q 690 119 785 270 q 416 -32 596 -32 m 416 74 q 582 186 515 74 q 648 526 648 298 q 582 866 648 754 q 416 979 515 979 q 251 866 317 979 q 185 526 185 754 q 251 186 185 298 q 416 74 317 74 m 417 1206 q 358 1230 382 1206 q 334 1289 334 1254 q 358 1348 334 1323 q 417 1372 383 1372 q 475 1348 450 1372 q 500 1289 500 1323 q 475 1230 500 1254 q 417 1206 451 1206 m 227 1443 l 227 1527 l 606 1527 l 606 1443 l 227 1443 z "},"ȱ":{"ha":833,"x_min":59,"x_max":774,"o":"m 417 -21 q 157 93 254 -21 q 59 379 59 206 q 157 665 59 552 q 417 779 254 779 q 677 665 579 779 q 774 379 774 552 q 677 93 774 206 q 417 -21 579 -21 m 417 84 q 578 163 518 84 q 637 379 637 241 q 578 595 637 516 q 417 673 518 673 q 256 595 315 673 q 196 379 196 516 q 256 163 196 241 q 417 84 315 84 m 417 906 q 358 930 382 906 q 334 989 334 954 q 358 1048 334 1023 q 417 1072 383 1072 q 475 1048 450 1072 q 500 989 500 1023 q 475 930 500 954 q 417 906 451 906 m 227 1138 l 227 1222 l 606 1222 l 606 1138 l 227 1138 z "},"Ȳ":{"ha":833,"x_min":35,"x_max":798,"o":"m 349 0 l 349 487 l 35 1053 l 191 1053 l 425 635 l 658 1053 l 798 1053 l 486 487 l 486 0 l 349 0 m 227 1122 l 227 1206 l 606 1206 l 606 1122 l 227 1122 z "},"ȳ":{"ha":833,"x_min":22,"x_max":812,"o":"m 384 31 l 34 758 l 173 758 l 452 189 l 685 758 l 812 758 l 518 54 q 341 -243 425 -170 q 125 -316 258 -316 q 22 -306 67 -316 l 22 -195 q 121 -211 74 -211 q 230 -187 182 -211 q 317 -103 277 -163 q 372 1 356 -43 l 384 31 m 227 832 l 227 916 l 606 916 l 606 832 l 227 832 z "},"ȷ":{"ha":833,"x_min":117,"x_max":622,"o":"m 117 -297 l 117 -179 q 295 -210 222 -210 q 402 -188 358 -210 q 471 -114 446 -166 q 496 68 496 -62 l 496 652 l 174 652 l 174 758 l 622 758 l 622 92 q 576 -176 622 -101 q 467 -283 531 -251 q 290 -316 402 -316 q 117 -297 210 -316 z "},"ȸ":{"ha":833,"x_min":22,"x_max":811,"o":"m 458 587 q 550 730 497 682 q 648 779 604 779 q 761 696 711 779 q 811 448 811 614 q 778 213 811 316 q 689 49 745 109 q 551 -11 633 -11 q 480 -3 528 -11 q 458 0 473 -2 l 375 0 l 375 170 q 283 27 337 75 q 185 -21 230 -21 q 72 61 122 -21 q 22 310 22 143 q 56 545 22 441 q 144 708 89 648 q 281 768 200 768 q 353 761 305 768 q 375 758 361 760 l 375 1095 l 458 1095 l 458 587 m 458 437 l 458 113 q 542 95 504 95 q 669 185 617 95 q 721 431 721 275 q 693 601 721 544 q 629 658 665 658 q 543 598 589 658 q 458 437 496 538 m 375 320 l 375 645 q 292 663 330 663 q 164 572 216 663 q 113 327 113 482 q 141 157 113 214 q 205 100 169 100 q 291 159 243 100 q 375 320 338 219 z "},"ȹ":{"ha":833,"x_min":22,"x_max":811,"o":"m 458 587 q 550 730 497 682 q 648 779 604 779 q 761 696 711 779 q 811 448 811 614 q 778 213 811 316 q 689 49 745 109 q 551 -11 633 -11 q 480 -3 528 -11 q 458 0 473 -2 l 458 -294 l 375 -294 l 375 170 q 283 27 337 75 q 185 -21 230 -21 q 72 61 122 -21 q 22 310 22 143 q 56 545 22 441 q 144 708 89 648 q 281 768 200 768 q 353 761 305 768 q 375 758 361 760 l 458 758 l 458 587 m 458 437 l 458 113 q 542 95 504 95 q 669 185 617 95 q 721 431 721 275 q 693 601 721 544 q 629 658 665 658 q 543 598 589 658 q 458 437 496 538 m 375 320 l 375 645 q 292 663 330 663 q 164 572 216 663 q 113 327 113 482 q 141 157 113 214 q 205 100 169 100 q 291 159 243 100 q 375 320 338 219 z "},"Ⱥ":{"ha":833,"x_min":22,"x_max":812,"o":"m 146 -32 l 22 -32 l 41 0 l 22 0 l 347 1053 l 486 1053 l 549 846 l 692 1084 l 812 1084 l 591 713 l 812 0 l 667 0 l 595 231 l 303 231 l 146 -32 m 565 336 l 496 554 l 366 336 l 565 336 m 408 842 l 382 736 l 273 386 l 454 687 l 438 736 l 408 842 z "},"Ȼ":{"ha":833,"x_min":22,"x_max":812,"o":"m 146 -32 l 22 -32 l 157 192 q 138 231 146 210 q 80 526 80 361 q 137 820 80 690 q 298 1017 194 950 q 526 1084 401 1084 q 677 1060 595 1084 l 692 1084 l 812 1084 l 738 960 l 738 916 q 718 926 728 921 l 297 220 q 374 127 330 162 q 521 73 440 73 q 738 136 628 73 l 738 12 q 526 -32 620 -32 q 299 34 403 -32 q 223 97 258 60 l 146 -32 m 521 979 q 372 923 439 979 q 263 760 304 867 q 222 526 222 652 q 247 342 222 429 l 621 965 q 521 979 570 979 z "},"ȼ":{"ha":833,"x_min":102,"x_max":791,"o":"m 226 -136 l 102 -136 l 227 87 q 161 174 188 125 q 111 378 111 264 q 223 665 111 551 q 494 779 336 779 q 608 768 550 779 l 671 880 l 791 880 l 715 743 q 743 734 728 739 l 743 613 q 661 646 700 632 l 373 130 q 513 95 430 95 q 595 101 555 95 q 743 143 635 106 l 743 22 q 501 -21 616 -21 q 314 23 397 -21 l 226 -136 m 506 673 q 376 639 437 673 q 281 532 315 605 q 248 383 248 460 q 296 212 248 294 l 553 670 q 506 673 529 673 z "},"Ƚ":{"ha":833,"x_min":5,"x_max":717,"o":"m 5 509 l 5 614 l 149 614 l 149 1053 l 286 1053 l 286 614 l 429 614 l 429 509 l 286 509 l 286 116 l 717 116 l 717 0 l 149 0 l 149 509 l 5 509 z "},"Ⱦ":{"ha":833,"x_min":22,"x_max":812,"o":"m 348 0 l 348 306 l 146 -32 l 22 -32 l 348 511 l 348 937 l 33 937 l 33 1053 l 673 1053 l 692 1084 l 812 1084 l 793 1053 l 801 1053 l 801 937 l 724 937 l 485 535 l 485 0 l 348 0 m 485 739 l 604 937 l 485 937 l 485 739 z "},"Ɂ":{"ha":833,"x_min":117,"x_max":789,"o":"m 473 331 l 473 105 l 716 105 l 716 0 l 117 0 l 117 105 l 347 105 l 347 323 q 356 417 347 380 q 392 495 366 455 q 473 593 419 536 l 515 637 q 550 680 527 650 l 595 736 q 652 858 652 806 q 611 942 652 905 q 479 979 570 979 q 358 963 420 979 q 215 901 297 947 l 215 1023 q 477 1084 340 1084 q 709 1022 629 1084 q 789 861 789 960 q 686 658 789 763 l 641 612 l 588 557 l 540 507 q 493 439 513 477 q 473 331 473 400 z "},"ɑ":{"ha":833,"x_min":69,"x_max":758,"o":"m 603 170 q 464 27 545 75 q 315 -21 383 -21 q 145 61 220 -21 q 69 310 69 143 q 119 545 69 441 q 254 708 170 648 q 462 768 338 768 q 570 761 498 768 q 603 758 581 760 l 730 758 l 730 222 q 758 0 730 85 l 627 0 q 603 170 612 62 m 603 320 l 603 645 q 478 663 536 663 q 284 572 361 663 q 206 327 206 482 q 249 157 206 214 q 345 100 291 100 q 475 159 404 100 q 603 320 547 219 z "},"ɒ":{"ha":833,"x_min":69,"x_max":758,"o":"m 224 577 q 363 720 282 672 q 512 768 444 768 q 683 686 607 768 q 758 437 758 604 q 708 202 758 306 q 574 39 658 99 q 366 -21 490 -21 q 257 -14 330 -21 q 224 -10 246 -12 l 98 -10 l 98 525 q 69 747 98 662 l 201 747 q 224 577 216 685 m 224 427 l 224 102 q 349 85 292 85 q 544 175 466 85 q 621 420 621 265 q 579 590 621 533 q 482 648 536 648 q 352 588 423 648 q 224 427 281 528 z "}}}
